STARTFONT 2.1
COMMENT $XFree86$
COMMENT ISO10646-1 extension by Markus Kuhn <mkuhn@acm.org>, 2001-03-20
COMMENT  (c) Copyright Bigelow & Holmes 1986, 1985. Lucida is a registered
COMMENT  trademark of Bigelow & Holmes. See LEGAL NOTICE file for terms 
COMMENT  of the license. 
FONT -B&H-LucidaBright-DemiBold-I-Normal--25-180-100-100-P-149-ISO10646-1
SIZE 18 100 100
FONTBOUNDINGBOX 46 40 -15 -12
STARTPROPERTIES 22
COMMENT Begin LogicalFontDescription
FONTNAME_REGISTRY ""
FOUNDRY "B&H"
FAMILY_NAME "LucidaBright"
WEIGHT_NAME "DemiBold"
SLANT "I"
SETWIDTH_NAME "Normal"
ADD_STYLE_NAME ""
PIXEL_SIZE 25
POINT_SIZE 180
RESOLUTION_X 100
RESOLUTION_Y 100
SPACING "P"
AVERAGE_WIDTH 149
CHARSET_REGISTRY "ISO10646"
CHARSET_ENCODING "1"
COMMENT END LogicalFontDescription
FONT_ASCENT 23
FONT_DESCENT 6
DEFAULT_CHAR 0
COPYRIGHT "Copyright Bigelow & Holmes 1986, 1985."
FACE_NAME "Lucida Bright Demibold Italic"
X_HEIGHT 13
CAP_HEIGHT 18
ENDPROPERTIES
CHARS 723
STARTCHAR char0
ENCODING 0
SWIDTH 827 0
DWIDTH 21 0
BBX 23 17 1 0
BITMAP
AAAAAA
000000
800002
000000
800002
000000
800002
000000
800002
000000
800002
000000
800002
000000
800002
000000
AAAAAA
ENDCHAR
STARTCHAR space
ENCODING 32
SWIDTH 333 0
DWIDTH 8 0
BBX 1 1 0 0
BITMAP
00
ENDCHAR
STARTCHAR exclam
ENCODING 33
SWIDTH 265 0
DWIDTH 6 0
BBX 7 18 1 0
BITMAP
1E
1E
1C
1C
1C
1C
18
38
38
38
30
30
30
00
00
F0
F0
F0
ENDCHAR
STARTCHAR quotedbl
ENCODING 34
SWIDTH 451 0
DWIDTH 11 0
BBX 9 7 4 11
BITMAP
F780
E380
E380
6300
6300
6300
4100
ENDCHAR
STARTCHAR numbersign
ENCODING 35
SWIDTH 636 0
DWIDTH 16 0
BBX 16 18 2 0
BITMAP
0063
00C2
00C6
0084
018C
0108
7FFF
0210
0630
0420
0C60
0860
FFFE
1080
3180
6100
6300
C600
ENDCHAR
STARTCHAR dollar
ENCODING 36
SWIDTH 636 0
DWIDTH 16 0
BBX 14 23 3 -3
BITMAP
0040
0040
07FC
0E9C
1C8C
1C88
1C80
1D80
1F00
0F00
07C0
03E0
03F0
02F0
0270
0270
4670
C4E0
E5C0
FF80
0400
0C00
0C00
ENDCHAR
STARTCHAR percent
ENCODING 37
SWIDTH 772 0
DWIDTH 19 0
BBX 20 18 1 0
BITMAP
0F0070
3980E0
71C1C0
71C380
61C700
E18E00
639C00
673800
3E7000
00E3C0
01CE60
038C70
071C70
0E1C70
0C1870
1818E0
301CC0
E00F80
ENDCHAR
STARTCHAR ampersand
ENCODING 38
SWIDTH 773 0
DWIDTH 19 0
BBX 20 18 1 0
BITMAP
007C00
01CE00
038700
038700
038E00
038E00
03F800
03E000
1DC3F0
39E1C0
71E1C0
F0F180
F0F180
F07B00
F03E00
703E00
783F00
1FCFC0
ENDCHAR
STARTCHAR quotesingle
ENCODING 39
SWIDTH 247 0
DWIDTH 6 0
BBX 4 7 4 11
BITMAP
F0
F0
E0
60
60
60
60
ENDCHAR
STARTCHAR parenleft
ENCODING 40
SWIDTH 336 0
DWIDTH 8 0
BBX 9 23 2 -5
BITMAP
0080
0100
0600
0E00
0C00
1C00
3800
3800
7000
7000
F000
F000
E000
E000
E000
E000
E000
E000
6000
7000
3000
1000
1800
ENDCHAR
STARTCHAR parenright
ENCODING 41
SWIDTH 336 0
DWIDTH 8 0
BBX 9 23 0 -5
BITMAP
0400
0400
0600
0300
0300
0380
0380
0380
0380
0380
0380
0780
0780
0700
0700
0E00
0E00
1C00
1800
3800
3000
4000
8000
ENDCHAR
STARTCHAR asterisk
ENCODING 42
SWIDTH 434 0
DWIDTH 11 0
BBX 10 9 3 9
BITMAP
0E00
0600
44C0
F7C0
7380
1400
3600
E700
2200
ENDCHAR
STARTCHAR plus
ENCODING 43
SWIDTH 636 0
DWIDTH 16 0
BBX 15 15 2 0
BITMAP
00C0
00C0
0080
0180
0180
0180
0180
FFFE
0300
0300
0300
0300
0200
0600
0600
ENDCHAR
STARTCHAR comma
ENCODING 44
SWIDTH 265 0
DWIDTH 7 0
BBX 6 9 0 -5
BITMAP
3C
7C
78
78
38
38
30
F0
C0
ENDCHAR
STARTCHAR hyphen
ENCODING 45
SWIDTH 289 0
DWIDTH 7 0
BBX 6 1 2 8
BITMAP
FC
ENDCHAR
STARTCHAR period
ENCODING 46
SWIDTH 265 0
DWIDTH 7 0
BBX 5 4 1 0
BITMAP
78
78
F0
F0
ENDCHAR
STARTCHAR slash
ENCODING 47
SWIDTH 515 0
DWIDTH 13 0
BBX 17 22 0 -4
BITMAP
000180
000300
000200
000400
000C00
000800
001000
003000
002000
004000
008000
008000
010000
020000
020000
040000
080000
080000
100000
200000
600000
C00000
ENDCHAR
STARTCHAR zero
ENCODING 48
SWIDTH 623 0
DWIDTH 16 0
BBX 15 18 2 0
BITMAP
01F0
0638
0C1C
1C1C
381C
381E
781E
701E
F01C
F01C
F03C
F03C
F038
F078
F070
70E0
39C0
1F00
ENDCHAR
STARTCHAR one
ENCODING 49
SWIDTH 636 0
DWIDTH 16 0
BBX 10 18 3 0
BITMAP
1FC0
03C0
03C0
0380
0380
0780
0780
0780
0700
0700
0F00
0F00
0F00
0E00
0E00
1E00
1E00
FFC0
ENDCHAR
STARTCHAR two
ENCODING 50
SWIDTH 636 0
DWIDTH 16 0
BBX 15 18 2 0
BITMAP
03F0
0C3C
181E
181E
001E
001E
003C
0038
0060
0180
0200
0400
1800
3000
7000
7FF8
FFF0
FFF0
ENDCHAR
STARTCHAR three
ENCODING 51
SWIDTH 636 0
DWIDTH 16 0
BBX 14 18 3 0
BITMAP
0FF0
0C78
083C
183C
003C
0038
0070
00E0
1FC0
01E0
0070
0078
0078
0078
4070
C0F0
E1C0
7F00
ENDCHAR
STARTCHAR four
ENCODING 52
SWIDTH 636 0
DWIDTH 16 0
BBX 14 18 2 0
BITMAP
001C
0038
0078
00B8
0138
0238
0470
0870
1070
2070
7FFC
FFFC
FFFC
00E0
00E0
00E0
01E0
07F8
ENDCHAR
STARTCHAR five
ENCODING 53
SWIDTH 636 0
DWIDTH 16 0
BBX 15 18 3 0
BITMAP
0FFE
0FFC
0FFC
1800
1800
1000
1000
3F00
03C0
00F0
00F0
0070
0078
0070
40F0
C0E0
E1C0
FE00
ENDCHAR
STARTCHAR six
ENCODING 54
SWIDTH 636 0
DWIDTH 16 0
BBX 15 18 3 0
BITMAP
01FC
070E
0E04
1C04
3C0C
3800
7800
73E0
FC78
F838
F038
F038
F038
F038
7070
7070
38E0
1F80
ENDCHAR
STARTCHAR seven
ENCODING 55
SWIDTH 636 0
DWIDTH 16 0
BBX 14 18 4 0
BITMAP
3FFC
7FFC
7FF8
0018
0030
0060
00C0
0180
0300
0700
0E00
1C00
3C00
3800
7800
7000
F000
F000
ENDCHAR
STARTCHAR eight
ENCODING 56
SWIDTH 636 0
DWIDTH 16 0
BBX 15 18 2 0
BITMAP
01F8
071C
0E1E
1C1E
1C1E
1E1C
1F38
0FE0
07E0
19F8
38F8
707C
F03C
F03C
F038
F030
7860
1F80
ENDCHAR
STARTCHAR nine
ENCODING 57
SWIDTH 636 0
DWIDTH 16 0
BBX 15 18 2 0
BITMAP
03E0
0E38
1C1C
3C1C
381E
781E
781E
781E
383E
3C7C
0FBC
003C
0038
4078
C070
C0E0
E180
7E00
ENDCHAR
STARTCHAR colon
ENCODING 58
SWIDTH 265 0
DWIDTH 6 0
BBX 6 13 1 0
BITMAP
3C
3C
3C
38
00
00
00
00
00
70
F0
F0
F0
ENDCHAR
STARTCHAR semicolon
ENCODING 59
SWIDTH 265 0
DWIDTH 6 0
BBX 7 18 1 -5
BITMAP
1E
1E
1E
1C
00
00
00
00
00
00
00
78
78
38
30
30
70
C0
ENDCHAR
STARTCHAR less
ENCODING 60
SWIDTH 636 0
DWIDTH 16 0
BBX 16 15 2 0
BITMAP
0001
0007
001E
0070
01C0
0700
3C00
F000
3C00
0F00
0780
01E0
0078
001C
0008
ENDCHAR
STARTCHAR equal
ENCODING 61
SWIDTH 636 0
DWIDTH 16 0
BBX 16 6 1 4
BITMAP
7FFF
0000
0000
0000
0000
FFFE
ENDCHAR
STARTCHAR greater
ENCODING 62
SWIDTH 636 0
DWIDTH 16 0
BBX 16 15 1 0
BITMAP
1000
1800
1E00
0780
01E0
00F0
003C
000F
003C
00E0
0380
0E00
3800
E000
8000
ENDCHAR
STARTCHAR question
ENCODING 63
SWIDTH 493 0
DWIDTH 12 0
BBX 11 18 3 0
BITMAP
3F80
63C0
41E0
C1E0
01E0
01C0
0180
0300
0600
1C00
3800
3800
7800
0000
0000
F000
F000
F000
ENDCHAR
STARTCHAR at
ENCODING 64
SWIDTH 861 0
DWIDTH 22 0
BBX 19 18 3 0
BITMAP
00FE00
030380
0C00C0
180040
30F020
211C20
430C20
460C20
861C20
8C3820
8C3860
8C7840
8ED880
471F00
400000
200000
183000
07E000
ENDCHAR
STARTCHAR A
ENCODING 65
SWIDTH 765 0
DWIDTH 19 0
BBX 19 18 0 0
BITMAP
000C00
001C00
001C00
003E00
007E00
005E00
00CE00
018E00
010F00
030F00
020F00
060700
0FFF80
080780
180780
100380
3003C0
F80FE0
ENDCHAR
STARTCHAR B
ENCODING 66
SWIDTH 651 0
DWIDTH 16 0
BBX 16 18 1 0
BITMAP
1FFC
070F
070F
070F
070F
0F0E
0E1E
0E3C
0FF0
0E38
1E1C
1C1E
1C1E
1C1E
1C1E
3C3C
3C78
FFF0
ENDCHAR
STARTCHAR C
ENCODING 67
SWIDTH 740 0
DWIDTH 18 0
BBX 17 18 3 0
BITMAP
00FF00
038780
0E0180
1E0100
1C0300
380000
780000
780000
F00000
F00000
F00000
F00000
F00000
F00000
780000
780000
3E0C00
0FF000
ENDCHAR
STARTCHAR D
ENCODING 68
SWIDTH 822 0
DWIDTH 21 0
BBX 20 18 1 0
BITMAP
1FFF00
0787C0
0781E0
0700E0
0700F0
0F00F0
0F00F0
0F00F0
0E00F0
0E00F0
1E00E0
1E01E0
1E01C0
1E03C0
1C0380
3C0700
3C1E00
FFF800
ENDCHAR
STARTCHAR E
ENCODING 69
SWIDTH 630 0
DWIDTH 16 0
BBX 17 18 1 0
BITMAP
1FFF80
078180
078100
078000
078000
0F0000
0F0000
0F0C00
0FF800
0E0800
1E0000
1E0000
1E0000
1E0000
1C0000
3C0600
3C0C00
FFFC00
ENDCHAR
STARTCHAR F
ENCODING 70
SWIDTH 602 0
DWIDTH 15 0
BBX 17 18 1 0
BITMAP
1FFF80
078180
078300
078000
070000
070000
0F0000
0F0C00
0FF800
0E0800
0E0000
1E0000
1E0000
1E0000
1C0000
3C0000
3C0000
FF0000
ENDCHAR
STARTCHAR G
ENCODING 71
SWIDTH 780 0
DWIDTH 19 0
BBX 17 18 3 0
BITMAP
00FF80
038380
0F0180
1E0300
1C0000
380000
780000
780000
F00000
F00000
F03F80
F01E00
F01E00
F01C00
781C00
781C00
3C3C00
0FF000
ENDCHAR
STARTCHAR H
ENCODING 72
SWIDTH 827 0
DWIDTH 21 0
BBX 23 18 1 0
BITMAP
1FF1FE
07C078
078078
0780F0
0780F0
0700F0
0F00F0
0F00E0
0FFFE0
0F01E0
0E01E0
1E01E0
1E01C0
1E03C0
1E03C0
3C03C0
3C07C0
FF1FF0
ENDCHAR
STARTCHAR I
ENCODING 73
SWIDTH 372 0
DWIDTH 9 0
BBX 11 18 1 0
BITMAP
1FE0
0780
0780
0700
0F00
0F00
0F00
0F00
0E00
0E00
1E00
1E00
1E00
1C00
1C00
3C00
3C00
FF00
ENDCHAR
STARTCHAR J
ENCODING 74
SWIDTH 478 0
DWIDTH 12 0
BBX 15 22 0 -4
BITMAP
01FE
0078
0078
0070
00F0
00F0
00F0
00F0
00E0
00E0
01E0
01E0
01E0
01E0
01C0
03C0
03C0
03C0
6380
C700
C600
FC00
ENDCHAR
STARTCHAR K
ENCODING 75
SWIDTH 746 0
DWIDTH 19 0
BBX 19 18 1 0
BITMAP
1FE3E0
078180
070300
070600
070C00
0F1000
0F6000
0EC000
0FE000
0FE000
1EF000
1EF800
1C7C00
1C3C00
1C3E00
3C1F00
3C0F00
FE3FC0
ENDCHAR
STARTCHAR L
ENCODING 76
SWIDTH 611 0
DWIDTH 15 0
BBX 15 18 1 0
BITMAP
1FF0
07C0
0780
0780
0780
0700
0F00
0F00
0F00
0F00
0E00
1E00
1E00
1E00
1E06
3C06
3C0C
FFFC
ENDCHAR
STARTCHAR M
ENCODING 77
SWIDTH 926 0
DWIDTH 23 0
BBX 25 18 1 0
BITMAP
1F801F80
07801E00
07803E00
07C07C00
05C05C00
0DC0BC00
0DC1BC00
0CE13C00
0CE33800
08E23800
18E43800
187C7800
18787800
18707000
10707000
3020F000
3000F000
FC03FC00
ENDCHAR
STARTCHAR N
ENCODING 78
SWIDTH 797 0
DWIDTH 20 0
BBX 22 18 1 0
BITMAP
1F80FC
078030
07C030
07C060
07E060
0DE060
0CF060
0CF060
0C78C0
0C78C0
183CC0
181CC0
181E80
180F80
180F80
300780
300780
FC0300
ENDCHAR
STARTCHAR O
ENCODING 79
SWIDTH 831 0
DWIDTH 21 0
BBX 19 18 3 0
BITMAP
00FE00
038780
0703C0
1E01C0
1C01E0
3801E0
7801E0
7801E0
F001E0
F001E0
F003C0
F003C0
F00380
F00700
700E00
781C00
3C3800
0FC000
ENDCHAR
STARTCHAR P
ENCODING 80
SWIDTH 628 0
DWIDTH 16 0
BBX 17 18 1 0
BITMAP
1FFE00
078F00
078780
078780
070780
0F0780
0F0700
0F0F00
0F0E00
0E3C00
1FF000
1E0000
1E0000
1E0000
1C0000
3C0000
3C0000
FF0000
ENDCHAR
STARTCHAR Q
ENCODING 81
SWIDTH 835 0
DWIDTH 21 0
BBX 21 23 3 -5
BITMAP
00FE00
038700
070380
1E01C0
1C01E0
3801E0
7801E0
7801E0
F001E0
F001E0
F003E0
F003C0
F003C0
F00780
700F80
781F00
3C3E00
0FFC00
007800
002000
001000
000E00
0001F8
ENDCHAR
STARTCHAR R
ENCODING 82
SWIDTH 711 0
DWIDTH 18 0
BBX 17 18 1 0
BITMAP
1FFE00
078F80
078780
070780
070780
0F0780
0F0700
0F0E00
0F1C00
0FF800
1E7800
1E7800
1E3C00
1C3C00
1C1E00
3C1E00
3C0F00
FE0F80
ENDCHAR
STARTCHAR S
ENCODING 83
SWIDTH 587 0
DWIDTH 15 0
BBX 15 18 2 0
BITMAP
01FC
070E
0E06
1C0C
1C00
1E00
1F00
1F80
0FE0
03F0
01F8
00F8
0078
0078
6078
C070
E0E0
7F80
ENDCHAR
STARTCHAR T
ENCODING 84
SWIDTH 716 0
DWIDTH 18 0
BBX 18 18 3 0
BITMAP
7FFFC0
E1E0C0
C1E080
C1E180
03C000
03C000
03C000
03C000
03C000
038000
078000
078000
078000
078000
070000
0F0000
0F0000
7FC000
ENDCHAR
STARTCHAR U
ENCODING 85
SWIDTH 775 0
DWIDTH 19 0
BBX 19 18 4 0
BITMAP
FF07E0
3C0380
3C0300
380300
380200
780200
780200
780200
700600
F00400
F00400
F00400
F00400
F00800
F00800
701000
382000
1FC000
ENDCHAR
STARTCHAR V
ENCODING 86
SWIDTH 741 0
DWIDTH 19 0
BBX 19 18 3 0
BITMAP
FE03E0
7C0080
3C0180
3C0100
3C0200
3C0600
1E0400
1E0800
1E0800
1E1000
1E3000
0F2000
0F4000
0FC000
0F8000
070000
070000
060000
ENDCHAR
STARTCHAR W
ENCODING 87
SWIDTH 922 0
DWIDTH 23 0
BBX 23 18 3 0
BITMAP
FC183E
78180C
783818
783810
387830
387C20
38FC60
38BC40
399CC0
391C80
3B1D80
3A1D00
3E1F00
3C1E00
3C1E00
381C00
381C00
301800
ENDCHAR
STARTCHAR X
ENCODING 88
SWIDTH 672 0
DWIDTH 17 0
BBX 20 18 0 0
BITMAP
0FE1F0
07C0C0
03C180
03C100
01E200
01E600
00EC00
00F800
00F000
00F800
01F800
033C00
023C00
041C00
081E00
181E00
300F00
F83F80
ENDCHAR
STARTCHAR Y
ENCODING 89
SWIDTH 669 0
DWIDTH 17 0
BBX 17 18 3 0
BITMAP
FE0F80
7C0600
3C0400
3C0C00
1C1800
1E3000
1E2000
0F6000
0FC000
078000
070000
0F0000
0F0000
0F0000
0F0000
0E0000
1E0000
7F8000
ENDCHAR
STARTCHAR Z
ENCODING 90
SWIDTH 684 0
DWIDTH 17 0
BBX 17 18 2 0
BITMAP
0FFF80
0C0F00
081F00
001E00
003C00
007800
00F800
01F000
01E000
03C000
078000
0F8000
0F0000
1E0000
3C0000
7C0C00
F80C00
FFFC00
ENDCHAR
STARTCHAR bracketleft
ENCODING 91
SWIDTH 336 0
DWIDTH 8 0
BBX 10 22 1 -4
BITMAP
0FC0
0E00
0E00
0E00
0E00
1C00
1C00
1C00
1C00
1C00
3800
3800
3800
3800
3800
7000
7000
7000
7000
7000
E000
FC00
ENDCHAR
STARTCHAR backslash
ENCODING 92
SWIDTH 515 0
DWIDTH 13 0
BBX 8 22 4 -4
BITMAP
C0
40
40
40
20
20
20
10
10
10
10
08
08
08
08
04
04
04
02
02
02
03
ENDCHAR
STARTCHAR bracketright
ENCODING 93
SWIDTH 336 0
DWIDTH 8 0
BBX 10 22 0 -4
BITMAP
0FC0
01C0
0380
0380
0380
0380
0380
0700
0700
0700
0700
0700
0E00
0E00
0E00
0E00
0E00
1C00
1C00
1C00
1C00
FC00
ENDCHAR
STARTCHAR asciicircum
ENCODING 94
SWIDTH 636 0
DWIDTH 16 0
BBX 14 15 2 3
BITMAP
0040
0040
00E0
01E0
01E0
0360
0230
0630
0C30
0C30
1818
3018
3018
600C
C00C
ENDCHAR
STARTCHAR underscore
ENCODING 95
SWIDTH 500 0
DWIDTH 12 0
BBX 11 1 1 -3
BITMAP
FFE0
ENDCHAR
STARTCHAR grave
ENCODING 96
SWIDTH 599 0
DWIDTH 15 0
BBX 5 4 8 14
BITMAP
E0
70
30
18
ENDCHAR
STARTCHAR a
ENCODING 97
SWIDTH 634 0
DWIDTH 16 0
BBX 15 13 2 0
BITMAP
01FE
063E
0C1C
181C
383C
703C
707C
F0B8
F1F8
F378
FE78
FC78
787C
ENDCHAR
STARTCHAR b
ENCODING 98
SWIDTH 633 0
DWIDTH 16 0
BBX 15 18 2 0
BITMAP
3F00
1E00
1E00
1E00
1E00
1C3C
1C7E
3CFE
3D9E
3F1E
3A1E
7C1C
781C
7838
7030
7060
F8C0
FF00
ENDCHAR
STARTCHAR c
ENCODING 99
SWIDTH 524 0
DWIDTH 13 0
BBX 13 13 2 0
BITMAP
03F0
0E38
1C30
3830
7800
7000
F000
F000
F000
F000
F000
7820
3FC0
ENDCHAR
STARTCHAR d
ENCODING 100
SWIDTH 634 0
DWIDTH 16 0
BBX 16 18 2 0
BITMAP
003F
000F
000E
000E
001E
01FE
063E
0C1C
183C
383C
703C
7078
F0B8
F1F8
F378
FE78
FC78
78FC
ENDCHAR
STARTCHAR e
ENCODING 101
SWIDTH 548 0
DWIDTH 14 0
BBX 12 13 2 0
BITMAP
03E0
0CF0
1870
3870
7070
70E0
F3C0
FF00
F000
F000
F010
7870
3F80
ENDCHAR
STARTCHAR f
ENCODING 102
SWIDTH 415 0
DWIDTH 10 0
BBX 14 25 1 -5
BITMAP
00FC
018C
030C
0708
0708
0F00
0F00
3FE0
1E00
1E00
1E00
1C00
1C00
3C00
3C00
3C00
3800
3800
7800
7800
7800
7000
7000
F000
F000
ENDCHAR
STARTCHAR g
ENCODING 103
SWIDTH 628 0
DWIDTH 16 0
BBX 15 18 1 -5
BITMAP
01FE
061E
0C1E
1C1C
181C
383C
787C
787C
78B8
79B8
7F78
7E78
3870
0070
80F0
C0E0
71C0
7F00
ENDCHAR
STARTCHAR h
ENCODING 104
SWIDTH 656 0
DWIDTH 16 0
BBX 14 18 2 0
BITMAP
3E00
1E00
1E00
1E00
1C00
1C38
3CFC
3DFC
3DBC
3A3C
3E38
7C38
7878
7878
7078
7070
F070
F0FC
ENDCHAR
STARTCHAR i
ENCODING 105
SWIDTH 319 0
DWIDTH 8 0
BBX 7 18 2 0
BITMAP
1E
1E
1C
00
00
FC
3C
3C
38
38
78
78
78
70
70
F0
F0
FC
ENDCHAR
STARTCHAR j
ENCODING 106
SWIDTH 381 0
DWIDTH 10 0
BBX 14 23 -1 -5
BITMAP
003C
003C
0038
0000
0000
01F8
0070
0070
00F0
00F0
00F0
00E0
00E0
01E0
01E0
01E0
01C0
03C0
03C0
4380
C300
C600
FC00
ENDCHAR
STARTCHAR k
ENCODING 107
SWIDTH 626 0
DWIDTH 16 0
BBX 14 18 2 0
BITMAP
3F00
1E00
1E00
1E00
1E00
1C3C
3C3C
3C38
3C70
39E0
3F80
7B80
7BC0
7BC0
71E0
70F0
F0F8
F07C
ENDCHAR
STARTCHAR l
ENCODING 108
SWIDTH 319 0
DWIDTH 8 0
BBX 7 18 2 0
BITMAP
3E
1E
1E
1C
1C
3C
3C
3C
38
38
78
78
78
70
70
F0
F0
F8
ENDCHAR
STARTCHAR m
ENCODING 109
SWIDTH 969 0
DWIDTH 24 0
BBX 22 13 2 0
BITMAP
FC3838
3CFCFC
3DFDFC
3B3D3C
3A3A3C
3C3E38
7C3C38
787838
707878
707078
707070
F07070
F0F0FC
ENDCHAR
STARTCHAR n
ENCODING 110
SWIDTH 656 0
DWIDTH 16 0
BBX 14 13 2 0
BITMAP
FC38
3CFC
3CFC
393C
3A3C
3C38
7C38
7878
7878
7078
7070
F070
F0FC
ENDCHAR
STARTCHAR o
ENCODING 111
SWIDTH 599 0
DWIDTH 15 0
BBX 14 13 2 0
BITMAP
03E0
0E38
1C38
383C
783C
703C
F03C
F038
F078
F070
F0E0
79C0
3F00
ENDCHAR
STARTCHAR p
ENCODING 112
SWIDTH 639 0
DWIDTH 16 0
BBX 16 18 1 -5
BITMAP
7E1E
1E3F
1E7F
1ECF
1D0F
1D0F
3E0E
3C0E
3C1C
3818
3830
7C60
7F80
7800
7000
7000
F000
F000
ENDCHAR
STARTCHAR q
ENCODING 113
SWIDTH 630 0
DWIDTH 16 0
BBX 15 18 2 -5
BITMAP
01FE
063E
0C1C
181C
383C
703C
707C
F0B8
F1B8
F378
FE78
FC78
7870
00F0
00F0
00F0
00F0
00E0
ENDCHAR
STARTCHAR r
ENCODING 114
SWIDTH 496 0
DWIDTH 12 0
BBX 13 13 2 0
BITMAP
7C38
3C70
3CF0
3D80
3E00
3E00
7C00
7800
7800
7000
7000
F000
F000
ENDCHAR
STARTCHAR s
ENCODING 115
SWIDTH 479 0
DWIDTH 12 0
BBX 12 13 1 0
BITMAP
07E0
1C70
1C20
3C60
1E00
1F00
0F80
07C0
03C0
41C0
C1C0
E380
7F00
ENDCHAR
STARTCHAR t
ENCODING 116
SWIDTH 375 0
DWIDTH 9 0
BBX 9 17 2 0
BITMAP
0C00
1C00
3C00
3C00
FF80
3C00
3800
3800
7800
7800
7800
7000
F000
F000
F000
7200
3C00
ENDCHAR
STARTCHAR u
ENCODING 117
SWIDTH 655 0
DWIDTH 16 0
BBX 14 13 3 0
BITMAP
FCFC
383C
3838
7838
7878
7878
70F8
70F0
F170
F370
FEF0
FCF0
70FC
ENDCHAR
STARTCHAR v
ENCODING 118
SWIDTH 584 0
DWIDTH 15 0
BBX 15 13 2 0
BITMAP
F83E
780E
3C0E
3C0C
1C18
1E30
1E30
1E60
0EC0
0F80
0F00
0E00
0C00
ENDCHAR
STARTCHAR w
ENCODING 119
SWIDTH 822 0
DWIDTH 21 0
BBX 20 13 2 0
BITMAP
F820F0
783070
387060
3C7060
3C78C0
1CB880
1CB900
1D3B00
1F3A00
1E1C00
1C1C00
181800
181000
ENDCHAR
STARTCHAR x
ENCODING 120
SWIDTH 534 0
DWIDTH 13 0
BBX 13 13 1 0
BITMAP
3C38
1E38
1E38
0F30
0F60
0780
0780
0F80
1BC0
31C0
61E0
E1E0
E0F0
ENDCHAR
STARTCHAR y
ENCODING 121
SWIDTH 586 0
DWIDTH 15 0
BBX 17 18 0 -5
BITMAP
3F0780
0F0380
0F0380
078300
078600
078600
038C00
039800
03B000
03E000
03C000
01C000
018000
030000
060000
0C0000
180000
F80000
ENDCHAR
STARTCHAR z
ENCODING 122
SWIDTH 567 0
DWIDTH 14 0
BBX 14 13 1 0
BITMAP
1FFC
1878
3078
00F0
01E0
03C0
0780
0F00
1E00
3C00
7C18
7830
FFF0
ENDCHAR
STARTCHAR braceleft
ENCODING 123
SWIDTH 361 0
DWIDTH 9 0
BBX 9 22 2 -4
BITMAP
0780
0E00
0E00
1E00
1E00
1E00
1E00
1C00
1C00
1800
3000
E000
3800
3800
3800
7800
7000
F000
F000
E000
F000
3800
ENDCHAR
STARTCHAR bar
ENCODING 124
SWIDTH 253 0
DWIDTH 6 0
BBX 6 22 2 -4
BITMAP
0C
0C
0C
18
18
18
18
18
30
30
30
30
30
30
60
60
60
60
60
C0
C0
C0
ENDCHAR
STARTCHAR braceright
ENCODING 125
SWIDTH 361 0
DWIDTH 9 0
BBX 9 22 1 -4
BITMAP
0E00
0700
0380
0380
0780
0700
0F00
0E00
0E00
0600
0200
0780
0E00
1C00
1C00
3C00
3C00
3C00
3C00
3C00
3800
F000
ENDCHAR
STARTCHAR asciitilde
ENCODING 126
SWIDTH 636 0
DWIDTH 16 0
BBX 15 6 2 4
BITMAP
1C02
2702
4304
4184
81C8
8070
ENDCHAR
STARTCHAR space
ENCODING 160
SWIDTH 333 0
DWIDTH 8 0
BBX 1 1 0 0
BITMAP
00
ENDCHAR
STARTCHAR exclamdown
ENCODING 161
SWIDTH 265 0
DWIDTH 6 0
BBX 7 18 1 -5
BITMAP
1E
1E
1E
00
00
18
18
38
38
38
38
78
78
78
F0
F0
F0
F0
ENDCHAR
STARTCHAR cent
ENCODING 162
SWIDTH 636 0
DWIDTH 16 0
BBX 13 18 3 0
BITMAP
00C0
0080
03F8
0EB8
1C98
3910
7900
7100
F100
F300
F200
F200
F200
7A20
3FC0
0400
0400
0400
ENDCHAR
STARTCHAR sterling
ENCODING 163
SWIDTH 636 0
DWIDTH 16 0
BBX 15 18 3 0
BITMAP
007C
01C6
0386
0384
0780
0780
0700
0F00
3FE0
0F00
0E00
0E00
1E00
1C00
3000
FFF0
FFF0
FFE0
ENDCHAR
STARTCHAR currency
ENCODING 164
SWIDTH 636 0
DWIDTH 16 0
BBX 18 16 1 1
BITMAP
100040
080080
0C0100
07F200
031C00
060C00
0C0400
0C0600
0C0C00
0C0C00
0C1800
0E3800
1FF800
300C00
400600
800200
ENDCHAR
STARTCHAR yen
ENCODING 165
SWIDTH 636 0
DWIDTH 16 0
BBX 17 18 3 0
BITMAP
FE0F80
780200
3C0400
3C0800
1E1000
1E3000
0F6000
0F4000
078000
3FF000
070000
0F0000
7FE000
0F0000
0E0000
0E0000
1E0000
7F8000
ENDCHAR
STARTCHAR brokenbar
ENCODING 166
SWIDTH 253 0
DWIDTH 6 0
BBX 6 22 2 -4
BITMAP
0C
0C
0C
18
18
18
18
18
30
30
00
00
30
30
60
60
60
60
60
C0
C0
C0
ENDCHAR
STARTCHAR section
ENCODING 167
SWIDTH 636 0
DWIDTH 16 0
BBX 14 23 2 -5
BITMAP
03FC
071C
0E0C
1C08
1C00
1E00
1F80
0FE0
0FF0
19F0
3878
3838
3830
3E20
1FE0
0FE0
03E0
00F0
00F0
40E0
C0E0
E1C0
7F00
ENDCHAR
STARTCHAR dieresis
ENCODING 168
SWIDTH 599 0
DWIDTH 15 0
BBX 8 3 7 15
BITMAP
E7
E7
E7
ENDCHAR
STARTCHAR copyright
ENCODING 169
SWIDTH 853 0
DWIDTH 21 0
BBX 20 18 3 0
BITMAP
01F800
060600
180100
300080
60FC40
438660
C70420
860020
8E0020
8C0030
8C0020
CE0020
470860
61F040
300080
180100
060600
01F800
ENDCHAR
STARTCHAR ordfeminine
ENCODING 170
SWIDTH 468 0
DWIDTH 12 0
BBX 11 10 3 8
BITMAP
0FE0
19C0
31C0
71C0
63C0
E7C0
ED80
FB80
F3C0
63E0
ENDCHAR
STARTCHAR guillemotleft
ENCODING 171
SWIDTH 527 0
DWIDTH 13 0
BBX 13 11 2 1
BITMAP
0210
0738
1C70
3CE0
79C0
F780
7380
79C0
38C0
18E0
0C40
ENDCHAR
STARTCHAR logicalnot
ENCODING 172
SWIDTH 636 0
DWIDTH 16 0
BBX 15 6 2 4
BITMAP
FFFE
0006
0006
000C
000C
000C
ENDCHAR
STARTCHAR hyphen
ENCODING 173
SWIDTH 289 0
DWIDTH 7 0
BBX 6 1 2 8
BITMAP
FC
ENDCHAR
STARTCHAR registered
ENCODING 174
SWIDTH 636 0
DWIDTH 16 0
BBX 11 12 5 6
BITMAP
1F00
2080
4040
CFA0
89A0
8920
8E20
9A20
DB20
4040
2080
1F00
ENDCHAR
STARTCHAR macron
ENCODING 175
SWIDTH 599 0
DWIDTH 15 0
BBX 8 1 7 17
BITMAP
FF
ENDCHAR
STARTCHAR degree
ENCODING 176
SWIDTH 259 0
DWIDTH 6 0
BBX 4 4 5 14
BITMAP
60
90
90
60
ENDCHAR
STARTCHAR plusminus
ENCODING 177
SWIDTH 636 0
DWIDTH 16 0
BBX 16 15 1 0
BITMAP
0060
0040
00C0
00C0
00C0
3FFF
0080
0180
0180
0180
0180
0180
0000
0000
FFFC
ENDCHAR
STARTCHAR twosuperior
ENCODING 178
SWIDTH 381 0
DWIDTH 10 0
BBX 9 11 -14 7
BITMAP
1F00
3380
2180
0180
0300
0600
1800
2000
4000
FF00
FE00
ENDCHAR
STARTCHAR threesuperior
ENCODING 179
SWIDTH 381 0
DWIDTH 10 0
BBX 8 11 -15 7
BITMAP
3E
23
23
03
06
3C
06
07
86
8E
FC
ENDCHAR
STARTCHAR acute
ENCODING 180
SWIDTH 599 0
DWIDTH 15 0
BBX 7 4 9 14
BITMAP
1E
38
70
C0
ENDCHAR
STARTCHAR mu
ENCODING 181
SWIDTH 687 0
DWIDTH 17 0
BBX 15 17 2 -4
BITMAP
7E7E
1C1E
1C1E
1C1C
3C1C
3C3C
383C
387C
38F8
79B8
7F78
7F78
7C7E
7000
F000
F000
F000
ENDCHAR
STARTCHAR paragraph
ENCODING 182
SWIDTH 636 0
DWIDTH 16 0
BBX 11 22 4 -4
BITMAP
3FE0
7E60
FC40
FC40
FC40
FC40
FCC0
7C80
3880
0880
0880
0980
1900
1100
1100
1100
1300
3300
2200
2200
2200
2600
ENDCHAR
STARTCHAR periodcentered
ENCODING 183
SWIDTH 636 0
DWIDTH 16 0
BBX 4 3 7 6
BITMAP
70
F0
E0
ENDCHAR
STARTCHAR cedilla
ENCODING 184
SWIDTH 599 0
DWIDTH 15 0
BBX 5 5 4 -5
BITMAP
30
60
18
18
F0
ENDCHAR
STARTCHAR onesuperior
ENCODING 185
SWIDTH 381 0
DWIDTH 10 0
BBX 6 11 -15 7
BITMAP
3C
0C
1C
18
18
18
18
38
30
30
FC
ENDCHAR
STARTCHAR ordmasculine
ENCODING 186
SWIDTH 468 0
DWIDTH 12 0
BBX 11 10 3 8
BITMAP
07C0
18E0
30E0
70E0
60E0
E0E0
E1C0
E180
F300
3C00
ENDCHAR
STARTCHAR guillemotright
ENCODING 187
SWIDTH 527 0
DWIDTH 13 0
BBX 13 11 1 1
BITMAP
1180
38C0
18E0
1C70
0E70
0F78
1CF0
38E0
7180
E700
4200
ENDCHAR
STARTCHAR onequarter
ENCODING 188
SWIDTH 818 0
DWIDTH 20 0
BBX 20 18 4 0
BITMAP
3C0070
0C00C0
1C0180
180300
180600
180C00
181800
3830C0
3071C0
30E380
FCCD80
019980
033180
066180
0C7FC0
180300
300300
E00F80
ENDCHAR
STARTCHAR onehalf
ENCODING 189
SWIDTH 818 0
DWIDTH 20 0
BBX 20 18 4 0
BITMAP
3C0070
0C00C0
1C0180
180300
180600
180C00
181800
3837C0
307CE0
30E860
FCC060
0180C0
030180
060600
0C0800
181000
303FC0
E03F80
ENDCHAR
STARTCHAR threequarters
ENCODING 190
SWIDTH 818 0
DWIDTH 20 0
BBX 21 18 5 0
BITMAP
3E0038
230060
2300C0
030180
060300
3C0600
060C00
071860
8638E0
8E71C0
FC66C0
00CCC0
0198C0
0330C0
063FE0
0C0180
180180
7007C0
ENDCHAR
STARTCHAR questiondown
ENCODING 191
SWIDTH 493 0
DWIDTH 12 0
BBX 11 18 1 -5
BITMAP
01E0
01E0
01E0
0000
0000
03C0
0380
0380
0700
0C00
1800
3000
7000
F000
F060
F040
78C0
3F80
ENDCHAR
STARTCHAR Agrave
ENCODING 192
SWIDTH 765 0
DWIDTH 19 0
BBX 19 23 0 0
BITMAP
003800
001C00
000C00
000600
000000
000C00
001C00
001C00
003E00
007E00
005E00
00CE00
018E00
010F00
030F00
020F00
060700
0FFF80
080780
180780
100380
3003C0
F80FE0
ENDCHAR
STARTCHAR Aacute
ENCODING 193
SWIDTH 765 0
DWIDTH 19 0
BBX 19 23 0 0
BITMAP
0003C0
000700
000E00
001800
000000
000C00
001C00
001C00
003E00
007E00
005E00
00CE00
018E00
010F00
030F00
020F00
060700
0FFF80
080780
180780
100380
3003C0
F80FE0
ENDCHAR
STARTCHAR Acircumflex
ENCODING 194
SWIDTH 765 0
DWIDTH 19 0
BBX 19 23 0 0
BITMAP
000E00
001F00
003B00
006180
000000
000C00
001C00
001C00
003E00
007E00
005E00
00CE00
018E00
010F00
030F00
020F00
060700
0FFF80
080780
180780
100380
3003C0
F80FE0
ENDCHAR
STARTCHAR Atilde
ENCODING 195
SWIDTH 765 0
DWIDTH 19 0
BBX 19 22 0 0
BITMAP
001C40
003F80
004700
000000
000C00
001C00
001C00
003E00
007E00
005E00
00CE00
018E00
010F00
030F00
020F00
060700
0FFF80
080780
180780
100380
3003C0
F80FE0
ENDCHAR
STARTCHAR Adieresis
ENCODING 196
SWIDTH 765 0
DWIDTH 19 0
BBX 19 22 0 0
BITMAP
0039C0
0039C0
0039C0
000000
000C00
001C00
001C00
003E00
007E00
005E00
00CE00
018E00
010F00
030F00
020F00
060700
0FFF80
080780
180780
100380
3003C0
F80FE0
ENDCHAR
STARTCHAR Aring
ENCODING 197
SWIDTH 765 0
DWIDTH 19 0
BBX 19 23 0 0
BITMAP
000600
000900
000900
000600
000000
000C00
001C00
001C00
003E00
007E00
005E00
00CE00
018E00
010F00
030F00
020F00
060700
0FFF80
080780
180780
100380
3003C0
F80FE0
ENDCHAR
STARTCHAR AE
ENCODING 198
SWIDTH 958 0
DWIDTH 24 0
BBX 26 18 0 0
BITMAP
0003FFC0
0007C0C0
0007C080
000BC000
001BC000
00338000
00278000
00478600
00C7FE00
01878600
01070600
02070000
07FF0000
0C0F0000
180F0000
100E0300
301E0600
F87FFE00
ENDCHAR
STARTCHAR Ccedilla
ENCODING 199
SWIDTH 740 0
DWIDTH 18 0
BBX 17 23 3 -5
BITMAP
00FF00
038780
0E0180
1E0100
1C0300
380000
780000
780000
F00000
F00000
F00000
F00000
F00000
F00000
780000
780000
3E0C00
0FF000
060000
0C0000
030000
030000
1E0000
ENDCHAR
STARTCHAR Egrave
ENCODING 200
SWIDTH 630 0
DWIDTH 16 0
BBX 17 23 1 0
BITMAP
00E000
007000
003000
001800
000000
1FFF80
078180
078100
078000
078000
0F0000
0F0000
0F0C00
0FF800
0E0800
1E0000
1E0000
1E0000
1E0000
1C0000
3C0600
3C0C00
FFFC00
ENDCHAR
STARTCHAR Eacute
ENCODING 201
SWIDTH 630 0
DWIDTH 16 0
BBX 17 23 1 0
BITMAP
000F00
001C00
003800
006000
000000
1FFF80
078180
078100
078000
078000
0F0000
0F0000
0F0C00
0FF800
0E0800
1E0000
1E0000
1E0000
1E0000
1C0000
3C0600
3C0C00
FFFC00
ENDCHAR
STARTCHAR Ecircumflex
ENCODING 202
SWIDTH 630 0
DWIDTH 16 0
BBX 17 23 1 0
BITMAP
003800
007C00
00EC00
018600
000000
1FFF80
078180
078100
078000
078000
0F0000
0F0000
0F0C00
0FF800
0E0800
1E0000
1E0000
1E0000
1E0000
1C0000
3C0600
3C0C00
FFFC00
ENDCHAR
STARTCHAR Edieresis
ENCODING 203
SWIDTH 630 0
DWIDTH 16 0
BBX 17 22 1 0
BITMAP
01CE00
01CE00
01CE00
000000
1FFF80
078180
078100
078000
078000
0F0000
0F0000
0F0C00
0FF800
0E0800
1E0000
1E0000
1E0000
1E0000
1C0000
3C0600
3C0C00
FFFC00
ENDCHAR
STARTCHAR Igrave
ENCODING 204
SWIDTH 372 0
DWIDTH 9 0
BBX 11 23 1 0
BITMAP
0700
0380
0180
00C0
0000
1FE0
0780
0780
0700
0F00
0F00
0F00
0F00
0E00
0E00
1E00
1E00
1E00
1C00
1C00
3C00
3C00
FF00
ENDCHAR
STARTCHAR Iacute
ENCODING 205
SWIDTH 372 0
DWIDTH 9 0
BBX 12 23 1 0
BITMAP
00F0
01C0
0380
0600
0000
1FE0
0780
0780
0700
0F00
0F00
0F00
0F00
0E00
0E00
1E00
1E00
1E00
1C00
1C00
3C00
3C00
FF00
ENDCHAR
STARTCHAR Icircumflex
ENCODING 206
SWIDTH 372 0
DWIDTH 9 0
BBX 11 23 1 0
BITMAP
0380
07C0
0EC0
1860
0000
1FE0
0780
0780
0700
0F00
0F00
0F00
0F00
0E00
0E00
1E00
1E00
1E00
1C00
1C00
3C00
3C00
FF00
ENDCHAR
STARTCHAR Idieresis
ENCODING 207
SWIDTH 372 0
DWIDTH 9 0
BBX 12 22 1 0
BITMAP
0E70
0E70
0E70
0000
1FE0
0780
0780
0700
0F00
0F00
0F00
0F00
0E00
0E00
1E00
1E00
1E00
1C00
1C00
3C00
3C00
FF00
ENDCHAR
STARTCHAR Eth
ENCODING 208
SWIDTH 822 0
DWIDTH 21 0
BBX 20 18 1 0
BITMAP
1FFF00
0787C0
0781E0
0700E0
0F00F0
0F00F0
0F00F0
0F00F0
7FF0F0
1E00F0
1E00E0
1E01E0
1E01C0
1E03C0
1C0380
3C0700
3C1E00
FFF800
ENDCHAR
STARTCHAR Ntilde
ENCODING 209
SWIDTH 797 0
DWIDTH 20 0
BBX 22 22 1 0
BITMAP
001C40
003F80
004700
000000
1F80FC
078030
07C030
07C060
07E060
0DE060
0CF060
0CF060
0C78C0
0C78C0
183CC0
181CC0
181E80
180F80
180F80
300780
300780
FC0300
ENDCHAR
STARTCHAR Ograve
ENCODING 210
SWIDTH 831 0
DWIDTH 21 0
BBX 19 23 3 0
BITMAP
007000
003800
001800
000C00
000000
00FE00
038780
0703C0
1E01C0
1C01E0
3801E0
7801E0
7801E0
F001E0
F001E0
F003C0
F003C0
F00380
F00700
700E00
781C00
3C3800
0FC000
ENDCHAR
STARTCHAR Oacute
ENCODING 211
SWIDTH 831 0
DWIDTH 21 0
BBX 19 23 3 0
BITMAP
000F00
001C00
003800
006000
000000
00FE00
038780
0703C0
1E01C0
1C01E0
3801E0
7801E0
7801E0
F001E0
F001E0
F003C0
F003C0
F00380
F00700
700E00
781C00
3C3800
0FC000
ENDCHAR
STARTCHAR Ocircumflex
ENCODING 212
SWIDTH 831 0
DWIDTH 21 0
BBX 19 23 3 0
BITMAP
003800
007C00
00EC00
018600
000000
00FE00
038780
0703C0
1E01C0
1C01E0
3801E0
7801E0
7801E0
F001E0
F001E0
F003C0
F003C0
F00380
F00700
700E00
781C00
3C3800
0FC000
ENDCHAR
STARTCHAR Otilde
ENCODING 213
SWIDTH 831 0
DWIDTH 21 0
BBX 19 22 3 0
BITMAP
007100
00FE00
011C00
000000
00FE00
038780
0703C0
1E01C0
1C01E0
3801E0
7801E0
7801E0
F001E0
F001E0
F003C0
F003C0
F00380
F00700
700E00
781C00
3C3800
0FC000
ENDCHAR
STARTCHAR Odieresis
ENCODING 214
SWIDTH 831 0
DWIDTH 21 0
BBX 19 22 3 0
BITMAP
00E700
00E700
00E700
000000
00FE00
038780
0703C0
1E01C0
1C01E0
3801E0
7801E0
7801E0
F001E0
F001E0
F003C0
F003C0
F00380
F00700
700E00
781C00
3C3800
0FC000
ENDCHAR
STARTCHAR multiply
ENCODING 215
SWIDTH 636 0
DWIDTH 16 0
BBX 17 15 1 0
BITMAP
300100
180380
1C0700
0E0C00
061800
033000
03E000
01C000
03E000
066000
0C3000
183800
701C00
E00C00
400600
ENDCHAR
STARTCHAR Oslash
ENCODING 216
SWIDTH 831 0
DWIDTH 21 0
BBX 22 18 1 0
BITMAP
003F8C
00C1F0
0380E0
0700F0
0E01F0
1E0378
1C0678
3C0C78
3C10F0
3C20F0
3C40F0
3C80E0
3D01E0
3E01C0
3C0380
1C0700
3E0C00
E7F000
ENDCHAR
STARTCHAR Ugrave
ENCODING 217
SWIDTH 775 0
DWIDTH 19 0
BBX 19 23 4 0
BITMAP
01C000
00E000
006000
003000
000000
FF07E0
3C0380
3C0300
380300
380200
780200
780200
780200
700600
F00400
F00400
F00400
F00400
F00800
F00800
701000
382000
1FC000
ENDCHAR
STARTCHAR Uacute
ENCODING 218
SWIDTH 775 0
DWIDTH 19 0
BBX 19 23 4 0
BITMAP
001E00
003800
007000
00C000
000000
FF07E0
3C0380
3C0300
380300
380200
780200
780200
780200
700600
F00400
F00400
F00400
F00400
F00800
F00800
701000
382000
1FC000
ENDCHAR
STARTCHAR Ucircumflex
ENCODING 219
SWIDTH 775 0
DWIDTH 19 0
BBX 19 23 4 0
BITMAP
007000
00F800
01D800
030C00
000000
FF07E0
3C0380
3C0300
380300
380200
780200
780200
780200
700600
F00400
F00400
F00400
F00400
F00800
F00800
701000
382000
1FC000
ENDCHAR
STARTCHAR Udieresis
ENCODING 220
SWIDTH 775 0
DWIDTH 19 0
BBX 19 22 4 0
BITMAP
039C00
039C00
039C00
000000
FF07E0
3C0380
3C0300
380300
380200
780200
780200
780200
700600
F00400
F00400
F00400
F00400
F00800
F00800
701000
382000
1FC000
ENDCHAR
STARTCHAR Yacute
ENCODING 221
SWIDTH 669 0
DWIDTH 17 0
BBX 17 23 3 0
BITMAP
003C00
007000
00E000
018000
000000
FE0F80
7C0600
3C0400
3C0C00
1C1800
1E3000
1E2000
0F6000
0FC000
078000
070000
0F0000
0F0000
0F0000
0F0000
0E0000
1E0000
7F8000
ENDCHAR
STARTCHAR Thorn
ENCODING 222
SWIDTH 628 0
DWIDTH 16 0
BBX 16 18 1 0
BITMAP
1FE0
0780
0780
0700
07FC
0F1E
0F0F
0F0F
0E0F
0E0F
1E0E
1E1C
1E38
1FE0
1C00
3C00
3C00
FF00
ENDCHAR
STARTCHAR germandbls
ENCODING 223
SWIDTH 656 0
DWIDTH 16 0
BBX 15 25 1 -5
BITMAP
01F8
039C
071C
071C
0F1C
0E18
0E30
1E60
1E40
1EE0
1CF0
1CF8
3C7C
3C3C
3C1E
380E
380E
798E
799C
79F8
7000
7000
F000
F000
F000
ENDCHAR
STARTCHAR agrave
ENCODING 224
SWIDTH 634 0
DWIDTH 16 0
BBX 15 18 2 0
BITMAP
01C0
00E0
0060
0030
0000
01FE
063E
0C1C
181C
383C
703C
707C
F0B8
F1F8
F378
FE78
FC78
787C
ENDCHAR
STARTCHAR aacute
ENCODING 225
SWIDTH 634 0
DWIDTH 16 0
BBX 15 18 2 0
BITMAP
001E
0038
0070
00C0
0000
01FE
063E
0C1C
181C
383C
703C
707C
F0B8
F1F8
F378
FE78
FC78
787C
ENDCHAR
STARTCHAR acircumflex
ENCODING 226
SWIDTH 634 0
DWIDTH 16 0
BBX 15 18 2 0
BITMAP
0070
00F8
01D8
030C
0000
01FE
063E
0C1C
181C
383C
703C
707C
F0B8
F1F8
F378
FE78
FC78
787C
ENDCHAR
STARTCHAR atilde
ENCODING 227
SWIDTH 634 0
DWIDTH 16 0
BBX 15 17 2 0
BITMAP
00E2
01FC
0238
0000
01FE
063E
0C1C
181C
383C
703C
707C
F0B8
F1F8
F378
FE78
FC78
787C
ENDCHAR
STARTCHAR adieresis
ENCODING 228
SWIDTH 634 0
DWIDTH 16 0
BBX 15 17 2 0
BITMAP
039C
039C
039C
0000
01FE
063E
0C1C
181C
383C
703C
707C
F0B8
F1F8
F378
FE78
FC78
787C
ENDCHAR
STARTCHAR aring
ENCODING 229
SWIDTH 634 0
DWIDTH 16 0
BBX 15 18 2 0
BITMAP
0030
0048
0048
0030
0000
01FE
063E
0C1C
181C
383C
703C
707C
F0B8
F1F8
F378
FE78
FC78
787C
ENDCHAR
STARTCHAR ae
ENCODING 230
SWIDTH 905 0
DWIDTH 23 0
BBX 21 13 2 0
BITMAP
03FDF0
043E78
1C3C38
183C38
383878
703870
7079E0
F0FF80
F1F800
F37800
FE3808
FC3C38
780FC0
ENDCHAR
STARTCHAR ccedilla
ENCODING 231
SWIDTH 524 0
DWIDTH 13 0
BBX 13 18 2 -5
BITMAP
03F0
0E38
1C30
3830
7800
7000
F000
F000
F000
F000
F000
7820
3FC0
1800
3000
0C00
0C00
7800
ENDCHAR
STARTCHAR egrave
ENCODING 232
SWIDTH 548 0
DWIDTH 14 0
BBX 12 18 2 0
BITMAP
0380
01C0
00C0
0060
0000
03E0
0CF0
1870
3870
7070
70E0
F3C0
FF00
F000
F000
F010
7870
3F80
ENDCHAR
STARTCHAR eacute
ENCODING 233
SWIDTH 548 0
DWIDTH 14 0
BBX 13 18 2 0
BITMAP
0078
00E0
01C0
0300
0000
03E0
0CF0
1870
3870
7070
70E0
F3C0
FF00
F000
F000
F010
7870
3F80
ENDCHAR
STARTCHAR ecircumflex
ENCODING 234
SWIDTH 548 0
DWIDTH 14 0
BBX 13 18 2 0
BITMAP
00E0
01F0
03B0
0618
0000
03E0
0CF0
1870
3870
7070
70E0
F3C0
FF00
F000
F000
F010
7870
3F80
ENDCHAR
STARTCHAR edieresis
ENCODING 235
SWIDTH 548 0
DWIDTH 14 0
BBX 13 17 2 0
BITMAP
0738
0738
0738
0000
03E0
0CF0
1870
3870
7070
70E0
F3C0
FF00
F000
F000
F010
7870
3F80
ENDCHAR
STARTCHAR igrave
ENCODING 236
SWIDTH 319 0
DWIDTH 8 0
BBX 7 18 2 0
BITMAP
38
1C
0C
06
00
FC
3C
3C
38
38
78
78
78
70
70
F0
F0
FC
ENDCHAR
STARTCHAR iacute
ENCODING 237
SWIDTH 319 0
DWIDTH 8 0
BBX 10 18 2 0
BITMAP
03C0
0700
0E00
1800
0000
FC00
3C00
3C00
3800
3800
7800
7800
7800
7000
7000
F000
F000
FC00
ENDCHAR
STARTCHAR icircumflex
ENCODING 238
SWIDTH 319 0
DWIDTH 8 0
BBX 9 18 2 0
BITMAP
0E00
1F00
3B00
6180
0000
FC00
3C00
3C00
3800
3800
7800
7800
7800
7000
7000
F000
F000
FC00
ENDCHAR
STARTCHAR idieresis
ENCODING 239
SWIDTH 319 0
DWIDTH 8 0
BBX 9 17 2 0
BITMAP
7380
7380
7380
0000
FC00
3C00
3C00
3800
3800
7800
7800
7800
7000
7000
F000
F000
FC00
ENDCHAR
STARTCHAR eth
ENCODING 240
SWIDTH 617 0
DWIDTH 15 0
BBX 14 20 2 0
BITMAP
0010
0038
1FC0
03E0
01F0
0678
0078
03F8
0C7C
183C
383C
703C
7038
F038
F038
F070
F070
F060
7880
3F00
ENDCHAR
STARTCHAR ntilde
ENCODING 241
SWIDTH 656 0
DWIDTH 16 0
BBX 14 17 2 0
BITMAP
01C4
03F8
0470
0000
FC38
3CFC
3CFC
393C
3A3C
3C38
7C38
7878
7878
7078
7070
F070
F0FC
ENDCHAR
STARTCHAR ograve
ENCODING 242
SWIDTH 599 0
DWIDTH 15 0
BBX 14 18 2 0
BITMAP
0380
01C0
00C0
0060
0000
03E0
0E38
1C38
383C
783C
703C
F03C
F038
F078
F070
F0E0
79C0
3F00
ENDCHAR
STARTCHAR oacute
ENCODING 243
SWIDTH 599 0
DWIDTH 15 0
BBX 14 18 2 0
BITMAP
003C
0070
00E0
0180
0000
03E0
0E38
1C38
383C
783C
703C
F03C
F038
F078
F070
F0E0
79C0
3F00
ENDCHAR
STARTCHAR ocircumflex
ENCODING 244
SWIDTH 599 0
DWIDTH 15 0
BBX 14 18 2 0
BITMAP
00E0
01F0
03B0
0618
0000
03E0
0E38
1C38
383C
783C
703C
F03C
F038
F078
F070
F0E0
79C0
3F00
ENDCHAR
STARTCHAR otilde
ENCODING 245
SWIDTH 599 0
DWIDTH 15 0
BBX 14 17 2 0
BITMAP
01C4
03F8
0470
0000
03E0
0E38
1C38
383C
783C
703C
F03C
F038
F078
F070
F0E0
79C0
3F00
ENDCHAR
STARTCHAR odieresis
ENCODING 246
SWIDTH 599 0
DWIDTH 15 0
BBX 14 17 2 0
BITMAP
0738
0738
0738
0000
03E0
0E38
1C38
383C
783C
703C
F03C
F038
F078
F070
F0E0
79C0
3F00
ENDCHAR
STARTCHAR divide
ENCODING 247
SWIDTH 636 0
DWIDTH 16 0
BBX 15 13 2 0
BITMAP
01C0
01C0
01C0
0000
0000
0000
FFFE
0000
0000
0000
0700
0700
0700
ENDCHAR
STARTCHAR oslash
ENCODING 248
SWIDTH 599 0
DWIDTH 15 0
BBX 16 13 1 0
BITMAP
01FB
073E
0E1E
1C3E
3C7E
38DE
799E
7B1C
7E1C
7C38
7870
3CE0
DF80
ENDCHAR
STARTCHAR ugrave
ENCODING 249
SWIDTH 655 0
DWIDTH 16 0
BBX 14 18 3 0
BITMAP
0380
01C0
00C0
0060
0000
FCFC
383C
3838
7838
7878
7878
70F8
70F0
F170
F370
FEF0
FCF0
70FC
ENDCHAR
STARTCHAR uacute
ENCODING 250
SWIDTH 655 0
DWIDTH 16 0
BBX 14 18 3 0
BITMAP
003C
0070
00E0
0180
0000
FCFC
383C
3838
7838
7878
7878
70F8
70F0
F170
F370
FEF0
FCF0
70FC
ENDCHAR
STARTCHAR ucircumflex
ENCODING 251
SWIDTH 655 0
DWIDTH 16 0
BBX 14 18 3 0
BITMAP
00E0
01F0
03B0
0618
0000
FCFC
383C
3838
7838
7878
7878
70F8
70F0
F170
F370
FEF0
FCF0
70FC
ENDCHAR
STARTCHAR udieresis
ENCODING 252
SWIDTH 655 0
DWIDTH 16 0
BBX 14 17 3 0
BITMAP
0738
0738
0738
0000
FCFC
383C
3838
7838
7878
7878
70F8
70F0
F170
F370
FEF0
FCF0
70FC
ENDCHAR
STARTCHAR yacute
ENCODING 253
SWIDTH 586 0
DWIDTH 15 0
BBX 17 23 0 -5
BITMAP
000F00
001C00
003800
006000
000000
3F0780
0F0380
0F0380
078300
078600
078600
038C00
039800
03B000
03E000
03C000
01C000
018000
030000
060000
0C0000
180000
F80000
ENDCHAR
STARTCHAR thorn
ENCODING 254
SWIDTH 639 0
DWIDTH 16 0
BBX 16 22 1 -5
BITMAP
3F00
1F00
0F00
0E00
0E1E
1E3F
1E7F
1ECF
1D8F
1D0F
3E0E
3C0E
3C1C
3818
3830
7C60
7F80
7800
7000
7000
F000
F000
ENDCHAR
STARTCHAR ydieresis
ENCODING 255
SWIDTH 586 0
DWIDTH 15 0
BBX 17 22 0 -5
BITMAP
00E700
00E700
00E700
000000
3F0780
0F0380
0F0380
078300
078600
078600
038C00
039800
03B000
03E000
03C000
01C000
018000
030000
060000
0C0000
180000
F80000
ENDCHAR
STARTCHAR Amacron
ENCODING 256
SWIDTH 765 0
DWIDTH 19 0
BBX 19 20 0 0
BITMAP
01FE00
000000
000C00
001C00
001C00
003E00
007E00
005E00
00CE00
018E00
010F00
030F00
020F00
060700
0FFF80
080780
180780
100380
3003C0
F80FE0
ENDCHAR
STARTCHAR amacron
ENCODING 257
SWIDTH 634 0
DWIDTH 16 0
BBX 15 15 2 0
BITMAP
07F8
0000
01FE
063E
0C1C
181C
383C
703C
707C
F0B8
F1F8
F378
FE78
FC78
787C
ENDCHAR
STARTCHAR Abreve
ENCODING 258
SWIDTH 765 0
DWIDTH 19 0
BBX 19 23 0 0
BITMAP
010300
01C600
00FC00
007800
000000
000C00
001C00
001C00
003E00
007E00
005E00
00CE00
018E00
010F00
030F00
020F00
060700
0FFF80
080780
180780
100380
3003C0
F80FE0
ENDCHAR
STARTCHAR abreve
ENCODING 259
SWIDTH 634 0
DWIDTH 16 0
BBX 15 18 2 0
BITMAP
040C
0718
03F0
01E0
0000
01FE
063E
0C1C
181C
383C
703C
707C
F0B8
F1F8
F378
FE78
FC78
787C
ENDCHAR
STARTCHAR Aogonek
ENCODING 260
SWIDTH 765 0
DWIDTH 19 0
BBX 19 22 0 -4
BITMAP
000C00
001C00
001C00
003E00
007E00
005E00
00CE00
018E00
010F00
030F00
020F00
060700
0FFF80
080780
180780
100380
3003C0
F80FE0
003000
006000
006800
003800
ENDCHAR
STARTCHAR aogonek
ENCODING 261
SWIDTH 634 0
DWIDTH 16 0
BBX 15 17 2 -4
BITMAP
01FE
063E
0C1C
181C
383C
703C
707C
F0B8
F1F8
F378
FE78
FC78
787C
0300
0600
0680
0380
ENDCHAR
STARTCHAR Cacute
ENCODING 262
SWIDTH 740 0
DWIDTH 18 0
BBX 17 23 3 0
BITMAP
003C00
007000
00E000
018000
000000
00FF00
038780
0E0180
1E0100
1C0300
380000
780000
780000
F00000
F00000
F00000
F00000
F00000
F00000
780000
780000
3E0C00
0FF000
ENDCHAR
STARTCHAR cacute
ENCODING 263
SWIDTH 524 0
DWIDTH 13 0
BBX 13 18 2 0
BITMAP
00F0
01C0
0380
0600
0000
03F0
0E38
1C30
3830
7800
7000
F000
F000
F000
F000
F000
7820
3FC0
ENDCHAR
STARTCHAR Ccircumflex
ENCODING 264
SWIDTH 740 0
DWIDTH 18 0
BBX 17 23 3 0
BITMAP
007000
00F800
01D800
030C00
000000
00FF00
038780
0E0180
1E0100
1C0300
380000
780000
780000
F00000
F00000
F00000
F00000
F00000
F00000
780000
780000
3E0C00
0FF000
ENDCHAR
STARTCHAR ccircumflex
ENCODING 265
SWIDTH 524 0
DWIDTH 13 0
BBX 13 18 2 0
BITMAP
0380
07C0
0EC0
1860
0000
03F0
0E38
1C30
3830
7800
7000
F000
F000
F000
F000
F000
7820
3FC0
ENDCHAR
STARTCHAR Cdotaccent
ENCODING 266
SWIDTH 740 0
DWIDTH 18 0
BBX 17 22 3 0
BITMAP
007000
00F000
00E000
000000
00FF00
038780
0E0180
1E0100
1C0300
380000
780000
780000
F00000
F00000
F00000
F00000
F00000
F00000
780000
780000
3E0C00
0FF000
ENDCHAR
STARTCHAR cdotaccent
ENCODING 267
SWIDTH 524 0
DWIDTH 13 0
BBX 13 17 2 0
BITMAP
01C0
03C0
0380
0000
03F0
0E38
1C30
3830
7800
7000
F000
F000
F000
F000
F000
7820
3FC0
ENDCHAR
STARTCHAR Ccaron
ENCODING 268
SWIDTH 740 0
DWIDTH 18 0
BBX 17 23 3 0
BITMAP
030C00
019800
01F000
00E000
000000
00FF00
038780
0E0180
1E0100
1C0300
380000
780000
780000
F00000
F00000
F00000
F00000
F00000
F00000
780000
780000
3E0C00
0FF000
ENDCHAR
STARTCHAR ccaron
ENCODING 269
SWIDTH 524 0
DWIDTH 13 0
BBX 13 18 2 0
BITMAP
0C30
0660
07C0
0380
0000
03F0
0E38
1C30
3830
7800
7000
F000
F000
F000
F000
F000
7820
3FC0
ENDCHAR
STARTCHAR Dcaron
ENCODING 270
SWIDTH 822 0
DWIDTH 21 0
BBX 20 23 1 0
BITMAP
018600
00CC00
00F800
007000
000000
1FFF00
0787C0
0781E0
0700E0
0700F0
0F00F0
0F00F0
0F00F0
0E00F0
0E00F0
1E00E0
1E01E0
1E01C0
1E03C0
1C0380
3C0700
3C1E00
FFF800
ENDCHAR
STARTCHAR dcaron
ENCODING 271
SWIDTH 867 0
DWIDTH 22 0
BBX 22 18 2 0
BITMAP
003F3C
000F7C
000E78
000E38
001E38
01FE30
063EE0
0C1C00
183C00
383C00
703C00
707800
F0B800
F1F800
F37800
FE7800
FC7800
78FC00
ENDCHAR
STARTCHAR Dcroat
ENCODING 272
SWIDTH 822 0
DWIDTH 21 0
BBX 20 18 1 0
BITMAP
1FFF00
0787C0
0781E0
0700E0
0F00F0
0F00F0
0F00F0
0F00F0
7FF0F0
1E00F0
1E00E0
1E01E0
1E01C0
1E03C0
1C0380
3C0700
3C1E00
FFF800
ENDCHAR
STARTCHAR dcroat
ENCODING 273
SWIDTH 634 0
DWIDTH 16 0
BBX 18 18 2 0
BITMAP
003F00
000F00
000E00
01FFC0
001E00
01FE00
063E00
0C1C00
183C00
383C00
703C00
707800
F0B800
F1F800
F37800
FE7800
FC7800
78FC00
ENDCHAR
STARTCHAR Emacron
ENCODING 274
SWIDTH 630 0
DWIDTH 16 0
BBX 17 20 1 0
BITMAP
07F800
000000
1FFF80
078180
078100
078000
078000
0F0000
0F0000
0F0C00
0FF800
0E0800
1E0000
1E0000
1E0000
1E0000
1C0000
3C0600
3C0C00
FFFC00
ENDCHAR
STARTCHAR emacron
ENCODING 275
SWIDTH 548 0
DWIDTH 14 0
BBX 12 15 2 0
BITMAP
1FE0
0000
03E0
0CF0
1870
3870
7070
70E0
F3C0
FF00
F000
F000
F010
7870
3F80
ENDCHAR
STARTCHAR Ebreve
ENCODING 276
SWIDTH 630 0
DWIDTH 16 0
BBX 17 23 1 0
BITMAP
040C00
071800
03F000
01E000
000000
1FFF80
078180
078100
078000
078000
0F0000
0F0000
0F0C00
0FF800
0E0800
1E0000
1E0000
1E0000
1E0000
1C0000
3C0600
3C0C00
FFFC00
ENDCHAR
STARTCHAR ebreve
ENCODING 277
SWIDTH 548 0
DWIDTH 14 0
BBX 12 18 2 0
BITMAP
1030
1C60
0FC0
0780
0000
03E0
0CF0
1870
3870
7070
70E0
F3C0
FF00
F000
F000
F010
7870
3F80
ENDCHAR
STARTCHAR Edotaccent
ENCODING 278
SWIDTH 630 0
DWIDTH 16 0
BBX 17 22 1 0
BITMAP
00E000
01E000
01C000
000000
1FFF80
078180
078100
078000
078000
0F0000
0F0000
0F0C00
0FF800
0E0800
1E0000
1E0000
1E0000
1E0000
1C0000
3C0600
3C0C00
FFFC00
ENDCHAR
STARTCHAR edotaccent
ENCODING 279
SWIDTH 548 0
DWIDTH 14 0
BBX 12 17 2 0
BITMAP
01C0
03C0
0380
0000
03E0
0CF0
1870
3870
7070
70E0
F3C0
FF00
F000
F000
F010
7870
3F80
ENDCHAR
STARTCHAR Eogonek
ENCODING 280
SWIDTH 630 0
DWIDTH 16 0
BBX 17 22 1 -4
BITMAP
1FFF80
078180
078100
078000
078000
0F0000
0F0000
0F0C00
0FF800
0E0800
1E0000
1E0000
1E0000
1E0000
1C0000
3C0600
3C0C00
FFFC00
018000
030000
034000
01C000
ENDCHAR
STARTCHAR eogonek
ENCODING 281
SWIDTH 548 0
DWIDTH 14 0
BBX 12 17 2 -4
BITMAP
03E0
0CF0
1870
3870
7070
70E0
F3C0
FF00
F000
F000
F010
7870
3F80
0600
0C00
0D00
0700
ENDCHAR
STARTCHAR Ecaron
ENCODING 282
SWIDTH 630 0
DWIDTH 16 0
BBX 17 23 1 0
BITMAP
061800
033000
03E000
01C000
000000
1FFF80
078180
078100
078000
078000
0F0000
0F0000
0F0C00
0FF800
0E0800
1E0000
1E0000
1E0000
1E0000
1C0000
3C0600
3C0C00
FFFC00
ENDCHAR
STARTCHAR ecaron
ENCODING 283
SWIDTH 548 0
DWIDTH 14 0
BBX 12 18 2 0
BITMAP
0C30
0660
07C0
0380
0000
03E0
0CF0
1870
3870
7070
70E0
F3C0
FF00
F000
F000
F010
7870
3F80
ENDCHAR
STARTCHAR Gcircumflex
ENCODING 284
SWIDTH 780 0
DWIDTH 19 0
BBX 17 23 3 0
BITMAP
007000
00F800
01D800
030C00
000000
00FF80
038380
0F0180
1E0300
1C0000
380000
780000
780000
F00000
F00000
F03F80
F01E00
F01E00
F01C00
781C00
781C00
3C3C00
0FF000
ENDCHAR
STARTCHAR gcircumflex
ENCODING 285
SWIDTH 628 0
DWIDTH 16 0
BBX 15 23 1 -5
BITMAP
00E0
01F0
03B0
0618
0000
01FE
061E
0C1E
1C1C
181C
383C
787C
787C
78B8
79B8
7F78
7E78
3870
0070
80F0
C0E0
71C0
7F00
ENDCHAR
STARTCHAR Gbreve
ENCODING 286
SWIDTH 780 0
DWIDTH 19 0
BBX 17 23 3 0
BITMAP
040C00
071800
03F000
01E000
000000
00FF80
038380
0F0180
1E0300
1C0000
380000
780000
780000
F00000
F00000
F03F80
F01E00
F01E00
F01C00
781C00
781C00
3C3C00
0FF000
ENDCHAR
STARTCHAR gbreve
ENCODING 287
SWIDTH 628 0
DWIDTH 16 0
BBX 15 23 1 -5
BITMAP
040C
0718
03F0
01E0
0000
01FE
061E
0C1E
1C1C
181C
383C
787C
787C
78B8
79B8
7F78
7E78
3870
0070
80F0
C0E0
71C0
7F00
ENDCHAR
STARTCHAR Gdotaccent
ENCODING 288
SWIDTH 780 0
DWIDTH 19 0
BBX 17 22 3 0
BITMAP
007000
00F000
00E000
000000
00FF80
038380
0F0180
1E0300
1C0000
380000
780000
780000
F00000
F00000
F03F80
F01E00
F01E00
F01C00
781C00
781C00
3C3C00
0FF000
ENDCHAR
STARTCHAR gdotaccent
ENCODING 289
SWIDTH 628 0
DWIDTH 16 0
BBX 15 22 1 -5
BITMAP
0070
00F0
00E0
0000
01FE
061E
0C1E
1C1C
181C
383C
787C
787C
78B8
79B8
7F78
7E78
3870
0070
80F0
C0E0
71C0
7F00
ENDCHAR
STARTCHAR Gcommaaccent
ENCODING 290
SWIDTH 780 0
DWIDTH 19 0
BBX 17 28 3 -10
BITMAP
00FF80
038380
0F0180
1E0300
1C0000
380000
780000
780000
F00000
F00000
F03F80
F01E00
F01E00
F01C00
781C00
781C00
3C3C00
0FF000
000000
03C000
07C000
078000
078000
038000
038000
030000
0F0000
0C0000
ENDCHAR
STARTCHAR gcommaaccent
ENCODING 291
SWIDTH 628 0
DWIDTH 16 0
BBX 15 26 1 -5
BITMAP
0038
0060
00E0
00E0
00F0
01F0
01E0
0000
01FE
061E
0C1E
1C1C
181C
383C
787C
787C
78B8
79B8
7F78
7E78
3870
0070
80F0
C0E0
71C0
7F00
ENDCHAR
STARTCHAR Hcircumflex
ENCODING 292
SWIDTH 827 0
DWIDTH 21 0
BBX 23 23 1 0
BITMAP
001C00
003E00
007600
00C300
000000
1FF1FE
07C078
078078
0780F0
0780F0
0700F0
0F00F0
0F00E0
0FFFE0
0F01E0
0E01E0
1E01E0
1E01C0
1E03C0
1E03C0
3C03C0
3C07C0
FF1FF0
ENDCHAR
STARTCHAR hcircumflex
ENCODING 293
SWIDTH 656 0
DWIDTH 16 0
BBX 14 23 2 0
BITMAP
0700
0F80
1D80
30C0
0000
3E00
1E00
1E00
1E00
1C00
1C38
3CFC
3DFC
3DBC
3A3C
3E38
7C38
7878
7878
7078
7070
F070
F0FC
ENDCHAR
STARTCHAR Hbar
ENCODING 294
SWIDTH 827 0
DWIDTH 21 0
BBX 23 18 1 0
BITMAP
1FF1FE
07C078
078078
0780F0
FFFFFE
0700F0
0F00F0
0F00E0
0FFFE0
0F01E0
0E01E0
1E01E0
1E01C0
1E03C0
1E03C0
3C03C0
3C07C0
FF1FF0
ENDCHAR
STARTCHAR hbar
ENCODING 295
SWIDTH 656 0
DWIDTH 16 0
BBX 15 18 1 0
BITMAP
1F00
0F00
0F00
FFE0
0E00
0E1C
1E7E
1EFE
1EDE
1D1E
1F1C
3E1C
3C3C
3C3C
383C
3838
7838
787E
ENDCHAR
STARTCHAR Itilde
ENCODING 296
SWIDTH 372 0
DWIDTH 9 0
BBX 11 22 1 0
BITMAP
0E20
1FC0
2380
0000
1FE0
0780
0780
0700
0F00
0F00
0F00
0F00
0E00
0E00
1E00
1E00
1E00
1C00
1C00
3C00
3C00
FF00
ENDCHAR
STARTCHAR itilde
ENCODING 297
SWIDTH 319 0
DWIDTH 8 0
BBX 9 17 1 0
BITMAP
3880
7F00
8E00
0000
7E00
1E00
1E00
1C00
1C00
3C00
3C00
3C00
3800
3800
7800
7800
7E00
ENDCHAR
STARTCHAR Imacron
ENCODING 298
SWIDTH 372 0
DWIDTH 9 0
BBX 11 20 1 0
BITMAP
3FC0
0000
1FE0
0780
0780
0700
0F00
0F00
0F00
0F00
0E00
0E00
1E00
1E00
1E00
1C00
1C00
3C00
3C00
FF00
ENDCHAR
STARTCHAR imacron
ENCODING 299
SWIDTH 319 0
DWIDTH 8 0
BBX 8 15 1 0
BITMAP
FF
00
7E
1E
1E
1C
1C
3C
3C
3C
38
38
78
78
7E
ENDCHAR
STARTCHAR Ibreve
ENCODING 300
SWIDTH 372 0
DWIDTH 9 0
BBX 11 23 1 0
BITMAP
2060
38C0
1F80
0F00
0000
1FE0
0780
0780
0700
0F00
0F00
0F00
0F00
0E00
0E00
1E00
1E00
1E00
1C00
1C00
3C00
3C00
FF00
ENDCHAR
STARTCHAR ibreve
ENCODING 301
SWIDTH 319 0
DWIDTH 8 0
BBX 9 18 1 0
BITMAP
8180
E300
7E00
3C00
0000
7E00
1E00
1E00
1C00
1C00
3C00
3C00
3C00
3800
3800
7800
7800
7E00
ENDCHAR
STARTCHAR Iogonek
ENCODING 302
SWIDTH 372 0
DWIDTH 9 0
BBX 11 22 1 -4
BITMAP
1FE0
0780
0780
0700
0F00
0F00
0F00
0F00
0E00
0E00
1E00
1E00
1E00
1C00
1C00
3C00
3C00
FF00
0C00
1800
1A00
0E00
ENDCHAR
STARTCHAR iogonek
ENCODING 303
SWIDTH 319 0
DWIDTH 8 0
BBX 7 22 2 -4
BITMAP
1E
1E
1C
00
00
FC
3C
3C
38
38
78
78
78
70
70
F0
F0
FC
30
60
68
38
ENDCHAR
STARTCHAR Idotaccent
ENCODING 304
SWIDTH 372 0
DWIDTH 9 0
BBX 11 22 1 0
BITMAP
0380
0780
0700
0000
1FE0
0780
0780
0700
0F00
0F00
0F00
0F00
0E00
0E00
1E00
1E00
1E00
1C00
1C00
3C00
3C00
FF00
ENDCHAR
STARTCHAR dotlessi
ENCODING 305
SWIDTH 319 0
DWIDTH 8 0
BBX 6 13 2 0
BITMAP
FC
3C
3C
38
38
78
78
78
70
70
F0
F0
FC
ENDCHAR
STARTCHAR IJ
ENCODING 306
SWIDTH 831 0
DWIDTH 21 0
BBX 23 22 1 -4
BITMAP
1FE1FE
078078
078078
070070
0F00F0
0F00F0
0F00F0
0F00F0
0E00E0
0E00E0
1E01E0
1E01E0
1E01E0
1C01E0
1C01C0
3C03C0
3C03C0
FF03C0
006380
00C700
00C600
00FC00
ENDCHAR
STARTCHAR ij
ENCODING 307
SWIDTH 684 0
DWIDTH 18 0
BBX 19 23 2 -5
BITMAP
1E01E0
1E01E0
1C01C0
000000
000000
FC0FC0
3C0380
3C0380
380780
380780
780780
780700
780700
700F00
700F00
F00F00
F00E00
FC1E00
001E00
021C00
061800
063000
07E000
ENDCHAR
STARTCHAR Jcircumflex
ENCODING 308
SWIDTH 478 0
DWIDTH 12 0
BBX 15 27 0 -4
BITMAP
0070
00F8
01D8
030C
0000
01FE
0078
0078
0070
00F0
00F0
00F0
00F0
00E0
00E0
01E0
01E0
01E0
01E0
01C0
03C0
03C0
03C0
6380
C700
C600
FC00
ENDCHAR
STARTCHAR jcircumflex
ENCODING 309
SWIDTH 381 0
DWIDTH 10 0
BBX 14 23 -1 -5
BITMAP
00E0
01F0
03B0
0618
0000
01F8
0070
0070
00F0
00F0
00F0
00E0
00E0
01E0
01E0
01E0
01C0
03C0
03C0
4380
C300
C600
FC00
ENDCHAR
STARTCHAR Kcommaaccent
ENCODING 310
SWIDTH 746 0
DWIDTH 19 0
BBX 19 28 1 -10
BITMAP
1FE3E0
078180
070300
070600
070C00
0F1000
0F6000
0EC000
0FE000
0FE000
1EF000
1EF800
1C7C00
1C3C00
1C3E00
3C1F00
3C0F00
FE3FC0
000000
00F000
01F000
01E000
01E000
00E000
00E000
00C000
03C000
030000
ENDCHAR
STARTCHAR kcommaaccent
ENCODING 311
SWIDTH 626 0
DWIDTH 16 0
BBX 14 28 2 -10
BITMAP
3F00
1E00
1E00
1E00
1E00
1C3C
3C3C
3C38
3C70
39E0
3F80
7B80
7BC0
7BC0
71E0
70F0
F0F8
F07C
0000
0780
0F80
0F00
0F00
0700
0700
0600
1E00
1800
ENDCHAR
STARTCHAR kgreenlandic
ENCODING 312
SWIDTH 626 0
DWIDTH 16 0
BBX 14 13 2 0
BITMAP
1C3C
3C3C
3C38
3C70
39E0
3F80
7B80
7BC0
7BC0
71E0
70F0
F0F8
F07C
ENDCHAR
STARTCHAR Lacute
ENCODING 313
SWIDTH 611 0
DWIDTH 15 0
BBX 15 23 1 0
BITMAP
00F0
01C0
0380
0600
0000
1FF0
07C0
0780
0780
0780
0700
0F00
0F00
0F00
0F00
0E00
1E00
1E00
1E00
1E06
3C06
3C0C
FFFC
ENDCHAR
STARTCHAR lacute
ENCODING 314
SWIDTH 319 0
DWIDTH 8 0
BBX 9 23 2 0
BITMAP
0780
0E00
1C00
3000
0000
3E00
1E00
1E00
1C00
1C00
3C00
3C00
3C00
3800
3800
7800
7800
7800
7000
7000
F000
F000
F800
ENDCHAR
STARTCHAR Lcommaaccent
ENCODING 315
SWIDTH 611 0
DWIDTH 15 0
BBX 15 28 1 -10
BITMAP
1FF0
07C0
0780
0780
0780
0700
0F00
0F00
0F00
0F00
0E00
1E00
1E00
1E00
1E06
3C06
3C0C
FFFC
0000
03C0
07C0
0780
0780
0380
0380
0300
0F00
0C00
ENDCHAR
STARTCHAR lcommaaccent
ENCODING 316
SWIDTH 319 0
DWIDTH 8 0
BBX 8 28 1 -10
BITMAP
1F
0F
0F
0E
0E
1E
1E
1E
1C
1C
3C
3C
3C
38
38
78
78
7C
00
3C
7C
78
78
38
38
30
F0
C0
ENDCHAR
STARTCHAR Lcaron
ENCODING 317
SWIDTH 845 0
DWIDTH 21 0
BBX 22 18 1 0
BITMAP
1FF03C
07C07C
078078
078038
078038
070030
0F00E0
0F0000
0F0000
0F0000
0E0000
1E0000
1E0000
1E0000
1E0600
3C0600
3C0C00
FFFC00
ENDCHAR
STARTCHAR lcaron
ENCODING 318
SWIDTH 568 0
DWIDTH 15 0
BBX 15 18 2 0
BITMAP
3E1E
1E3E
1E3C
1C1C
1C1C
3C18
3C70
3C00
3800
3800
7800
7800
7800
7000
7000
F000
F000
F800
ENDCHAR
STARTCHAR Ldot
ENCODING 319
SWIDTH 1216 0
DWIDTH 30 0
BBX 24 18 1 0
BITMAP
1FF000
07C000
078000
078000
078000
070000
0F0000
0F0000
0F0000
0F0007
0E000F
1E000E
1E0000
1E0000
1E0600
3C0600
3C0C00
FFFC00
ENDCHAR
STARTCHAR ldot
ENCODING 320
SWIDTH 939 0
DWIDTH 24 0
BBX 17 18 2 0
BITMAP
3E0000
1E0000
1E0000
1C0000
1C0000
3C0000
3C0000
3C0000
380000
380380
780780
780700
780000
700000
700000
F00000
F00000
F80000
ENDCHAR
STARTCHAR Lslash
ENCODING 321
SWIDTH 611 0
DWIDTH 15 0
BBX 15 18 1 0
BITMAP
1FF0
07C0
0780
0780
0780
0700
0F20
0FE0
1F00
7F00
4E00
1E00
1E00
1E00
1E06
1C06
3C0E
FFFC
ENDCHAR
STARTCHAR lslash
ENCODING 322
SWIDTH 319 0
DWIDTH 8 0
BBX 9 18 1 0
BITMAP
3F00
0F00
0E00
0E00
0E00
1E00
1E00
1D80
1F00
7C00
BC00
3C00
3800
3800
3800
7800
7800
7C00
ENDCHAR
STARTCHAR Nacute
ENCODING 323
SWIDTH 797 0
DWIDTH 20 0
BBX 22 23 1 0
BITMAP
000F00
001C00
003800
006000
000000
1F80FC
078030
07C030
07C060
07E060
0DE060
0CF060
0CF060
0C78C0
0C78C0
183CC0
181CC0
181E80
180F80
180F80
300780
300780
FC0300
ENDCHAR
STARTCHAR nacute
ENCODING 324
SWIDTH 656 0
DWIDTH 16 0
BBX 14 18 2 0
BITMAP
00F0
01C0
0380
0600
0000
FC38
3CFC
3CFC
393C
3A3C
3C38
7C38
7878
7878
7078
7070
F070
F0FC
ENDCHAR
STARTCHAR Ncommaaccent
ENCODING 325
SWIDTH 797 0
DWIDTH 20 0
BBX 22 28 1 -10
BITMAP
1F80FC
078030
07C030
07C060
07E060
0DE060
0CF060
0CF060
0C78C0
0C78C0
183CC0
181CC0
181E80
180F80
180F80
300780
300780
FC0300
000000
007800
00F800
00F000
00F000
007000
007000
006000
01E000
018000
ENDCHAR
STARTCHAR ncommaaccent
ENCODING 326
SWIDTH 656 0
DWIDTH 16 0
BBX 14 23 2 -10
BITMAP
FC38
3CFC
3CFC
393C
3A3C
3C38
7C38
7878
7878
7078
7070
F070
F0FC
0000
03C0
07C0
0780
0780
0380
0380
0300
0F00
0C00
ENDCHAR
STARTCHAR Ncaron
ENCODING 327
SWIDTH 797 0
DWIDTH 20 0
BBX 22 23 1 0
BITMAP
018600
00CC00
00F800
007000
000000
1F80FC
078030
07C030
07C060
07E060
0DE060
0CF060
0CF060
0C78C0
0C78C0
183CC0
181CC0
181E80
180F80
180F80
300780
300780
FC0300
ENDCHAR
STARTCHAR ncaron
ENCODING 328
SWIDTH 656 0
DWIDTH 16 0
BBX 14 18 2 0
BITMAP
0C30
0660
07C0
0380
0000
FC38
3CFC
3CFC
393C
3A3C
3C38
7C38
7878
7878
7078
7070
F070
F0FC
ENDCHAR
STARTCHAR napostrophe
ENCODING 329
SWIDTH 908 0
DWIDTH 23 0
BBX 20 18 3 0
BITMAP
3C0000
7C0000
780000
380000
380000
33F0E0
E0F3F0
00F3F0
00E4F0
00E8F0
00F0E0
01F0E0
01E1E0
01E1E0
01C1E0
01C1C0
03C1C0
03C3F0
ENDCHAR
STARTCHAR Eng
ENCODING 330
SWIDTH 797 0
DWIDTH 20 0
BBX 22 23 1 -5
BITMAP
1F80FC
078030
07C030
07C060
07E060
0DE060
0CF060
0CF060
0C78C0
0C78C0
183CC0
181CC0
181F80
180F80
180F80
300780
300780
FC0F00
000F00
010E00
030C00
031800
03F000
ENDCHAR
STARTCHAR eng
ENCODING 331
SWIDTH 656 0
DWIDTH 16 0
BBX 14 18 2 -5
BITMAP
FC38
3CFC
3CFC
393C
3A3C
3C38
7C38
7878
7878
7078
7078
F070
F0F0
00F0
10E0
30C0
3180
3F00
ENDCHAR
STARTCHAR Omacron
ENCODING 332
SWIDTH 831 0
DWIDTH 21 0
BBX 19 20 3 0
BITMAP
01FE00
000000
00FE00
038780
0703C0
1E01C0
1C01E0
3801E0
7801E0
7801E0
F001E0
F001E0
F003C0
F003C0
F00380
F00700
700E00
781C00
3C3800
0FC000
ENDCHAR
STARTCHAR omacron
ENCODING 333
SWIDTH 599 0
DWIDTH 15 0
BBX 14 15 2 0
BITMAP
0FF0
0000
03E0
0E38
1C38
383C
783C
703C
F03C
F038
F078
F070
F0E0
79C0
3F00
ENDCHAR
STARTCHAR Obreve
ENCODING 334
SWIDTH 831 0
DWIDTH 21 0
BBX 19 23 3 0
BITMAP
010300
01C600
00FC00
007800
000000
00FE00
038780
0703C0
1E01C0
1C01E0
3801E0
7801E0
7801E0
F001E0
F001E0
F003C0
F003C0
F00380
F00700
700E00
781C00
3C3800
0FC000
ENDCHAR
STARTCHAR obreve
ENCODING 335
SWIDTH 599 0
DWIDTH 15 0
BBX 14 18 2 0
BITMAP
0818
0E30
07E0
03C0
0000
03E0
0E38
1C38
383C
783C
703C
F03C
F038
F078
F070
F0E0
79C0
3F00
ENDCHAR
STARTCHAR Ohungarumlaut
ENCODING 336
SWIDTH 831 0
DWIDTH 21 0
BBX 19 23 3 0
BITMAP
003F00
006C00
00C800
01B000
000000
00FE00
038780
0703C0
1E01C0
1C01E0
3801E0
7801E0
7801E0
F001E0
F001E0
F003C0
F003C0
F00380
F00700
700E00
781C00
3C3800
0FC000
ENDCHAR
STARTCHAR ohungarumlaut
ENCODING 337
SWIDTH 599 0
DWIDTH 15 0
BBX 14 18 2 0
BITMAP
00FC
01B0
0320
06C0
0000
03E0
0E38
1C38
383C
783C
703C
F03C
F038
F078
F070
F0E0
79C0
3F00
ENDCHAR
STARTCHAR OE
ENCODING 338
SWIDTH 1067 0
DWIDTH 27 0
BBX 26 18 3 0
BITMAP
00FDFFC0
0387C0C0
0603C080
1E03C000
1C03C000
38038000
78078000
78078600
F007FE00
F0070600
F0070000
F00F0000
F00F0000
F00F0000
701E0000
781E0300
3C3E0600
0FFFFE00
ENDCHAR
STARTCHAR oe
ENCODING 339
SWIDTH 921 0
DWIDTH 23 0
BBX 21 13 2 0
BITMAP
03F0F0
0C3B38
183E38
383C38
703C38
703C70
F038E0
F03F80
F07800
F07800
F0F808
79FC38
3F0FE0
ENDCHAR
STARTCHAR Racute
ENCODING 340
SWIDTH 711 0
DWIDTH 18 0
BBX 17 23 1 0
BITMAP
003C00
007000
00E000
018000
000000
1FFE00
078F80
078780
070780
070780
0F0780
0F0700
0F0E00
0F1C00
0FF800
1E7800
1E7800
1E3C00
1C3C00
1C1E00
3C1E00
3C0F00
FE0F80
ENDCHAR
STARTCHAR racute
ENCODING 341
SWIDTH 496 0
DWIDTH 12 0
BBX 13 18 2 0
BITMAP
01E0
0380
0700
0C00
0000
7C38
3C70
3CF0
3D80
3E00
3E00
7C00
7800
7800
7000
7000
F000
F000
ENDCHAR
STARTCHAR Rcommaaccent
ENCODING 342
SWIDTH 711 0
DWIDTH 18 0
BBX 17 28 1 -10
BITMAP
1FFE00
078F80
078780
070780
070780
0F0780
0F0700
0F0E00
0F1C00
0FF800
1E7800
1E7800
1E3C00
1C3C00
1C1E00
3C1E00
3C0F00
FE0F80
000000
01E000
03E000
03C000
03C000
01C000
01C000
018000
078000
060000
ENDCHAR
STARTCHAR rcommaaccent
ENCODING 343
SWIDTH 496 0
DWIDTH 12 0
BBX 13 23 2 -10
BITMAP
7C38
3C70
3CF0
3D80
3E00
3E00
7C00
7800
7800
7000
7000
F000
F000
0000
3C00
7C00
7800
7800
3800
3800
3000
F000
C000
ENDCHAR
STARTCHAR Rcaron
ENCODING 344
SWIDTH 711 0
DWIDTH 18 0
BBX 17 23 1 0
BITMAP
030C00
019800
01F000
00E000
000000
1FFE00
078F80
078780
070780
070780
0F0780
0F0700
0F0E00
0F1C00
0FF800
1E7800
1E7800
1E3C00
1C3C00
1C1E00
3C1E00
3C0F00
FE0F80
ENDCHAR
STARTCHAR rcaron
ENCODING 345
SWIDTH 496 0
DWIDTH 12 0
BBX 13 18 2 0
BITMAP
1860
0CC0
0F80
0700
0000
7C38
3C70
3CF0
3D80
3E00
3E00
7C00
7800
7800
7000
7000
F000
F000
ENDCHAR
STARTCHAR Sacute
ENCODING 346
SWIDTH 587 0
DWIDTH 15 0
BBX 15 23 2 0
BITMAP
0078
00E0
01C0
0300
0000
01FC
070E
0E06
1C0C
1C00
1E00
1F00
1F80
0FE0
03F0
01F8
00F8
0078
0078
6078
C070
E0E0
7F80
ENDCHAR
STARTCHAR sacute
ENCODING 347
SWIDTH 479 0
DWIDTH 12 0
BBX 12 18 1 0
BITMAP
01E0
0380
0700
0C00
0000
07E0
1C70
1C20
3C60
1E00
1F00
0F80
07C0
03C0
41C0
C1C0
E380
7F00
ENDCHAR
STARTCHAR Scircumflex
ENCODING 348
SWIDTH 587 0
DWIDTH 15 0
BBX 15 23 2 0
BITMAP
01C0
03E0
0760
0C30
0000
01FC
070E
0E06
1C0C
1C00
1E00
1F00
1F80
0FE0
03F0
01F8
00F8
0078
0078
6078
C070
E0E0
7F80
ENDCHAR
STARTCHAR scircumflex
ENCODING 349
SWIDTH 479 0
DWIDTH 12 0
BBX 12 18 1 0
BITMAP
0380
07C0
0EC0
1860
0000
07E0
1C70
1C20
3C60
1E00
1F00
0F80
07C0
03C0
41C0
C1C0
E380
7F00
ENDCHAR
STARTCHAR Scedilla
ENCODING 350
SWIDTH 587 0
DWIDTH 15 0
BBX 15 23 2 -5
BITMAP
01FC
070E
0E06
1C0C
1C00
1E00
1F00
1F80
0FE0
03F0
01F8
00F8
0078
0078
6078
C070
E0E0
7F80
0180
0300
00C0
00C0
0780
ENDCHAR
STARTCHAR scedilla
ENCODING 351
SWIDTH 479 0
DWIDTH 12 0
BBX 12 18 1 -5
BITMAP
07E0
1C70
1C20
3C60
1E00
1F00
0F80
07C0
03C0
41C0
C1C0
E380
7F00
0600
0C00
0300
0300
1E00
ENDCHAR
STARTCHAR Scaron
ENCODING 352
SWIDTH 587 0
DWIDTH 15 0
BBX 15 23 2 0
BITMAP
030C
0198
01F0
00E0
0000
01FC
070E
0E06
1C0C
1C00
1E00
1F00
1F80
0FE0
03F0
01F8
00F8
0078
0078
6078
C070
E0E0
7F80
ENDCHAR
STARTCHAR scaron
ENCODING 353
SWIDTH 479 0
DWIDTH 12 0
BBX 13 18 1 0
BITMAP
0618
0330
03E0
01C0
0000
07E0
1C70
1C20
3C60
1E00
1F00
0F80
07C0
03C0
41C0
C1C0
E380
7F00
ENDCHAR
STARTCHAR Tcommaaccent
ENCODING 354
SWIDTH 716 0
DWIDTH 18 0
BBX 18 23 3 -5
BITMAP
7FFFC0
E1E0C0
C1E080
C1E180
03C000
03C000
03C000
03C000
03C000
038000
078000
078000
078000
078000
070000
0F0000
0F0000
7FC000
018000
030000
00C000
00C000
078000
ENDCHAR
STARTCHAR tcommaaccent
ENCODING 355
SWIDTH 375 0
DWIDTH 9 0
BBX 9 22 2 -5
BITMAP
0C00
1C00
3C00
3C00
FF80
3C00
3800
3800
7800
7800
7800
7000
F000
F000
F000
7200
3C00
1800
3000
0C00
0C00
7800
ENDCHAR
STARTCHAR Tcaron
ENCODING 356
SWIDTH 716 0
DWIDTH 18 0
BBX 18 23 3 0
BITMAP
061800
033000
03E000
01C000
000000
7FFFC0
E1E0C0
C1E080
C1E180
03C000
03C000
03C000
03C000
03C000
038000
078000
078000
078000
078000
070000
0F0000
0F0000
7FC000
ENDCHAR
STARTCHAR tcaron
ENCODING 357
SWIDTH 621 0
DWIDTH 16 0
BBX 16 18 2 0
BITMAP
000F
0C1F
1C1E
3C0E
3C0E
FF8C
3C38
3800
3800
7800
7800
7800
7000
F000
F000
F000
7200
3C00
ENDCHAR
STARTCHAR Tbar
ENCODING 358
SWIDTH 716 0
DWIDTH 18 0
BBX 18 18 3 0
BITMAP
7FFFC0
E1E0C0
C1E080
C1E180
03C000
03C000
03C000
03C000
0FFE00
038000
078000
078000
078000
078000
070000
0F0000
0F0000
7FC000
ENDCHAR
STARTCHAR tbar
ENCODING 359
SWIDTH 375 0
DWIDTH 9 0
BBX 11 17 1 0
BITMAP
0600
0E00
1E00
1E00
7FC0
1E00
1C00
1C00
3C00
3C00
FFE0
3800
7800
7800
7800
3900
1E00
ENDCHAR
STARTCHAR Utilde
ENCODING 360
SWIDTH 775 0
DWIDTH 19 0
BBX 19 22 4 0
BITMAP
038800
07F000
08E000
000000
FF07E0
3C0380
3C0300
380300
380200
780200
780200
780200
700600
F00400
F00400
F00400
F00400
F00800
F00800
701000
382000
1FC000
ENDCHAR
STARTCHAR utilde
ENCODING 361
SWIDTH 655 0
DWIDTH 16 0
BBX 14 17 3 0
BITMAP
0710
0FE0
11C0
0000
FCFC
383C
3838
7838
7878
7878
70F8
70F0
F170
F370
FEF0
FCF0
70FC
ENDCHAR
STARTCHAR Umacron
ENCODING 362
SWIDTH 775 0
DWIDTH 19 0
BBX 19 20 4 0
BITMAP
07F800
000000
FF07E0
3C0380
3C0300
380300
380200
780200
780200
780200
700600
F00400
F00400
F00400
F00400
F00800
F00800
701000
382000
1FC000
ENDCHAR
STARTCHAR umacron
ENCODING 363
SWIDTH 655 0
DWIDTH 16 0
BBX 14 15 3 0
BITMAP
1FE0
0000
FCFC
383C
3838
7838
7878
7878
70F8
70F0
F170
F370
FEF0
FCF0
70FC
ENDCHAR
STARTCHAR Ubreve
ENCODING 364
SWIDTH 775 0
DWIDTH 19 0
BBX 19 23 4 0
BITMAP
040C00
071800
03F000
01E000
000000
FF07E0
3C0380
3C0300
380300
380200
780200
780200
780200
700600
F00400
F00400
F00400
F00400
F00800
F00800
701000
382000
1FC000
ENDCHAR
STARTCHAR ubreve
ENCODING 365
SWIDTH 655 0
DWIDTH 16 0
BBX 14 18 3 0
BITMAP
1030
1C60
0FC0
0780
0000
FCFC
383C
3838
7838
7878
7878
70F8
70F0
F170
F370
FEF0
FCF0
70FC
ENDCHAR
STARTCHAR Uring
ENCODING 366
SWIDTH 775 0
DWIDTH 19 0
BBX 19 23 4 0
BITMAP
00C000
012000
012000
00C000
000000
FF07E0
3C0380
3C0300
380300
380200
780200
780200
780200
700600
F00400
F00400
F00400
F00400
F00800
F00800
701000
382000
1FC000
ENDCHAR
STARTCHAR uring
ENCODING 367
SWIDTH 655 0
DWIDTH 16 0
BBX 14 18 3 0
BITMAP
0300
0480
0480
0300
0000
FCFC
383C
3838
7838
7878
7878
70F8
70F0
F170
F370
FEF0
FCF0
70FC
ENDCHAR
STARTCHAR Uhungarumlaut
ENCODING 368
SWIDTH 775 0
DWIDTH 19 0
BBX 19 23 4 0
BITMAP
00FC00
01B000
032000
06C000
000000
FF07E0
3C0380
3C0300
380300
380200
780200
780200
780200
700600
F00400
F00400
F00400
F00400
F00800
F00800
701000
382000
1FC000
ENDCHAR
STARTCHAR uhungarumlaut
ENCODING 369
SWIDTH 655 0
DWIDTH 16 0
BBX 14 18 3 0
BITMAP
01F8
0360
0640
0D80
0000
FCFC
383C
3838
7838
7878
7878
70F8
70F0
F170
F370
FEF0
FCF0
70FC
ENDCHAR
STARTCHAR Uogonek
ENCODING 370
SWIDTH 775 0
DWIDTH 19 0
BBX 19 22 4 -4
BITMAP
FF07E0
3C0380
3C0300
380300
380200
780200
780200
780200
700600
F00400
F00400
F00400
F00400
F00800
F00800
701000
382000
1FC000
030000
060000
068000
038000
ENDCHAR
STARTCHAR uogonek
ENCODING 371
SWIDTH 655 0
DWIDTH 16 0
BBX 14 17 3 -4
BITMAP
FCFC
383C
3838
7838
7878
7878
70F8
70F0
F170
F370
FEF0
FCF0
70FC
0300
0600
0680
0380
ENDCHAR
STARTCHAR Wcircumflex
ENCODING 372
SWIDTH 922 0
DWIDTH 23 0
BBX 23 23 3 0
BITMAP
003800
007C00
00EC00
018600
000000
FC183E
78180C
783818
783810
387830
387C20
38FC60
38BC40
399CC0
391C80
3B1D80
3A1D00
3E1F00
3C1E00
3C1E00
381C00
381C00
301800
ENDCHAR
STARTCHAR wcircumflex
ENCODING 373
SWIDTH 822 0
DWIDTH 21 0
BBX 20 18 2 0
BITMAP
007000
00F800
01D800
030C00
000000
F820F0
783070
387060
3C7060
3C78C0
1CB880
1CB900
1D3B00
1F3A00
1E1C00
1C1C00
181800
181000
ENDCHAR
STARTCHAR Ycircumflex
ENCODING 374
SWIDTH 669 0
DWIDTH 17 0
BBX 17 23 3 0
BITMAP
01C000
03E000
076000
0C3000
000000
FE0F80
7C0600
3C0400
3C0C00
1C1800
1E3000
1E2000
0F6000
0FC000
078000
070000
0F0000
0F0000
0F0000
0F0000
0E0000
1E0000
7F8000
ENDCHAR
STARTCHAR ycircumflex
ENCODING 375
SWIDTH 586 0
DWIDTH 15 0
BBX 17 23 0 -5
BITMAP
00E000
01F000
03B000
061800
000000
3F0780
0F0380
0F0380
078300
078600
078600
038C00
039800
03B000
03E000
03C000
01C000
018000
030000
060000
0C0000
180000
F80000
ENDCHAR
STARTCHAR Ydieresis
ENCODING 376
SWIDTH 669 0
DWIDTH 17 0
BBX 17 22 3 0
BITMAP
073800
073800
073800
000000
FE0F80
7C0600
3C0400
3C0C00
1C1800
1E3000
1E2000
0F6000
0FC000
078000
070000
0F0000
0F0000
0F0000
0F0000
0E0000
1E0000
7F8000
ENDCHAR
STARTCHAR Zacute
ENCODING 377
SWIDTH 684 0
DWIDTH 17 0
BBX 17 23 2 0
BITMAP
001E00
003800
007000
00C000
000000
0FFF80
0C0F00
081F00
001E00
003C00
007800
00F800
01F000
01E000
03C000
078000
0F8000
0F0000
1E0000
3C0000
7C0C00
F80C00
FFFC00
ENDCHAR
STARTCHAR zacute
ENCODING 378
SWIDTH 567 0
DWIDTH 14 0
BBX 14 18 1 0
BITMAP
0078
00E0
01C0
0300
0000
1FFC
1878
3078
00F0
01E0
03C0
0780
0F00
1E00
3C00
7C18
7830
FFF0
ENDCHAR
STARTCHAR Zdotaccent
ENCODING 379
SWIDTH 684 0
DWIDTH 17 0
BBX 17 22 2 0
BITMAP
003800
007800
007000
000000
0FFF80
0C0F00
081F00
001E00
003C00
007800
00F800
01F000
01E000
03C000
078000
0F8000
0F0000
1E0000
3C0000
7C0C00
F80C00
FFFC00
ENDCHAR
STARTCHAR zdotaccent
ENCODING 380
SWIDTH 567 0
DWIDTH 14 0
BBX 14 17 1 0
BITMAP
01C0
03C0
0380
0000
1FFC
1878
3078
00F0
01E0
03C0
0780
0F00
1E00
3C00
7C18
7830
FFF0
ENDCHAR
STARTCHAR Zcaron
ENCODING 381
SWIDTH 684 0
DWIDTH 17 0
BBX 17 23 2 0
BITMAP
00C300
006600
007C00
003800
000000
0FFF80
0C0F00
081F00
001E00
003C00
007800
00F800
01F000
01E000
03C000
078000
0F8000
0F0000
1E0000
3C0000
7C0C00
F80C00
FFFC00
ENDCHAR
STARTCHAR zcaron
ENCODING 382
SWIDTH 567 0
DWIDTH 14 0
BBX 14 18 1 0
BITMAP
030C
0198
01F0
00E0
0000
1FFC
1878
3078
00F0
01E0
03C0
0780
0F00
1E00
3C00
7C18
7830
FFF0
ENDCHAR
STARTCHAR uni0186
ENCODING 390
SWIDTH 740 0
DWIDTH 18 0
BBX 17 18 3 0
BITMAP
07F800
183E00
000F00
000F00
000780
000780
000780
000780
000780
000780
000F00
000F00
000E00
601C00
403C00
C03800
F0E000
7F8000
ENDCHAR
STARTCHAR uni0189
ENCODING 393
SWIDTH 822 0
DWIDTH 21 0
BBX 20 18 1 0
BITMAP
1FFF00
0787C0
0781E0
0700E0
0F00F0
0F00F0
0F00F0
0F00F0
7FF0F0
1E00F0
1E00E0
1E01E0
1E01C0
1E03C0
1C0380
3C0700
3C1E00
FFF800
ENDCHAR
STARTCHAR uni018E
ENCODING 398
SWIDTH 630 0
DWIDTH 16 0
BBX 17 18 1 0
BITMAP
1FFF80
181E00
301E00
001C00
003C00
003C00
003C00
003C00
083800
0FF800
187800
007800
007800
00F000
00F000
40F000
C0F000
FFFC00
ENDCHAR
STARTCHAR florin
ENCODING 402
SWIDTH 636 0
DWIDTH 16 0
BBX 13 22 5 -4
BITMAP
01F8
0318
0718
0E10
0E00
1E00
1E00
1C00
FF80
3C00
3C00
3C00
3800
3800
7800
7800
7800
7000
7000
F000
F000
F000
ENDCHAR
STARTCHAR uni0197
ENCODING 407
SWIDTH 372 0
DWIDTH 9 0
BBX 11 18 1 0
BITMAP
1FE0
0780
0780
0700
0F00
0F00
0F00
0F00
FFE0
0E00
1E00
1E00
1E00
1C00
1C00
3C00
3C00
FF00
ENDCHAR
STARTCHAR uni019A
ENCODING 410
SWIDTH 319 0
DWIDTH 8 0
BBX 11 18 0 0
BITMAP
0F80
0780
0780
0700
0700
0F00
0F00
0F00
FFE0
0E00
1E00
1E00
1E00
1C00
1C00
3C00
3C00
3E00
ENDCHAR
STARTCHAR uni019D
ENCODING 413
SWIDTH 797 0
DWIDTH 20 0
BBX 27 23 -4 -5
BITMAP
00FC07E0
003C0180
003E0180
003E0300
003F0300
006F0300
00678300
00678300
0063C600
0063C600
00C1E600
00C0E600
00E0F400
01E07C00
01E07C00
01E03C00
01C03C00
03C01800
03C00000
43800000
C3000000
C6000000
FC000000
ENDCHAR
STARTCHAR uni019F
ENCODING 415
SWIDTH 831 0
DWIDTH 21 0
BBX 19 18 3 0
BITMAP
00FE00
038780
0703C0
1E01C0
1C01E0
3801E0
7801E0
7801E0
FFFFE0
F001E0
F003C0
F003C0
F00380
F00700
700E00
781C00
3C3800
0FC000
ENDCHAR
STARTCHAR Ohorn
ENCODING 416
SWIDTH 831 0
DWIDTH 21 0
BBX 23 18 3 0
BITMAP
00FE1E
0387BE
0703FC
1E01DC
1C01FC
3801F8
7801F0
7801E0
F001E0
F001E0
F003C0
F003C0
F00380
F00700
700E00
781C00
3C3800
0FC000
ENDCHAR
STARTCHAR ohorn
ENCODING 417
SWIDTH 599 0
DWIDTH 15 0
BBX 19 13 2 0
BITMAP
03E1E0
0E3BE0
1C3BC0
383DC0
783DC0
703D80
F03F00
F03800
F07800
F07000
F0E000
79C000
3F0000
ENDCHAR
STARTCHAR Uhorn
ENCODING 431
SWIDTH 775 0
DWIDTH 19 0
BBX 23 18 4 0
BITMAP
FF07FE
3C03BE
3C033C
38031C
38021C
780218
780270
780200
700600
F00400
F00400
F00400
F00400
F00800
F00800
701000
382000
1FC000
ENDCHAR
STARTCHAR uhorn
ENCODING 432
SWIDTH 655 0
DWIDTH 16 0
BBX 19 13 3 0
BITMAP
FCFDE0
383FE0
383BC0
7839C0
7879C0
787980
70FF00
70F000
F17000
F37000
FEF000
FCF000
70FC00
ENDCHAR
STARTCHAR uni01B5
ENCODING 437
SWIDTH 684 0
DWIDTH 17 0
BBX 17 18 2 0
BITMAP
0FFF80
0C0F00
081F00
001E00
003C00
007800
00F800
01F000
1FFC00
03C000
078000
0F8000
0F0000
1E0000
3C0000
7C0C00
F80C00
FFFC00
ENDCHAR
STARTCHAR uni01B6
ENCODING 438
SWIDTH 567 0
DWIDTH 14 0
BBX 14 13 1 0
BITMAP
1FFC
1878
3078
00F0
01E0
03C0
3FF8
0F00
1E00
3C00
7C18
7830
FFF0
ENDCHAR
STARTCHAR uni01BB
ENCODING 443
SWIDTH 636 0
DWIDTH 16 0
BBX 15 18 2 0
BITMAP
03F0
0C3C
181E
181E
001E
001E
003C
0038
FFFE
0180
0200
0400
1800
3000
7000
7FF8
FFF0
FFF0
ENDCHAR
STARTCHAR uni01BC
ENCODING 444
SWIDTH 636 0
DWIDTH 16 0
BBX 15 18 3 0
BITMAP
0FFE
0FFC
0FFC
1800
1800
1000
1000
3F00
03C0
00F0
00F0
0070
0078
0070
40F0
C0E0
E1C0
FE00
ENDCHAR
STARTCHAR uni01C0
ENCODING 448
SWIDTH 253 0
DWIDTH 6 0
BBX 6 22 2 -4
BITMAP
0C
0C
0C
18
18
18
18
18
30
30
30
30
30
30
60
60
60
60
60
C0
C0
C0
ENDCHAR
STARTCHAR uni01C2
ENCODING 450
SWIDTH 636 0
DWIDTH 16 0
BBX 16 22 1 -4
BITMAP
0060
0060
0060
00C0
00C0
00C0
00C0
00C0
7FFF
0180
0180
0180
0180
FFFE
0300
0300
0300
0300
0300
0600
0600
0600
ENDCHAR
STARTCHAR uni01C3
ENCODING 451
SWIDTH 265 0
DWIDTH 6 0
BBX 7 18 1 0
BITMAP
1E
1E
1C
1C
1C
1C
18
38
38
38
30
30
30
00
00
F0
F0
F0
ENDCHAR
STARTCHAR uni01CD
ENCODING 461
SWIDTH 765 0
DWIDTH 19 0
BBX 19 23 0 0
BITMAP
00C300
006600
007C00
003800
000000
000C00
001C00
001C00
003E00
007E00
005E00
00CE00
018E00
010F00
030F00
020F00
060700
0FFF80
080780
180780
100380
3003C0
F80FE0
ENDCHAR
STARTCHAR uni01CE
ENCODING 462
SWIDTH 634 0
DWIDTH 16 0
BBX 15 18 2 0
BITMAP
030C
0198
01F0
00E0
0000
01FE
063E
0C1C
181C
383C
703C
707C
F0B8
F1F8
F378
FE78
FC78
787C
ENDCHAR
STARTCHAR uni01CF
ENCODING 463
SWIDTH 372 0
DWIDTH 9 0
BBX 11 23 1 0
BITMAP
1860
0CC0
0F80
0700
0000
1FE0
0780
0780
0700
0F00
0F00
0F00
0F00
0E00
0E00
1E00
1E00
1E00
1C00
1C00
3C00
3C00
FF00
ENDCHAR
STARTCHAR uni01D0
ENCODING 464
SWIDTH 319 0
DWIDTH 8 0
BBX 8 18 2 0
BITMAP
C3
66
7C
38
00
FC
3C
3C
38
38
78
78
78
70
70
F0
F0
FC
ENDCHAR
STARTCHAR uni01D1
ENCODING 465
SWIDTH 831 0
DWIDTH 21 0
BBX 19 23 3 0
BITMAP
018600
00CC00
00F800
007000
000000
00FE00
038780
0703C0
1E01C0
1C01E0
3801E0
7801E0
7801E0
F001E0
F001E0
F003C0
F003C0
F00380
F00700
700E00
781C00
3C3800
0FC000
ENDCHAR
STARTCHAR uni01D2
ENCODING 466
SWIDTH 599 0
DWIDTH 15 0
BBX 14 18 2 0
BITMAP
0C30
0660
07C0
0380
0000
03E0
0E38
1C38
383C
783C
703C
F03C
F038
F078
F070
F0E0
79C0
3F00
ENDCHAR
STARTCHAR uni01D3
ENCODING 467
SWIDTH 775 0
DWIDTH 19 0
BBX 19 23 4 0
BITMAP
061800
033000
03E000
01C000
000000
FF07E0
3C0380
3C0300
380300
380200
780200
780200
780200
700600
F00400
F00400
F00400
F00400
F00800
F00800
701000
382000
1FC000
ENDCHAR
STARTCHAR uni01D4
ENCODING 468
SWIDTH 655 0
DWIDTH 16 0
BBX 14 18 3 0
BITMAP
0C30
0660
07C0
0380
0000
FCFC
383C
3838
7838
7878
7878
70F8
70F0
F170
F370
FEF0
FCF0
70FC
ENDCHAR
STARTCHAR uni01D5
ENCODING 469
SWIDTH 775 0
DWIDTH 19 0
BBX 19 24 4 0
BITMAP
03FC00
000000
039C00
039C00
039C00
000000
FF07E0
3C0380
3C0300
380300
380200
780200
780200
780200
700600
F00400
F00400
F00400
F00400
F00800
F00800
701000
382000
1FC000
ENDCHAR
STARTCHAR uni01D6
ENCODING 470
SWIDTH 655 0
DWIDTH 16 0
BBX 14 19 3 0
BITMAP
0FF0
0000
0738
0738
0738
0000
FCFC
383C
3838
7838
7878
7878
70F8
70F0
F170
F370
FEF0
FCF0
70FC
ENDCHAR
STARTCHAR uni01D7
ENCODING 471
SWIDTH 775 0
DWIDTH 19 0
BBX 19 27 4 0
BITMAP
003C00
007000
00E000
018000
000000
039C00
039C00
039C00
000000
FF07E0
3C0380
3C0300
380300
380200
780200
780200
780200
700600
F00400
F00400
F00400
F00400
F00800
F00800
701000
382000
1FC000
ENDCHAR
STARTCHAR uni01D8
ENCODING 472
SWIDTH 655 0
DWIDTH 16 0
BBX 14 22 3 0
BITMAP
00F0
01C0
0380
0600
0000
0738
0738
0738
0000
FCFC
383C
3838
7838
7878
7878
70F8
70F0
F170
F370
FEF0
FCF0
70FC
ENDCHAR
STARTCHAR uni01D9
ENCODING 473
SWIDTH 775 0
DWIDTH 19 0
BBX 19 27 4 0
BITMAP
030C00
019800
01F000
00E000
000000
039C00
039C00
039C00
000000
FF07E0
3C0380
3C0300
380300
380200
780200
780200
780200
700600
F00400
F00400
F00400
F00400
F00800
F00800
701000
382000
1FC000
ENDCHAR
STARTCHAR uni01DA
ENCODING 474
SWIDTH 655 0
DWIDTH 16 0
BBX 14 22 3 0
BITMAP
0C30
0660
07C0
0380
0000
0738
0738
0738
0000
FCFC
383C
3838
7838
7878
7878
70F8
70F0
F170
F370
FEF0
FCF0
70FC
ENDCHAR
STARTCHAR uni01DB
ENCODING 475
SWIDTH 775 0
DWIDTH 19 0
BBX 19 27 4 0
BITMAP
038000
01C000
00C000
006000
000000
039C00
039C00
039C00
000000
FF07E0
3C0380
3C0300
380300
380200
780200
780200
780200
700600
F00400
F00400
F00400
F00400
F00800
F00800
701000
382000
1FC000
ENDCHAR
STARTCHAR uni01DC
ENCODING 476
SWIDTH 655 0
DWIDTH 16 0
BBX 14 22 3 0
BITMAP
0700
0380
0180
00C0
0000
0738
0738
0738
0000
FCFC
383C
3838
7838
7878
7878
70F8
70F0
F170
F370
FEF0
FCF0
70FC
ENDCHAR
STARTCHAR uni01DD
ENCODING 477
SWIDTH 548 0
DWIDTH 14 0
BBX 12 13 2 0
BITMAP
1FC0
E1E0
80F0
00F0
00F0
0FF0
3CF0
70E0
E0E0
E1C0
E180
F300
7C00
ENDCHAR
STARTCHAR uni01DE
ENCODING 478
SWIDTH 765 0
DWIDTH 19 0
BBX 19 24 0 0
BITMAP
00FF00
000000
0039C0
0039C0
0039C0
000000
000C00
001C00
001C00
003E00
007E00
005E00
00CE00
018E00
010F00
030F00
020F00
060700
0FFF80
080780
180780
100380
3003C0
F80FE0
ENDCHAR
STARTCHAR uni01DF
ENCODING 479
SWIDTH 634 0
DWIDTH 16 0
BBX 15 19 2 0
BITMAP
07F8
0000
039C
039C
039C
0000
01FE
063E
0C1C
181C
383C
703C
707C
F0B8
F1F8
F378
FE78
FC78
787C
ENDCHAR
STARTCHAR uni01E0
ENCODING 480
SWIDTH 765 0
DWIDTH 19 0
BBX 19 24 0 0
BITMAP
01FE00
000000
001C00
003C00
003800
000000
000C00
001C00
001C00
003E00
007E00
005E00
00CE00
018E00
010F00
030F00
020F00
060700
0FFF80
080780
180780
100380
3003C0
F80FE0
ENDCHAR
STARTCHAR uni01E1
ENCODING 481
SWIDTH 634 0
DWIDTH 16 0
BBX 15 19 2 0
BITMAP
07F8
0000
0070
00F0
00E0
0000
01FE
063E
0C1C
181C
383C
703C
707C
F0B8
F1F8
F378
FE78
FC78
787C
ENDCHAR
STARTCHAR uni01E2
ENCODING 482
SWIDTH 958 0
DWIDTH 24 0
BBX 26 20 0 0
BITMAP
000FF000
00000000
0003FFC0
0007C0C0
0007C080
000BC000
001BC000
00338000
00278000
00478600
00C7FE00
01878600
01070600
02070000
07FF0000
0C0F0000
180F0000
100E0300
301E0600
F87FFE00
ENDCHAR
STARTCHAR uni01E3
ENCODING 483
SWIDTH 905 0
DWIDTH 23 0
BBX 21 15 2 0
BITMAP
00FF00
000000
03FDF0
043E78
1C3C38
183C38
383878
703870
7079E0
F0FF80
F1F800
F37800
FE3808
FC3C38
780FC0
ENDCHAR
STARTCHAR uni01E4
ENCODING 484
SWIDTH 780 0
DWIDTH 19 0
BBX 20 18 3 0
BITMAP
00FF80
038380
0F0180
1E0300
1C0000
380000
780000
780000
F00000
F00000
F03F80
F01E00
F01E00
F07FF0
781C00
781C00
3C3C00
0FF000
ENDCHAR
STARTCHAR uni01E5
ENCODING 485
SWIDTH 628 0
DWIDTH 16 0
BBX 15 18 1 -5
BITMAP
01FE
061E
0C1E
1C1C
181C
383C
787C
787C
78B8
79B8
7F78
7E78
3870
FFFE
80F0
C0E0
71C0
7F00
ENDCHAR
STARTCHAR Gcaron
ENCODING 486
SWIDTH 780 0
DWIDTH 19 0
BBX 17 23 3 0
BITMAP
030C00
019800
01F000
00E000
000000
00FF80
038380
0F0180
1E0300
1C0000
380000
780000
780000
F00000
F00000
F03F80
F01E00
F01E00
F01C00
781C00
781C00
3C3C00
0FF000
ENDCHAR
STARTCHAR gcaron
ENCODING 487
SWIDTH 628 0
DWIDTH 16 0
BBX 15 23 1 -5
BITMAP
030C
0198
01F0
00E0
0000
01FE
061E
0C1E
1C1C
181C
383C
787C
787C
78B8
79B8
7F78
7E78
3870
0070
80F0
C0E0
71C0
7F00
ENDCHAR
STARTCHAR uni01E8
ENCODING 488
SWIDTH 746 0
DWIDTH 19 0
BBX 19 23 1 0
BITMAP
030C00
019800
01F000
00E000
000000
1FE3E0
078180
070300
070600
070C00
0F1000
0F6000
0EC000
0FE000
0FE000
1EF000
1EF800
1C7C00
1C3C00
1C3E00
3C1F00
3C0F00
FE3FC0
ENDCHAR
STARTCHAR uni01E9
ENCODING 489
SWIDTH 626 0
DWIDTH 16 0
BBX 14 23 2 0
BITMAP
30C0
1980
1F00
0E00
0000
3F00
1E00
1E00
1E00
1E00
1C3C
3C3C
3C38
3C70
39E0
3F80
7B80
7BC0
7BC0
71E0
70F0
F0F8
F07C
ENDCHAR
STARTCHAR uni01EA
ENCODING 490
SWIDTH 831 0
DWIDTH 21 0
BBX 19 22 3 -4
BITMAP
00FE00
038780
0703C0
1E01C0
1C01E0
3801E0
7801E0
7801E0
F001E0
F001E0
F003C0
F003C0
F00380
F00700
700E00
781C00
3C3800
0FC000
018000
030000
034000
01C000
ENDCHAR
STARTCHAR uni01EB
ENCODING 491
SWIDTH 599 0
DWIDTH 15 0
BBX 14 17 2 -4
BITMAP
03E0
0E38
1C38
383C
783C
703C
F03C
F038
F078
F070
F0E0
79C0
3F00
0600
0C00
0D00
0700
ENDCHAR
STARTCHAR uni01EC
ENCODING 492
SWIDTH 831 0
DWIDTH 21 0
BBX 19 24 3 -4
BITMAP
01FE00
000000
00FE00
038780
0703C0
1E01C0
1C01E0
3801E0
7801E0
7801E0
F001E0
F001E0
F003C0
F003C0
F00380
F00700
700E00
781C00
3C3800
0FC000
018000
030000
034000
01C000
ENDCHAR
STARTCHAR uni01ED
ENCODING 493
SWIDTH 599 0
DWIDTH 15 0
BBX 14 19 2 -4
BITMAP
0FF0
0000
03E0
0E38
1C38
383C
783C
703C
F03C
F038
F078
F070
F0E0
79C0
3F00
0600
0C00
0D00
0700
ENDCHAR
STARTCHAR uni01F0
ENCODING 496
SWIDTH 381 0
DWIDTH 10 0
BBX 14 23 -1 -5
BITMAP
0618
0330
03E0
01C0
0000
01F8
0070
0070
00F0
00F0
00F0
00E0
00E0
01E0
01E0
01E0
01C0
03C0
03C0
4380
C300
C600
FC00
ENDCHAR
STARTCHAR uni01F4
ENCODING 500
SWIDTH 780 0
DWIDTH 19 0
BBX 17 23 3 0
BITMAP
003C00
007000
00E000
018000
000000
00FF80
038380
0F0180
1E0300
1C0000
380000
780000
780000
F00000
F00000
F03F80
F01E00
F01E00
F01C00
781C00
781C00
3C3C00
0FF000
ENDCHAR
STARTCHAR uni01F5
ENCODING 501
SWIDTH 628 0
DWIDTH 16 0
BBX 15 23 1 -5
BITMAP
003C
0070
00E0
0180
0000
01FE
061E
0C1E
1C1C
181C
383C
787C
787C
78B8
79B8
7F78
7E78
3870
0070
80F0
C0E0
71C0
7F00
ENDCHAR
STARTCHAR uni01F8
ENCODING 504
SWIDTH 797 0
DWIDTH 20 0
BBX 22 23 1 0
BITMAP
00E000
007000
003000
001800
000000
1F80FC
078030
07C030
07C060
07E060
0DE060
0CF060
0CF060
0C78C0
0C78C0
183CC0
181CC0
181E80
180F80
180F80
300780
300780
FC0300
ENDCHAR
STARTCHAR uni01F9
ENCODING 505
SWIDTH 656 0
DWIDTH 16 0
BBX 14 18 2 0
BITMAP
0E00
0700
0300
0180
0000
FC38
3CFC
3CFC
393C
3A3C
3C38
7C38
7878
7878
7078
7070
F070
F0FC
ENDCHAR
STARTCHAR Aringacute
ENCODING 506
SWIDTH 765 0
DWIDTH 19 0
BBX 19 28 0 0
BITMAP
000780
000E00
001C00
003000
000000
000600
000900
000900
000600
000000
000C00
001C00
001C00
003E00
007E00
005E00
00CE00
018E00
010F00
030F00
020F00
060700
0FFF80
080780
180780
100380
3003C0
F80FE0
ENDCHAR
STARTCHAR aringacute
ENCODING 507
SWIDTH 634 0
DWIDTH 16 0
BBX 15 23 2 0
BITMAP
003C
0070
00E0
0180
0000
0030
0048
0048
0030
0000
01FE
063E
0C1C
181C
383C
703C
707C
F0B8
F1F8
F378
FE78
FC78
787C
ENDCHAR
STARTCHAR AEacute
ENCODING 508
SWIDTH 958 0
DWIDTH 24 0
BBX 26 23 0 0
BITMAP
00007800
0000E000
0001C000
00030000
00000000
0003FFC0
0007C0C0
0007C080
000BC000
001BC000
00338000
00278000
00478600
00C7FE00
01878600
01070600
02070000
07FF0000
0C0F0000
180F0000
100E0300
301E0600
F87FFE00
ENDCHAR
STARTCHAR aeacute
ENCODING 509
SWIDTH 905 0
DWIDTH 23 0
BBX 21 18 2 0
BITMAP
000780
000E00
001C00
003000
000000
03FDF0
043E78
1C3C38
183C38
383878
703870
7079E0
F0FF80
F1F800
F37800
FE3808
FC3C38
780FC0
ENDCHAR
STARTCHAR Oslashacute
ENCODING 510
SWIDTH 831 0
DWIDTH 21 0
BBX 22 23 1 0
BITMAP
000780
000E00
001C00
003000
000000
003F8C
00C1F0
0380E0
0700F0
0E01F0
1E0378
1C0678
3C0C78
3C10F0
3C20F0
3C40F0
3C80E0
3D01E0
3E01C0
3C0380
1C0700
3E0C00
E7F000
ENDCHAR
STARTCHAR oslashacute
ENCODING 511
SWIDTH 599 0
DWIDTH 15 0
BBX 16 18 1 0
BITMAP
003C
0070
00E0
0180
0000
01FB
073E
0E1E
1C3E
3C7E
38DE
799E
7B1C
7E1C
7C38
7870
3CE0
DF80
ENDCHAR
STARTCHAR Scommaaccent
ENCODING 536
SWIDTH 587 0
DWIDTH 15 0
BBX 15 28 2 -10
BITMAP
01FC
070E
0E06
1C0C
1C00
1E00
1F00
1F80
0FE0
03F0
01F8
00F8
0078
0078
6078
C070
E0E0
7F80
0000
03C0
07C0
0780
0780
0380
0380
0300
0F00
0C00
ENDCHAR
STARTCHAR scommaaccent
ENCODING 537
SWIDTH 479 0
DWIDTH 12 0
BBX 12 23 1 -10
BITMAP
07E0
1C70
1C20
3C60
1E00
1F00
0F80
07C0
03C0
41C0
C1C0
E380
7F00
0000
0F00
1F00
1E00
1E00
0E00
0E00
0C00
3C00
3000
ENDCHAR
STARTCHAR Tcommaaccent
ENCODING 538
SWIDTH 716 0
DWIDTH 18 0
BBX 18 28 3 -10
BITMAP
7FFFC0
E1E0C0
C1E080
C1E180
03C000
03C000
03C000
03C000
03C000
038000
078000
078000
078000
078000
070000
0F0000
0F0000
7FC000
000000
03C000
07C000
078000
078000
038000
038000
030000
0F0000
0C0000
ENDCHAR
STARTCHAR tcommaaccent
ENCODING 539
SWIDTH 375 0
DWIDTH 9 0
BBX 9 27 2 -10
BITMAP
0C00
1C00
3C00
3C00
FF80
3C00
3800
3800
7800
7800
7800
7000
F000
F000
F000
7200
3C00
0000
3C00
7C00
7800
7800
3800
3800
3000
F000
C000
ENDCHAR
STARTCHAR uni021E
ENCODING 542
SWIDTH 827 0
DWIDTH 21 0
BBX 23 23 1 0
BITMAP
006180
003300
003E00
001C00
000000
1FF1FE
07C078
078078
0780F0
0780F0
0700F0
0F00F0
0F00E0
0FFFE0
0F01E0
0E01E0
1E01E0
1E01C0
1E03C0
1E03C0
3C03C0
3C07C0
FF1FF0
ENDCHAR
STARTCHAR uni021F
ENCODING 543
SWIDTH 656 0
DWIDTH 16 0
BBX 14 23 2 0
BITMAP
30C0
1980
1F00
0E00
0000
3E00
1E00
1E00
1E00
1C00
1C38
3CFC
3DFC
3DBC
3A3C
3E38
7C38
7878
7878
7078
7070
F070
F0FC
ENDCHAR
STARTCHAR uni0226
ENCODING 550
SWIDTH 765 0
DWIDTH 19 0
BBX 19 22 0 0
BITMAP
001C00
003C00
003800
000000
000C00
001C00
001C00
003E00
007E00
005E00
00CE00
018E00
010F00
030F00
020F00
060700
0FFF80
080780
180780
100380
3003C0
F80FE0
ENDCHAR
STARTCHAR uni0227
ENCODING 551
SWIDTH 634 0
DWIDTH 16 0
BBX 15 17 2 0
BITMAP
0070
00F0
00E0
0000
01FE
063E
0C1C
181C
383C
703C
707C
F0B8
F1F8
F378
FE78
FC78
787C
ENDCHAR
STARTCHAR uni0228
ENCODING 552
SWIDTH 630 0
DWIDTH 16 0
BBX 17 23 1 -5
BITMAP
1FFF80
078180
078100
078000
078000
0F0000
0F0000
0F0C00
0FF800
0E0800
1E0000
1E0000
1E0000
1E0000
1C0000
3C0600
3C0C00
FFFC00
018000
030000
00C000
00C000
078000
ENDCHAR
STARTCHAR uni0229
ENCODING 553
SWIDTH 548 0
DWIDTH 14 0
BBX 12 18 2 -5
BITMAP
03E0
0CF0
1870
3870
7070
70E0
F3C0
FF00
F000
F000
F010
7870
3F80
0600
0C00
0300
0300
1E00
ENDCHAR
STARTCHAR uni022A
ENCODING 554
SWIDTH 831 0
DWIDTH 21 0
BBX 19 24 3 0
BITMAP
01FE00
000000
00E700
00E700
00E700
000000
00FE00
038780
0703C0
1E01C0
1C01E0
3801E0
7801E0
7801E0
F001E0
F001E0
F003C0
F003C0
F00380
F00700
700E00
781C00
3C3800
0FC000
ENDCHAR
STARTCHAR uni022B
ENCODING 555
SWIDTH 599 0
DWIDTH 15 0
BBX 14 19 2 0
BITMAP
0FF0
0000
0738
0738
0738
0000
03E0
0E38
1C38
383C
783C
703C
F03C
F038
F078
F070
F0E0
79C0
3F00
ENDCHAR
STARTCHAR uni022C
ENCODING 556
SWIDTH 831 0
DWIDTH 21 0
BBX 19 24 3 0
BITMAP
01FE00
000000
007100
00FE00
011C00
000000
00FE00
038780
0703C0
1E01C0
1C01E0
3801E0
7801E0
7801E0
F001E0
F001E0
F003C0
F003C0
F00380
F00700
700E00
781C00
3C3800
0FC000
ENDCHAR
STARTCHAR uni022D
ENCODING 557
SWIDTH 599 0
DWIDTH 15 0
BBX 14 19 2 0
BITMAP
07F8
0000
01C4
03F8
0470
0000
03E0
0E38
1C38
383C
783C
703C
F03C
F038
F078
F070
F0E0
79C0
3F00
ENDCHAR
STARTCHAR uni022E
ENCODING 558
SWIDTH 831 0
DWIDTH 21 0
BBX 19 22 3 0
BITMAP
003800
007800
007000
000000
00FE00
038780
0703C0
1E01C0
1C01E0
3801E0
7801E0
7801E0
F001E0
F001E0
F003C0
F003C0
F00380
F00700
700E00
781C00
3C3800
0FC000
ENDCHAR
STARTCHAR uni022F
ENCODING 559
SWIDTH 599 0
DWIDTH 15 0
BBX 14 17 2 0
BITMAP
01C0
03C0
0380
0000
03E0
0E38
1C38
383C
783C
703C
F03C
F038
F078
F070
F0E0
79C0
3F00
ENDCHAR
STARTCHAR uni0230
ENCODING 560
SWIDTH 831 0
DWIDTH 21 0
BBX 19 24 3 0
BITMAP
01FE00
000000
003800
007800
007000
000000
00FE00
038780
0703C0
1E01C0
1C01E0
3801E0
7801E0
7801E0
F001E0
F001E0
F003C0
F003C0
F00380
F00700
700E00
781C00
3C3800
0FC000
ENDCHAR
STARTCHAR uni0231
ENCODING 561
SWIDTH 599 0
DWIDTH 15 0
BBX 14 19 2 0
BITMAP
0FF0
0000
01C0
03C0
0380
0000
03E0
0E38
1C38
383C
783C
703C
F03C
F038
F078
F070
F0E0
79C0
3F00
ENDCHAR
STARTCHAR uni0232
ENCODING 562
SWIDTH 669 0
DWIDTH 17 0
BBX 17 20 3 0
BITMAP
0FF000
000000
FE0F80
7C0600
3C0400
3C0C00
1C1800
1E3000
1E2000
0F6000
0FC000
078000
070000
0F0000
0F0000
0F0000
0F0000
0E0000
1E0000
7F8000
ENDCHAR
STARTCHAR uni0233
ENCODING 563
SWIDTH 586 0
DWIDTH 15 0
BBX 17 20 0 -5
BITMAP
07F800
000000
3F0780
0F0380
0F0380
078300
078600
078600
038C00
039800
03B000
03E000
03C000
01C000
018000
030000
060000
0C0000
180000
F80000
ENDCHAR
STARTCHAR uni0250
ENCODING 592
SWIDTH 634 0
DWIDTH 16 0
BBX 15 13 2 0
BITMAP
7C3C
3C7E
3CFE
3D9E
3F1E
3A1E
7C1C
781C
7838
7030
7060
F8C0
FF00
ENDCHAR
STARTCHAR uni0259
ENCODING 601
SWIDTH 548 0
DWIDTH 14 0
BBX 12 13 2 0
BITMAP
1FC0
E1E0
80F0
00F0
00F0
0FF0
3CF0
70E0
E0E0
E1C0
E180
F300
7C00
ENDCHAR
STARTCHAR uni025F
ENCODING 607
SWIDTH 415 0
DWIDTH 10 0
BBX 14 25 1 -12
BITMAP
003C
003C
0038
0038
0078
0078
0078
0070
0070
00F0
00F0
00F0
00E0
00E0
01E0
01E0
01E0
1FF0
03C0
03C0
4380
4380
C300
C600
FC00
ENDCHAR
STARTCHAR uni0265
ENCODING 613
SWIDTH 656 0
DWIDTH 16 0
BBX 14 18 2 -5
BITMAP
FC3C
383C
3838
7838
7878
7878
70F8
71F0
F170
F6F0
FEF0
FCF0
70E0
00E0
01E0
01E0
01E0
01F0
ENDCHAR
STARTCHAR uni0275
ENCODING 629
SWIDTH 599 0
DWIDTH 15 0
BBX 14 13 2 0
BITMAP
03E0
0E38
1C38
383C
783C
703C
FFFC
F038
F078
F070
F0E0
79C0
3F00
ENDCHAR
STARTCHAR uni0279
ENCODING 633
SWIDTH 496 0
DWIDTH 12 0
BBX 13 13 2 0
BITMAP
0078
0078
0070
0070
00F0
00F0
01F0
03E0
03E0
0DE0
79E0
71E0
E1F0
ENDCHAR
STARTCHAR uni0287
ENCODING 647
SWIDTH 375 0
DWIDTH 9 0
BBX 9 17 2 0
BITMAP
1E00
2700
0780
0780
0780
0700
0F00
0F00
0F00
0E00
0E00
1E00
FF80
1E00
1E00
1C00
1800
ENDCHAR
STARTCHAR uni0289
ENCODING 649
SWIDTH 655 0
DWIDTH 16 0
BBX 14 13 3 0
BITMAP
FCFC
383C
3838
7838
7878
7878
FFFC
70F0
F170
F370
FEF0
FCF0
70FC
ENDCHAR
STARTCHAR uni028C
ENCODING 652
SWIDTH 584 0
DWIDTH 15 0
BBX 15 13 2 0
BITMAP
0060
00E0
01E0
03E0
06E0
0CF0
18F0
18F0
3070
6078
E078
E03C
F83E
ENDCHAR
STARTCHAR uni028D
ENCODING 653
SWIDTH 822 0
DWIDTH 21 0
BBX 20 13 2 0
BITMAP
008180
018180
038380
038780
05CF80
0DCB80
09D380
11D380
31E3C0
60E3C0
60E1C0
E0C1E0
F041F0
ENDCHAR
STARTCHAR uni028E
ENCODING 654
SWIDTH 586 0
DWIDTH 15 0
BBX 17 18 0 0
BITMAP
000F80
000C00
001800
003000
006000
00C000
01C000
01E000
03E000
06E000
0CE000
18E000
30F000
30F000
60F000
E07800
E07800
F07E00
ENDCHAR
STARTCHAR uni029E
ENCODING 670
SWIDTH 626 0
DWIDTH 16 0
BBX 14 18 2 -5
BITMAP
F83C
7C3C
3C38
1E38
0F78
0F78
0778
07F0
1E70
38F0
70F0
F0F0
F0E0
01E0
01E0
01E0
01E0
03F0
ENDCHAR
STARTCHAR uni02BB
ENCODING 699
SWIDTH 265 0
DWIDTH 7 0
BBX 6 7 3 11
BITMAP
1C
30
70
70
78
F8
F0
ENDCHAR
STARTCHAR afii57929
ENCODING 700
SWIDTH 265 0
DWIDTH 7 0
BBX 6 7 3 11
BITMAP
3C
7C
78
38
38
30
E0
ENDCHAR
STARTCHAR afii64937
ENCODING 701
SWIDTH 265 0
DWIDTH 7 0
BBX 6 7 3 11
BITMAP
F0
F8
78
70
70
30
1C
ENDCHAR
STARTCHAR circumflex
ENCODING 710
SWIDTH 599 0
DWIDTH 15 0
BBX 8 4 7 14
BITMAP
1C
3E
76
C3
ENDCHAR
STARTCHAR caron
ENCODING 711
SWIDTH 599 0
DWIDTH 15 0
BBX 8 4 8 14
BITMAP
C3
66
7C
38
ENDCHAR
STARTCHAR uni02C8
ENCODING 712
SWIDTH 247 0
DWIDTH 6 0
BBX 4 7 4 11
BITMAP
F0
F0
E0
60
60
60
60
ENDCHAR
STARTCHAR macron
ENCODING 713
SWIDTH 599 0
DWIDTH 15 0
BBX 8 1 7 17
BITMAP
FF
ENDCHAR
STARTCHAR uni02CA
ENCODING 714
SWIDTH 599 0
DWIDTH 15 0
BBX 7 4 9 14
BITMAP
1E
38
70
C0
ENDCHAR
STARTCHAR uni02CB
ENCODING 715
SWIDTH 599 0
DWIDTH 15 0
BBX 5 4 8 14
BITMAP
E0
70
30
18
ENDCHAR
STARTCHAR uni02CD
ENCODING 717
SWIDTH 599 0
DWIDTH 15 0
BBX 8 1 7 -2
BITMAP
FF
ENDCHAR
STARTCHAR uni02CE
ENCODING 718
SWIDTH 599 0
DWIDTH 15 0
BBX 5 4 8 -5
BITMAP
E0
70
30
18
ENDCHAR
STARTCHAR uni02CF
ENCODING 719
SWIDTH 599 0
DWIDTH 15 0
BBX 7 4 9 -5
BITMAP
1E
38
70
C0
ENDCHAR
STARTCHAR breve
ENCODING 728
SWIDTH 599 0
DWIDTH 15 0
BBX 9 4 7 14
BITMAP
8180
E300
7E00
3C00
ENDCHAR
STARTCHAR dotaccent
ENCODING 729
SWIDTH 599 0
DWIDTH 15 0
BBX 4 3 9 15
BITMAP
70
F0
E0
ENDCHAR
STARTCHAR ring
ENCODING 730
SWIDTH 599 0
DWIDTH 15 0
BBX 4 4 9 16
BITMAP
60
90
90
60
ENDCHAR
STARTCHAR ogonek
ENCODING 731
SWIDTH 599 0
DWIDTH 15 0
BBX 4 4 5 -4
BITMAP
60
C0
D0
70
ENDCHAR
STARTCHAR tilde
ENCODING 732
SWIDTH 599 0
DWIDTH 15 0
BBX 9 3 7 15
BITMAP
3880
7F00
8E00
ENDCHAR
STARTCHAR hungarumlaut
ENCODING 733
SWIDTH 599 0
DWIDTH 15 0
BBX 9 4 8 14
BITMAP
1F80
3600
6400
D800
ENDCHAR
STARTCHAR uni02EE
ENCODING 750
SWIDTH 464 0
DWIDTH 12 0
BBX 11 7 3 11
BITMAP
39E0
79E0
7BC0
38C0
30C0
7180
E300
ENDCHAR
STARTCHAR uni037E
ENCODING 894
SWIDTH 265 0
DWIDTH 6 0
BBX 7 18 1 -5
BITMAP
1E
1E
1E
1C
00
00
00
00
00
00
00
78
78
38
30
30
70
C0
ENDCHAR
STARTCHAR tonos
ENCODING 900
SWIDTH 599 0
DWIDTH 15 0
BBX 7 4 9 14
BITMAP
1E
38
70
C0
ENDCHAR
STARTCHAR dieresistonos
ENCODING 901
SWIDTH 599 0
DWIDTH 15 0
BBX 9 8 7 15
BITMAP
0780
0E00
1C00
3000
0000
E700
E700
E700
ENDCHAR
STARTCHAR anoteleia
ENCODING 903
SWIDTH 636 0
DWIDTH 16 0
BBX 4 3 7 6
BITMAP
70
F0
E0
ENDCHAR
STARTCHAR mu
ENCODING 956
SWIDTH 687 0
DWIDTH 17 0
BBX 15 17 2 -4
BITMAP
7E7E
1C1E
1C1E
1C1C
3C1C
3C3C
383C
387C
38F8
79B8
7F78
7F78
7C7E
7000
F000
F000
F000
ENDCHAR
STARTCHAR uni1E00
ENCODING 7680
SWIDTH 765 0
DWIDTH 19 0
BBX 19 23 0 -5
BITMAP
000C00
001C00
001C00
003E00
007E00
005E00
00CE00
018E00
010F00
030F00
020F00
060700
0FFF80
080780
180780
100380
3003C0
F80FE0
000000
003000
004800
004800
003000
ENDCHAR
STARTCHAR uni1E01
ENCODING 7681
SWIDTH 634 0
DWIDTH 16 0
BBX 15 18 2 -5
BITMAP
01FE
063E
0C1C
181C
383C
703C
707C
F0B8
F1F8
F378
FE78
FC78
787C
0000
0300
0480
0480
0300
ENDCHAR
STARTCHAR uni1E02
ENCODING 7682
SWIDTH 651 0
DWIDTH 16 0
BBX 16 22 1 0
BITMAP
0070
00F0
00E0
0000
1FFC
070F
070F
070F
070F
0F0E
0E1E
0E3C
0FF0
0E38
1E1C
1C1E
1C1E
1C1E
1C1E
3C3C
3C78
FFF0
ENDCHAR
STARTCHAR uni1E03
ENCODING 7683
SWIDTH 633 0
DWIDTH 16 0
BBX 15 22 2 0
BITMAP
0700
0F00
0E00
0000
3F00
1E00
1E00
1E00
1E00
1C3C
1C7E
3CFE
3D9E
3F1E
3A1E
7C1C
781C
7838
7030
7060
F8C0
FF00
ENDCHAR
STARTCHAR uni1E04
ENCODING 7684
SWIDTH 651 0
DWIDTH 16 0
BBX 16 22 1 -4
BITMAP
1FFC
070F
070F
070F
070F
0F0E
0E1E
0E3C
0FF0
0E38
1E1C
1C1E
1C1E
1C1E
1C1E
3C3C
3C78
FFF0
0000
01C0
03C0
0380
ENDCHAR
STARTCHAR uni1E05
ENCODING 7685
SWIDTH 633 0
DWIDTH 16 0
BBX 15 22 2 -4
BITMAP
3F00
1E00
1E00
1E00
1E00
1C3C
1C7E
3CFE
3D9E
3F1E
3A1E
7C1C
781C
7838
7030
7060
F8C0
FF00
0000
0700
0F00
0E00
ENDCHAR
STARTCHAR uni1E06
ENCODING 7686
SWIDTH 651 0
DWIDTH 16 0
BBX 16 20 1 -2
BITMAP
1FFC
070F
070F
070F
070F
0F0E
0E1E
0E3C
0FF0
0E38
1E1C
1C1E
1C1E
1C1E
1C1E
3C3C
3C78
FFF0
0000
0FF0
ENDCHAR
STARTCHAR uni1E07
ENCODING 7687
SWIDTH 633 0
DWIDTH 16 0
BBX 15 20 2 -2
BITMAP
3F00
1E00
1E00
1E00
1E00
1C3C
1C7E
3CFE
3D9E
3F1E
3A1E
7C1C
781C
7838
7030
7060
F8C0
FF00
0000
3FC0
ENDCHAR
STARTCHAR uni1E08
ENCODING 7688
SWIDTH 740 0
DWIDTH 18 0
BBX 17 28 3 -5
BITMAP
003C00
007000
00E000
018000
000000
00FF00
038780
0E0180
1E0100
1C0300
380000
780000
780000
F00000
F00000
F00000
F00000
F00000
F00000
780000
780000
3E0C00
0FF000
060000
0C0000
030000
030000
1E0000
ENDCHAR
STARTCHAR uni1E09
ENCODING 7689
SWIDTH 524 0
DWIDTH 13 0
BBX 13 23 2 -5
BITMAP
01E0
0380
0700
0C00
0000
03F0
0E38
1C30
3830
7800
7000
F000
F000
F000
F000
F000
7820
3FC0
1800
3000
0C00
0C00
7800
ENDCHAR
STARTCHAR uni1E0A
ENCODING 7690
SWIDTH 822 0
DWIDTH 21 0
BBX 20 22 1 0
BITMAP
003800
007800
007000
000000
1FFF00
0787C0
0781E0
0700E0
0700F0
0F00F0
0F00F0
0F00F0
0E00F0
0E00F0
1E00E0
1E01E0
1E01C0
1E03C0
1C0380
3C0700
3C1E00
FFF800
ENDCHAR
STARTCHAR uni1E0B
ENCODING 7691
SWIDTH 634 0
DWIDTH 16 0
BBX 16 22 2 0
BITMAP
001C
003C
0038
0000
003F
000F
000E
000E
001E
01FE
063E
0C1C
183C
383C
703C
7078
F0B8
F1F8
F378
FE78
FC78
78FC
ENDCHAR
STARTCHAR uni1E0C
ENCODING 7692
SWIDTH 822 0
DWIDTH 21 0
BBX 20 22 1 -4
BITMAP
1FFF00
0787C0
0781E0
0700E0
0700F0
0F00F0
0F00F0
0F00F0
0E00F0
0E00F0
1E00E0
1E01E0
1E01C0
1E03C0
1C0380
3C0700
3C1E00
FFF800
000000
00E000
01E000
01C000
ENDCHAR
STARTCHAR uni1E0D
ENCODING 7693
SWIDTH 634 0
DWIDTH 16 0
BBX 16 22 2 -4
BITMAP
003F
000F
000E
000E
001E
01FE
063E
0C1C
183C
383C
703C
7078
F0B8
F1F8
F378
FE78
FC78
78FC
0000
0380
0780
0700
ENDCHAR
STARTCHAR uni1E0E
ENCODING 7694
SWIDTH 822 0
DWIDTH 21 0
BBX 20 20 1 -2
BITMAP
1FFF00
0787C0
0781E0
0700E0
0700F0
0F00F0
0F00F0
0F00F0
0E00F0
0E00F0
1E00E0
1E01E0
1E01C0
1E03C0
1C0380
3C0700
3C1E00
FFF800
000000
07F800
ENDCHAR
STARTCHAR uni1E0F
ENCODING 7695
SWIDTH 634 0
DWIDTH 16 0
BBX 16 20 2 -2
BITMAP
003F
000F
000E
000E
001E
01FE
063E
0C1C
183C
383C
703C
7078
F0B8
F1F8
F378
FE78
FC78
78FC
0000
1FE0
ENDCHAR
STARTCHAR uni1E10
ENCODING 7696
SWIDTH 822 0
DWIDTH 21 0
BBX 20 23 1 -5
BITMAP
1FFF00
0787C0
0781E0
0700E0
0700F0
0F00F0
0F00F0
0F00F0
0E00F0
0E00F0
1E00E0
1E01E0
1E01C0
1E03C0
1C0380
3C0700
3C1E00
FFF800
00C000
018000
006000
006000
03C000
ENDCHAR
STARTCHAR uni1E11
ENCODING 7697
SWIDTH 634 0
DWIDTH 16 0
BBX 16 23 2 -5
BITMAP
003F
000F
000E
000E
001E
01FE
063E
0C1C
183C
383C
703C
7078
F0B8
F1F8
F378
FE78
FC78
78FC
0180
0300
00C0
00C0
0780
ENDCHAR
STARTCHAR uni1E12
ENCODING 7698
SWIDTH 822 0
DWIDTH 21 0
BBX 20 23 1 -5
BITMAP
1FFF00
0787C0
0781E0
0700E0
0700F0
0F00F0
0F00F0
0F00F0
0E00F0
0E00F0
1E00E0
1E01E0
1E01C0
1E03C0
1C0380
3C0700
3C1E00
FFF800
000000
00E000
01F000
03B000
061800
ENDCHAR
STARTCHAR uni1E13
ENCODING 7699
SWIDTH 634 0
DWIDTH 16 0
BBX 16 23 2 -5
BITMAP
003F
000F
000E
000E
001E
01FE
063E
0C1C
183C
383C
703C
7078
F0B8
F1F8
F378
FE78
FC78
78FC
0000
0380
07C0
0EC0
1860
ENDCHAR
STARTCHAR uni1E14
ENCODING 7700
SWIDTH 630 0
DWIDTH 16 0
BBX 17 25 1 0
BITMAP
038000
01C000
00C000
006000
000000
07F800
000000
1FFF80
078180
078100
078000
078000
0F0000
0F0000
0F0C00
0FF800
0E0800
1E0000
1E0000
1E0000
1E0000
1C0000
3C0600
3C0C00
FFFC00
ENDCHAR
STARTCHAR uni1E15
ENCODING 7701
SWIDTH 548 0
DWIDTH 14 0
BBX 12 20 2 0
BITMAP
0E00
0700
0300
0180
0000
1FE0
0000
03E0
0CF0
1870
3870
7070
70E0
F3C0
FF00
F000
F000
F010
7870
3F80
ENDCHAR
STARTCHAR uni1E16
ENCODING 7702
SWIDTH 630 0
DWIDTH 16 0
BBX 17 25 1 0
BITMAP
003C00
007000
00E000
018000
000000
07F800
000000
1FFF80
078180
078100
078000
078000
0F0000
0F0000
0F0C00
0FF800
0E0800
1E0000
1E0000
1E0000
1E0000
1C0000
3C0600
3C0C00
FFFC00
ENDCHAR
STARTCHAR uni1E17
ENCODING 7703
SWIDTH 548 0
DWIDTH 14 0
BBX 12 20 2 0
BITMAP
00F0
01C0
0380
0600
0000
1FE0
0000
03E0
0CF0
1870
3870
7070
70E0
F3C0
FF00
F000
F000
F010
7870
3F80
ENDCHAR
STARTCHAR uni1E18
ENCODING 7704
SWIDTH 630 0
DWIDTH 16 0
BBX 17 23 1 -5
BITMAP
1FFF80
078180
078100
078000
078000
0F0000
0F0000
0F0C00
0FF800
0E0800
1E0000
1E0000
1E0000
1E0000
1C0000
3C0600
3C0C00
FFFC00
000000
038000
07C000
0EC000
186000
ENDCHAR
STARTCHAR uni1E19
ENCODING 7705
SWIDTH 548 0
DWIDTH 14 0
BBX 12 18 2 -5
BITMAP
03E0
0CF0
1870
3870
7070
70E0
F3C0
FF00
F000
F000
F010
7870
3F80
0000
0E00
1F00
3B00
6180
ENDCHAR
STARTCHAR uni1E1A
ENCODING 7706
SWIDTH 630 0
DWIDTH 16 0
BBX 17 22 1 -4
BITMAP
1FFF80
078180
078100
078000
078000
0F0000
0F0000
0F0C00
0FF800
0E0800
1E0000
1E0000
1E0000
1E0000
1C0000
3C0600
3C0C00
FFFC00
000000
071000
0FE000
11C000
ENDCHAR
STARTCHAR uni1E1B
ENCODING 7707
SWIDTH 548 0
DWIDTH 14 0
BBX 12 17 2 -4
BITMAP
03E0
0CF0
1870
3870
7070
70E0
F3C0
FF00
F000
F000
F010
7870
3F80
0000
1C40
3F80
4700
ENDCHAR
STARTCHAR uni1E1C
ENCODING 7708
SWIDTH 630 0
DWIDTH 16 0
BBX 17 28 1 -5
BITMAP
081800
0E3000
07E000
03C000
000000
1FFF80
078180
078100
078000
078000
0F0000
0F0000
0F0C00
0FF800
0E0800
1E0000
1E0000
1E0000
1E0000
1C0000
3C0600
3C0C00
FFFC00
018000
030000
00C000
00C000
078000
ENDCHAR
STARTCHAR uni1E1D
ENCODING 7709
SWIDTH 548 0
DWIDTH 14 0
BBX 12 23 2 -5
BITMAP
1030
1C60
0FC0
0780
0000
03E0
0CF0
1870
3870
7070
70E0
F3C0
FF00
F000
F000
F010
7870
3F80
0600
0C00
0300
0300
1E00
ENDCHAR
STARTCHAR uni1E1E
ENCODING 7710
SWIDTH 602 0
DWIDTH 15 0
BBX 17 22 1 0
BITMAP
00E000
01E000
01C000
000000
1FFF80
078180
078300
078000
070000
070000
0F0000
0F0C00
0FF800
0E0800
0E0000
1E0000
1E0000
1E0000
1C0000
3C0000
3C0000
FF0000
ENDCHAR
STARTCHAR uni1E1F
ENCODING 7711
SWIDTH 415 0
DWIDTH 10 0
BBX 14 29 1 -5
BITMAP
01C0
03C0
0380
0000
00FC
018C
030C
0708
0708
0F00
0F00
3FE0
1E00
1E00
1E00
1C00
1C00
3C00
3C00
3C00
3800
3800
7800
7800
7800
7000
7000
F000
F000
ENDCHAR
STARTCHAR uni1E20
ENCODING 7712
SWIDTH 780 0
DWIDTH 19 0
BBX 17 20 3 0
BITMAP
03FC00
000000
00FF80
038380
0F0180
1E0300
1C0000
380000
780000
780000
F00000
F00000
F03F80
F01E00
F01E00
F01C00
781C00
781C00
3C3C00
0FF000
ENDCHAR
STARTCHAR uni1E21
ENCODING 7713
SWIDTH 628 0
DWIDTH 16 0
BBX 15 20 1 -5
BITMAP
07F8
0000
01FE
061E
0C1E
1C1C
181C
383C
787C
787C
78B8
79B8
7F78
7E78
3870
0070
80F0
C0E0
71C0
7F00
ENDCHAR
STARTCHAR uni1E22
ENCODING 7714
SWIDTH 827 0
DWIDTH 21 0
BBX 23 22 1 0
BITMAP
000E00
001E00
001C00
000000
1FF1FE
07C078
078078
0780F0
0780F0
0700F0
0F00F0
0F00E0
0FFFE0
0F01E0
0E01E0
1E01E0
1E01C0
1E03C0
1E03C0
3C03C0
3C07C0
FF1FF0
ENDCHAR
STARTCHAR uni1E23
ENCODING 7715
SWIDTH 656 0
DWIDTH 16 0
BBX 14 22 2 0
BITMAP
0700
0F00
0E00
0000
3E00
1E00
1E00
1E00
1C00
1C38
3CFC
3DFC
3DBC
3A3C
3E38
7C38
7878
7878
7078
7070
F070
F0FC
ENDCHAR
STARTCHAR uni1E24
ENCODING 7716
SWIDTH 827 0
DWIDTH 21 0
BBX 23 22 1 -4
BITMAP
1FF1FE
07C078
078078
0780F0
0780F0
0700F0
0F00F0
0F00E0
0FFFE0
0F01E0
0E01E0
1E01E0
1E01C0
1E03C0
1E03C0
3C03C0
3C07C0
FF1FF0
000000
007000
00F000
00E000
ENDCHAR
STARTCHAR uni1E25
ENCODING 7717
SWIDTH 656 0
DWIDTH 16 0
BBX 14 22 2 -4
BITMAP
3E00
1E00
1E00
1E00
1C00
1C38
3CFC
3DFC
3DBC
3A3C
3E38
7C38
7878
7878
7078
7070
F070
F0FC
0000
0380
0780
0700
ENDCHAR
STARTCHAR uni1E26
ENCODING 7718
SWIDTH 827 0
DWIDTH 21 0
BBX 23 22 1 0
BITMAP
00E700
00E700
00E700
000000
1FF1FE
07C078
078078
0780F0
0780F0
0700F0
0F00F0
0F00E0
0FFFE0
0F01E0
0E01E0
1E01E0
1E01C0
1E03C0
1E03C0
3C03C0
3C07C0
FF1FF0
ENDCHAR
STARTCHAR uni1E27
ENCODING 7719
SWIDTH 656 0
DWIDTH 16 0
BBX 14 22 2 0
BITMAP
39C0
39C0
39C0
0000
3E00
1E00
1E00
1E00
1C00
1C38
3CFC
3DFC
3DBC
3A3C
3E38
7C38
7878
7878
7078
7070
F070
F0FC
ENDCHAR
STARTCHAR uni1E28
ENCODING 7720
SWIDTH 827 0
DWIDTH 21 0
BBX 23 23 1 -5
BITMAP
1FF1FE
07C078
078078
0780F0
0780F0
0700F0
0F00F0
0F00E0
0FFFE0
0F01E0
0E01E0
1E01E0
1E01C0
1E03C0
1E03C0
3C03C0
3C07C0
FF1FF0
003000
006000
001800
001800
00F000
ENDCHAR
STARTCHAR uni1E29
ENCODING 7721
SWIDTH 656 0
DWIDTH 16 0
BBX 14 23 2 -5
BITMAP
3E00
1E00
1E00
1E00
1C00
1C38
3CFC
3DFC
3DBC
3A3C
3E38
7C38
7878
7878
7078
7070
F070
F0FC
0300
0600
0180
0180
0F00
ENDCHAR
STARTCHAR uni1E2A
ENCODING 7722
SWIDTH 827 0
DWIDTH 21 0
BBX 23 23 1 -5
BITMAP
1FF1FE
07C078
078078
0780F0
0780F0
0700F0
0F00F0
0F00E0
0FFFE0
0F01E0
0E01E0
1E01E0
1E01C0
1E03C0
1E03C0
3C03C0
3C07C0
FF1FF0
000000
020600
038C00
01F800
00F000
ENDCHAR
STARTCHAR uni1E2B
ENCODING 7723
SWIDTH 656 0
DWIDTH 16 0
BBX 14 23 2 -5
BITMAP
3E00
1E00
1E00
1E00
1C00
1C38
3CFC
3DFC
3DBC
3A3C
3E38
7C38
7878
7878
7078
7070
F070
F0FC
0000
2060
38C0
1F80
0F00
ENDCHAR
STARTCHAR uni1E2C
ENCODING 7724
SWIDTH 372 0
DWIDTH 9 0
BBX 11 22 1 -4
BITMAP
1FE0
0780
0780
0700
0F00
0F00
0F00
0F00
0E00
0E00
1E00
1E00
1E00
1C00
1C00
3C00
3C00
FF00
0000
3880
7F00
8E00
ENDCHAR
STARTCHAR uni1E2D
ENCODING 7725
SWIDTH 319 0
DWIDTH 8 0
BBX 9 22 0 -4
BITMAP
0780
0780
0700
0000
0000
3F00
0F00
0F00
0E00
0E00
1E00
1E00
1E00
1C00
1C00
3C00
3C00
3F00
0000
3880
7F00
8E00
ENDCHAR
STARTCHAR uni1E2E
ENCODING 7726
SWIDTH 372 0
DWIDTH 9 0
BBX 12 27 1 0
BITMAP
00F0
01C0
0380
0600
0000
0E70
0E70
0E70
0000
1FE0
0780
0780
0700
0F00
0F00
0F00
0F00
0E00
0E00
1E00
1E00
1E00
1C00
1C00
3C00
3C00
FF00
ENDCHAR
STARTCHAR uni1E2F
ENCODING 7727
SWIDTH 319 0
DWIDTH 8 0
BBX 9 22 2 0
BITMAP
0780
0E00
1C00
3000
0000
7380
7380
7380
0000
FC00
3C00
3C00
3800
3800
7800
7800
7800
7000
7000
F000
F000
FC00
ENDCHAR
STARTCHAR uni1E30
ENCODING 7728
SWIDTH 746 0
DWIDTH 19 0
BBX 19 23 1 0
BITMAP
003C00
007000
00E000
018000
000000
1FE3E0
078180
070300
070600
070C00
0F1000
0F6000
0EC000
0FE000
0FE000
1EF000
1EF800
1C7C00
1C3C00
1C3E00
3C1F00
3C0F00
FE3FC0
ENDCHAR
STARTCHAR uni1E31
ENCODING 7729
SWIDTH 626 0
DWIDTH 16 0
BBX 14 23 2 0
BITMAP
03C0
0700
0E00
1800
0000
3F00
1E00
1E00
1E00
1E00
1C3C
3C3C
3C38
3C70
39E0
3F80
7B80
7BC0
7BC0
71E0
70F0
F0F8
F07C
ENDCHAR
STARTCHAR uni1E32
ENCODING 7730
SWIDTH 746 0
DWIDTH 19 0
BBX 19 22 1 -4
BITMAP
1FE3E0
078180
070300
070600
070C00
0F1000
0F6000
0EC000
0FE000
0FE000
1EF000
1EF800
1C7C00
1C3C00
1C3E00
3C1F00
3C0F00
FE3FC0
000000
00E000
01E000
01C000
ENDCHAR
STARTCHAR uni1E33
ENCODING 7731
SWIDTH 626 0
DWIDTH 16 0
BBX 14 22 2 -4
BITMAP
3F00
1E00
1E00
1E00
1E00
1C3C
3C3C
3C38
3C70
39E0
3F80
7B80
7BC0
7BC0
71E0
70F0
F0F8
F07C
0000
0700
0F00
0E00
ENDCHAR
STARTCHAR uni1E34
ENCODING 7732
SWIDTH 746 0
DWIDTH 19 0
BBX 19 20 1 -2
BITMAP
1FE3E0
078180
070300
070600
070C00
0F1000
0F6000
0EC000
0FE000
0FE000
1EF000
1EF800
1C7C00
1C3C00
1C3E00
3C1F00
3C0F00
FE3FC0
000000
07F800
ENDCHAR
STARTCHAR uni1E35
ENCODING 7733
SWIDTH 626 0
DWIDTH 16 0
BBX 14 20 2 -2
BITMAP
3F00
1E00
1E00
1E00
1E00
1C3C
3C3C
3C38
3C70
39E0
3F80
7B80
7BC0
7BC0
71E0
70F0
F0F8
F07C
0000
1FE0
ENDCHAR
STARTCHAR uni1E36
ENCODING 7734
SWIDTH 611 0
DWIDTH 15 0
BBX 15 22 1 -4
BITMAP
1FF0
07C0
0780
0780
0780
0700
0F00
0F00
0F00
0F00
0E00
1E00
1E00
1E00
1E06
3C06
3C0C
FFFC
0000
0380
0780
0700
ENDCHAR
STARTCHAR uni1E37
ENCODING 7735
SWIDTH 319 0
DWIDTH 8 0
BBX 7 22 2 -4
BITMAP
3E
1E
1E
1C
1C
3C
3C
3C
38
38
78
78
78
70
70
F0
F0
F8
00
70
F0
E0
ENDCHAR
STARTCHAR uni1E38
ENCODING 7736
SWIDTH 611 0
DWIDTH 15 0
BBX 15 24 1 -4
BITMAP
1FE0
0000
1FF0
07C0
0780
0780
0780
0700
0F00
0F00
0F00
0F00
0E00
1E00
1E00
1E00
1E06
3C06
3C0C
FFFC
0000
0380
0780
0700
ENDCHAR
STARTCHAR uni1E39
ENCODING 7737
SWIDTH 319 0
DWIDTH 8 0
BBX 8 24 2 -4
BITMAP
FF
00
3E
1E
1E
1C
1C
3C
3C
3C
38
38
78
78
78
70
70
F0
F0
F8
00
70
F0
E0
ENDCHAR
STARTCHAR uni1E3A
ENCODING 7738
SWIDTH 611 0
DWIDTH 15 0
BBX 15 20 1 -2
BITMAP
1FF0
07C0
0780
0780
0780
0700
0F00
0F00
0F00
0F00
0E00
1E00
1E00
1E00
1E06
3C06
3C0C
FFFC
0000
1FE0
ENDCHAR
STARTCHAR uni1E3B
ENCODING 7739
SWIDTH 319 0
DWIDTH 8 0
BBX 8 20 1 -2
BITMAP
1F
0F
0F
0E
0E
1E
1E
1E
1C
1C
3C
3C
3C
38
38
78
78
7C
00
FF
ENDCHAR
STARTCHAR uni1E3C
ENCODING 7740
SWIDTH 611 0
DWIDTH 15 0
BBX 15 23 1 -5
BITMAP
1FF0
07C0
0780
0780
0780
0700
0F00
0F00
0F00
0F00
0E00
1E00
1E00
1E00
1E06
3C06
3C0C
FFFC
0000
0380
07C0
0EC0
1860
ENDCHAR
STARTCHAR uni1E3D
ENCODING 7741
SWIDTH 319 0
DWIDTH 8 0
BBX 9 23 0 -5
BITMAP
0F80
0780
0780
0700
0700
0F00
0F00
0F00
0E00
0E00
1E00
1E00
1E00
1C00
1C00
3C00
3C00
3E00
0000
1C00
3E00
7600
C300
ENDCHAR
STARTCHAR uni1E3E
ENCODING 7742
SWIDTH 926 0
DWIDTH 23 0
BBX 25 23 1 0
BITMAP
0003C000
00070000
000E0000
00180000
00000000
1F801F80
07801E00
07803E00
07C07C00
05C05C00
0DC0BC00
0DC1BC00
0CE13C00
0CE33800
08E23800
18E43800
187C7800
18787800
18707000
10707000
3020F000
3000F000
FC03FC00
ENDCHAR
STARTCHAR uni1E3F
ENCODING 7743
SWIDTH 969 0
DWIDTH 24 0
BBX 22 18 2 0
BITMAP
000F00
001C00
003800
006000
000000
FC3838
3CFCFC
3DFDFC
3B3D3C
3A3A3C
3C3E38
7C3C38
787838
707878
707078
707070
F07070
F0F0FC
ENDCHAR
STARTCHAR uni1E40
ENCODING 7744
SWIDTH 926 0
DWIDTH 23 0
BBX 25 22 1 0
BITMAP
00070000
000F0000
000E0000
00000000
1F801F80
07801E00
07803E00
07C07C00
05C05C00
0DC0BC00
0DC1BC00
0CE13C00
0CE33800
08E23800
18E43800
187C7800
18787800
18707000
10707000
3020F000
3000F000
FC03FC00
ENDCHAR
STARTCHAR uni1E41
ENCODING 7745
SWIDTH 969 0
DWIDTH 24 0
BBX 22 17 2 0
BITMAP
001C00
003C00
003800
000000
FC3838
3CFCFC
3DFDFC
3B3D3C
3A3A3C
3C3E38
7C3C38
787838
707878
707078
707070
F07070
F0F0FC
ENDCHAR
STARTCHAR uni1E42
ENCODING 7746
SWIDTH 926 0
DWIDTH 23 0
BBX 25 22 1 -4
BITMAP
1F801F80
07801E00
07803E00
07C07C00
05C05C00
0DC0BC00
0DC1BC00
0CE13C00
0CE33800
08E23800
18E43800
187C7800
18787800
18707000
10707000
3020F000
3000F000
FC03FC00
00000000
001C0000
003C0000
00380000
ENDCHAR
STARTCHAR uni1E43
ENCODING 7747
SWIDTH 969 0
DWIDTH 24 0
BBX 22 17 2 -4
BITMAP
FC3838
3CFCFC
3DFDFC
3B3D3C
3A3A3C
3C3E38
7C3C38
787838
707878
707078
707070
F07070
F0F0FC
000000
003800
007800
007000
ENDCHAR
STARTCHAR uni1E44
ENCODING 7748
SWIDTH 797 0
DWIDTH 20 0
BBX 22 22 1 0
BITMAP
003800
007800
007000
000000
1F80FC
078030
07C030
07C060
07E060
0DE060
0CF060
0CF060
0C78C0
0C78C0
183CC0
181CC0
181E80
180F80
180F80
300780
300780
FC0300
ENDCHAR
STARTCHAR uni1E45
ENCODING 7749
SWIDTH 656 0
DWIDTH 16 0
BBX 14 17 2 0
BITMAP
01C0
03C0
0380
0000
FC38
3CFC
3CFC
393C
3A3C
3C38
7C38
7878
7878
7078
7070
F070
F0FC
ENDCHAR
STARTCHAR uni1E46
ENCODING 7750
SWIDTH 797 0
DWIDTH 20 0
BBX 22 22 1 -4
BITMAP
1F80FC
078030
07C030
07C060
07E060
0DE060
0CF060
0CF060
0C78C0
0C78C0
183CC0
181CC0
181E80
180F80
180F80
300780
300780
FC0300
000000
007000
00F000
00E000
ENDCHAR
STARTCHAR uni1E47
ENCODING 7751
SWIDTH 656 0
DWIDTH 16 0
BBX 14 17 2 -4
BITMAP
FC38
3CFC
3CFC
393C
3A3C
3C38
7C38
7878
7878
7078
7070
F070
F0FC
0000
0380
0780
0700
ENDCHAR
STARTCHAR uni1E48
ENCODING 7752
SWIDTH 797 0
DWIDTH 20 0
BBX 22 20 1 -2
BITMAP
1F80FC
078030
07C030
07C060
07E060
0DE060
0CF060
0CF060
0C78C0
0C78C0
183CC0
181CC0
181E80
180F80
180F80
300780
300780
FC0300
000000
03FC00
ENDCHAR
STARTCHAR uni1E49
ENCODING 7753
SWIDTH 656 0
DWIDTH 16 0
BBX 14 15 2 -2
BITMAP
FC38
3CFC
3CFC
393C
3A3C
3C38
7C38
7878
7878
7078
7070
F070
F0FC
0000
1FE0
ENDCHAR
STARTCHAR uni1E4A
ENCODING 7754
SWIDTH 797 0
DWIDTH 20 0
BBX 22 23 1 -5
BITMAP
1F80FC
078030
07C030
07C060
07E060
0DE060
0CF060
0CF060
0C78C0
0C78C0
183CC0
181CC0
181E80
180F80
180F80
300780
300780
FC0300
000000
007000
00F800
01D800
030C00
ENDCHAR
STARTCHAR uni1E4B
ENCODING 7755
SWIDTH 656 0
DWIDTH 16 0
BBX 14 18 2 -5
BITMAP
FC38
3CFC
3CFC
393C
3A3C
3C38
7C38
7878
7878
7078
7070
F070
F0FC
0000
0380
07C0
0EC0
1860
ENDCHAR
STARTCHAR uni1E4C
ENCODING 7756
SWIDTH 831 0
DWIDTH 21 0
BBX 19 27 3 0
BITMAP
001E00
003800
007000
00C000
000000
007100
00FE00
011C00
000000
00FE00
038780
0703C0
1E01C0
1C01E0
3801E0
7801E0
7801E0
F001E0
F001E0
F003C0
F003C0
F00380
F00700
700E00
781C00
3C3800
0FC000
ENDCHAR
STARTCHAR uni1E4D
ENCODING 7757
SWIDTH 599 0
DWIDTH 15 0
BBX 14 22 2 0
BITMAP
0078
00E0
01C0
0300
0000
01C4
03F8
0470
0000
03E0
0E38
1C38
383C
783C
703C
F03C
F038
F078
F070
F0E0
79C0
3F00
ENDCHAR
STARTCHAR uni1E4E
ENCODING 7758
SWIDTH 831 0
DWIDTH 21 0
BBX 19 26 3 0
BITMAP
01CE00
01CE00
01CE00
000000
007100
00FE00
011C00
000000
00FE00
038780
0703C0
1E01C0
1C01E0
3801E0
7801E0
7801E0
F001E0
F001E0
F003C0
F003C0
F00380
F00700
700E00
781C00
3C3800
0FC000
ENDCHAR
STARTCHAR uni1E4F
ENCODING 7759
SWIDTH 599 0
DWIDTH 15 0
BBX 14 21 2 0
BITMAP
0738
0738
0738
0000
01C4
03F8
0470
0000
03E0
0E38
1C38
383C
783C
703C
F03C
F038
F078
F070
F0E0
79C0
3F00
ENDCHAR
STARTCHAR uni1E50
ENCODING 7760
SWIDTH 831 0
DWIDTH 21 0
BBX 19 25 3 0
BITMAP
01C000
00E000
006000
003000
000000
01FE00
000000
00FE00
038780
0703C0
1E01C0
1C01E0
3801E0
7801E0
7801E0
F001E0
F001E0
F003C0
F003C0
F00380
F00700
700E00
781C00
3C3800
0FC000
ENDCHAR
STARTCHAR uni1E51
ENCODING 7761
SWIDTH 599 0
DWIDTH 15 0
BBX 14 20 2 0
BITMAP
0700
0380
0180
00C0
0000
0FF0
0000
03E0
0E38
1C38
383C
783C
703C
F03C
F038
F078
F070
F0E0
79C0
3F00
ENDCHAR
STARTCHAR uni1E52
ENCODING 7762
SWIDTH 831 0
DWIDTH 21 0
BBX 19 25 3 0
BITMAP
001E00
003800
007000
00C000
000000
01FE00
000000
00FE00
038780
0703C0
1E01C0
1C01E0
3801E0
7801E0
7801E0
F001E0
F001E0
F003C0
F003C0
F00380
F00700
700E00
781C00
3C3800
0FC000
ENDCHAR
STARTCHAR uni1E53
ENCODING 7763
SWIDTH 599 0
DWIDTH 15 0
BBX 14 20 2 0
BITMAP
00F0
01C0
0380
0600
0000
0FF0
0000
03E0
0E38
1C38
383C
783C
703C
F03C
F038
F078
F070
F0E0
79C0
3F00
ENDCHAR
STARTCHAR uni1E54
ENCODING 7764
SWIDTH 628 0
DWIDTH 16 0
BBX 17 23 1 0
BITMAP
003C00
007000
00E000
018000
000000
1FFE00
078F00
078780
078780
070780
0F0780
0F0700
0F0F00
0F0E00
0E3C00
1FF000
1E0000
1E0000
1E0000
1C0000
3C0000
3C0000
FF0000
ENDCHAR
STARTCHAR uni1E55
ENCODING 7765
SWIDTH 639 0
DWIDTH 16 0
BBX 16 23 1 -5
BITMAP
0078
00E0
01C0
0300
0000
7E1E
1E3F
1E7F
1ECF
1D0F
1D0F
3E0E
3C0E
3C1C
3818
3830
7C60
7F80
7800
7000
7000
F000
F000
ENDCHAR
STARTCHAR uni1E56
ENCODING 7766
SWIDTH 628 0
DWIDTH 16 0
BBX 17 22 1 0
BITMAP
007000
00F000
00E000
000000
1FFE00
078F00
078780
078780
070780
0F0780
0F0700
0F0F00
0F0E00
0E3C00
1FF000
1E0000
1E0000
1E0000
1C0000
3C0000
3C0000
FF0000
ENDCHAR
STARTCHAR uni1E57
ENCODING 7767
SWIDTH 639 0
DWIDTH 16 0
BBX 16 22 1 -5
BITMAP
00E0
01E0
01C0
0000
7E1E
1E3F
1E7F
1ECF
1D0F
1D0F
3E0E
3C0E
3C1C
3818
3830
7C60
7F80
7800
7000
7000
F000
F000
ENDCHAR
STARTCHAR uni1E58
ENCODING 7768
SWIDTH 711 0
DWIDTH 18 0
BBX 17 22 1 0
BITMAP
007000
00F000
00E000
000000
1FFE00
078F80
078780
070780
070780
0F0780
0F0700
0F0E00
0F1C00
0FF800
1E7800
1E7800
1E3C00
1C3C00
1C1E00
3C1E00
3C0F00
FE0F80
ENDCHAR
STARTCHAR uni1E59
ENCODING 7769
SWIDTH 496 0
DWIDTH 12 0
BBX 13 17 2 0
BITMAP
0380
0780
0700
0000
7C38
3C70
3CF0
3D80
3E00
3E00
7C00
7800
7800
7000
7000
F000
F000
ENDCHAR
STARTCHAR uni1E5A
ENCODING 7770
SWIDTH 711 0
DWIDTH 18 0
BBX 17 22 1 -4
BITMAP
1FFE00
078F80
078780
070780
070780
0F0780
0F0700
0F0E00
0F1C00
0FF800
1E7800
1E7800
1E3C00
1C3C00
1C1E00
3C1E00
3C0F00
FE0F80
000000
01C000
03C000
038000
ENDCHAR
STARTCHAR uni1E5B
ENCODING 7771
SWIDTH 496 0
DWIDTH 12 0
BBX 13 17 2 -4
BITMAP
7C38
3C70
3CF0
3D80
3E00
3E00
7C00
7800
7800
7000
7000
F000
F000
0000
3800
7800
7000
ENDCHAR
STARTCHAR uni1E5C
ENCODING 7772
SWIDTH 711 0
DWIDTH 18 0
BBX 17 24 1 -4
BITMAP
03FC00
000000
1FFE00
078F80
078780
070780
070780
0F0780
0F0700
0F0E00
0F1C00
0FF800
1E7800
1E7800
1E3C00
1C3C00
1C1E00
3C1E00
3C0F00
FE0F80
000000
01C000
03C000
038000
ENDCHAR
STARTCHAR uni1E5D
ENCODING 7773
SWIDTH 496 0
DWIDTH 12 0
BBX 13 19 2 -4
BITMAP
3FC0
0000
7C38
3C70
3CF0
3D80
3E00
3E00
7C00
7800
7800
7000
7000
F000
F000
0000
3800
7800
7000
ENDCHAR
STARTCHAR uni1E5E
ENCODING 7774
SWIDTH 711 0
DWIDTH 18 0
BBX 17 20 1 -2
BITMAP
1FFE00
078F80
078780
070780
070780
0F0780
0F0700
0F0E00
0F1C00
0FF800
1E7800
1E7800
1E3C00
1C3C00
1C1E00
3C1E00
3C0F00
FE0F80
000000
07F800
ENDCHAR
STARTCHAR uni1E5F
ENCODING 7775
SWIDTH 496 0
DWIDTH 12 0
BBX 13 15 2 -2
BITMAP
7C38
3C70
3CF0
3D80
3E00
3E00
7C00
7800
7800
7000
7000
F000
F000
0000
FF00
ENDCHAR
STARTCHAR uni1E60
ENCODING 7776
SWIDTH 587 0
DWIDTH 15 0
BBX 15 22 2 0
BITMAP
00E0
01E0
01C0
0000
01FC
070E
0E06
1C0C
1C00
1E00
1F00
1F80
0FE0
03F0
01F8
00F8
0078
0078
6078
C070
E0E0
7F80
ENDCHAR
STARTCHAR uni1E61
ENCODING 7777
SWIDTH 479 0
DWIDTH 12 0
BBX 12 17 1 0
BITMAP
0380
0780
0700
0000
07E0
1C70
1C20
3C60
1E00
1F00
0F80
07C0
03C0
41C0
C1C0
E380
7F00
ENDCHAR
STARTCHAR uni1E62
ENCODING 7778
SWIDTH 587 0
DWIDTH 15 0
BBX 15 22 2 -4
BITMAP
01FC
070E
0E06
1C0C
1C00
1E00
1F00
1F80
0FE0
03F0
01F8
00F8
0078
0078
6078
C070
E0E0
7F80
0000
0380
0780
0700
ENDCHAR
STARTCHAR uni1E63
ENCODING 7779
SWIDTH 479 0
DWIDTH 12 0
BBX 12 17 1 -4
BITMAP
07E0
1C70
1C20
3C60
1E00
1F00
0F80
07C0
03C0
41C0
C1C0
E380
7F00
0000
0E00
1E00
1C00
ENDCHAR
STARTCHAR uni1E64
ENCODING 7780
SWIDTH 587 0
DWIDTH 15 0
BBX 15 27 2 0
BITMAP
00E0
01E0
01C0
0000
0078
00E0
01C0
0300
0000
01FC
070E
0E06
1C0C
1C00
1E00
1F00
1F80
0FE0
03F0
01F8
00F8
0078
0078
6078
C070
E0E0
7F80
ENDCHAR
STARTCHAR uni1E65
ENCODING 7781
SWIDTH 479 0
DWIDTH 12 0
BBX 12 22 1 0
BITMAP
0380
0780
0700
0000
01E0
0380
0700
0C00
0000
07E0
1C70
1C20
3C60
1E00
1F00
0F80
07C0
03C0
41C0
C1C0
E380
7F00
ENDCHAR
STARTCHAR uni1E66
ENCODING 7782
SWIDTH 587 0
DWIDTH 15 0
BBX 15 27 2 0
BITMAP
00E0
01E0
01C0
0000
030C
0198
01F0
00E0
0000
01FC
070E
0E06
1C0C
1C00
1E00
1F00
1F80
0FE0
03F0
01F8
00F8
0078
0078
6078
C070
E0E0
7F80
ENDCHAR
STARTCHAR uni1E67
ENCODING 7783
SWIDTH 479 0
DWIDTH 12 0
BBX 13 22 1 0
BITMAP
01C0
03C0
0380
0000
0618
0330
03E0
01C0
0000
07E0
1C70
1C20
3C60
1E00
1F00
0F80
07C0
03C0
41C0
C1C0
E380
7F00
ENDCHAR
STARTCHAR uni1E68
ENCODING 7784
SWIDTH 587 0
DWIDTH 15 0
BBX 15 26 2 -4
BITMAP
01C0
03C0
0380
0000
01FC
070E
0E06
1C0C
1C00
1E00
1F00
1F80
0FE0
03F0
01F8
00F8
0078
0078
6078
C070
E0E0
7F80
0000
0380
0780
0700
ENDCHAR
STARTCHAR uni1E69
ENCODING 7785
SWIDTH 479 0
DWIDTH 12 0
BBX 12 21 1 -4
BITMAP
0380
0780
0700
0000
07E0
1C70
1C20
3C60
1E00
1F00
0F80
07C0
03C0
41C0
C1C0
E380
7F00
0000
0E00
1E00
1C00
ENDCHAR
STARTCHAR uni1E6A
ENCODING 7786
SWIDTH 716 0
DWIDTH 18 0
BBX 18 22 3 0
BITMAP
00E000
01E000
01C000
000000
7FFFC0
E1E0C0
C1E080
C1E180
03C000
03C000
03C000
03C000
03C000
038000
078000
078000
078000
078000
070000
0F0000
0F0000
7FC000
ENDCHAR
STARTCHAR uni1E6B
ENCODING 7787
SWIDTH 375 0
DWIDTH 9 0
BBX 9 21 2 0
BITMAP
0E00
1E00
1C00
0000
0C00
1C00
3C00
3C00
FF80
3C00
3800
3800
7800
7800
7800
7000
F000
F000
F000
7200
3C00
ENDCHAR
STARTCHAR uni1E6C
ENCODING 7788
SWIDTH 716 0
DWIDTH 18 0
BBX 18 22 3 -4
BITMAP
7FFFC0
E1E0C0
C1E080
C1E180
03C000
03C000
03C000
03C000
03C000
038000
078000
078000
078000
078000
070000
0F0000
0F0000
7FC000
000000
038000
078000
070000
ENDCHAR
STARTCHAR uni1E6D
ENCODING 7789
SWIDTH 375 0
DWIDTH 9 0
BBX 9 21 2 -4
BITMAP
0C00
1C00
3C00
3C00
FF80
3C00
3800
3800
7800
7800
7800
7000
F000
F000
F000
7200
3C00
0000
3800
7800
7000
ENDCHAR
STARTCHAR uni1E6E
ENCODING 7790
SWIDTH 716 0
DWIDTH 18 0
BBX 18 20 3 -2
BITMAP
7FFFC0
E1E0C0
C1E080
C1E180
03C000
03C000
03C000
03C000
03C000
038000
078000
078000
078000
078000
070000
0F0000
0F0000
7FC000
000000
1FE000
ENDCHAR
STARTCHAR uni1E6F
ENCODING 7791
SWIDTH 375 0
DWIDTH 9 0
BBX 10 19 1 -2
BITMAP
0600
0E00
1E00
1E00
7FC0
1E00
1C00
1C00
3C00
3C00
3C00
3800
7800
7800
7800
3900
1E00
0000
FF00
ENDCHAR
STARTCHAR uni1E70
ENCODING 7792
SWIDTH 716 0
DWIDTH 18 0
BBX 18 23 3 -5
BITMAP
7FFFC0
E1E0C0
C1E080
C1E180
03C000
03C000
03C000
03C000
03C000
038000
078000
078000
078000
078000
070000
0F0000
0F0000
7FC000
000000
038000
07C000
0EC000
186000
ENDCHAR
STARTCHAR uni1E71
ENCODING 7793
SWIDTH 375 0
DWIDTH 9 0
BBX 10 22 1 -5
BITMAP
0600
0E00
1E00
1E00
7FC0
1E00
1C00
1C00
3C00
3C00
3C00
3800
7800
7800
7800
3900
1E00
0000
1C00
3E00
7600
C300
ENDCHAR
STARTCHAR uni1E72
ENCODING 7794
SWIDTH 775 0
DWIDTH 19 0
BBX 19 22 4 -4
BITMAP
FF07E0
3C0380
3C0300
380300
380200
780200
780200
780200
700600
F00400
F00400
F00400
F00400
F00800
F00800
701000
382000
1FC000
000000
1CE000
1CE000
1CE000
ENDCHAR
STARTCHAR uni1E73
ENCODING 7795
SWIDTH 655 0
DWIDTH 16 0
BBX 14 17 3 -4
BITMAP
FCFC
383C
3838
7838
7878
7878
70F8
70F0
F170
F370
FEF0
FCF0
70FC
0000
1CE0
1CE0
1CE0
ENDCHAR
STARTCHAR uni1E74
ENCODING 7796
SWIDTH 775 0
DWIDTH 19 0
BBX 19 22 4 -4
BITMAP
FF07E0
3C0380
3C0300
380300
380200
780200
780200
780200
700600
F00400
F00400
F00400
F00400
F00800
F00800
701000
382000
1FC000
000000
0E2000
1FC000
238000
ENDCHAR
STARTCHAR uni1E75
ENCODING 7797
SWIDTH 655 0
DWIDTH 16 0
BBX 14 17 3 -4
BITMAP
FCFC
383C
3838
7838
7878
7878
70F8
70F0
F170
F370
FEF0
FCF0
70FC
0000
0E20
1FC0
2380
ENDCHAR
STARTCHAR uni1E76
ENCODING 7798
SWIDTH 775 0
DWIDTH 19 0
BBX 19 23 4 -5
BITMAP
FF07E0
3C0380
3C0300
380300
380200
780200
780200
780200
700600
F00400
F00400
F00400
F00400
F00800
F00800
701000
382000
1FC000
000000
070000
0F8000
1D8000
30C000
ENDCHAR
STARTCHAR uni1E77
ENCODING 7799
SWIDTH 655 0
DWIDTH 16 0
BBX 14 18 3 -5
BITMAP
FCFC
383C
3838
7838
7878
7878
70F8
70F0
F170
F370
FEF0
FCF0
70FC
0000
0700
0F80
1D80
30C0
ENDCHAR
STARTCHAR uni1E78
ENCODING 7800
SWIDTH 775 0
DWIDTH 19 0
BBX 19 27 4 0
BITMAP
003C00
007000
00E000
018000
000000
038800
07F000
08E000
000000
FF07E0
3C0380
3C0300
380300
380200
780200
780200
780200
700600
F00400
F00400
F00400
F00400
F00800
F00800
701000
382000
1FC000
ENDCHAR
STARTCHAR uni1E79
ENCODING 7801
SWIDTH 655 0
DWIDTH 16 0
BBX 14 22 3 0
BITMAP
00F0
01C0
0380
0600
0000
0710
0FE0
11C0
0000
FCFC
383C
3838
7838
7878
7878
70F8
70F0
F170
F370
FEF0
FCF0
70FC
ENDCHAR
STARTCHAR uni1E7A
ENCODING 7802
SWIDTH 775 0
DWIDTH 19 0
BBX 19 24 4 0
BITMAP
073800
073800
073800
000000
07F800
000000
FF07E0
3C0380
3C0300
380300
380200
780200
780200
780200
700600
F00400
F00400
F00400
F00400
F00800
F00800
701000
382000
1FC000
ENDCHAR
STARTCHAR uni1E7B
ENCODING 7803
SWIDTH 655 0
DWIDTH 16 0
BBX 14 19 3 0
BITMAP
1CE0
1CE0
1CE0
0000
1FE0
0000
FCFC
383C
3838
7838
7878
7878
70F8
70F0
F170
F370
FEF0
FCF0
70FC
ENDCHAR
STARTCHAR uni1E7C
ENCODING 7804
SWIDTH 741 0
DWIDTH 19 0
BBX 19 22 3 0
BITMAP
038800
07F000
08E000
000000
FE03E0
7C0080
3C0180
3C0100
3C0200
3C0600
1E0400
1E0800
1E0800
1E1000
1E3000
0F2000
0F4000
0FC000
0F8000
070000
070000
060000
ENDCHAR
STARTCHAR uni1E7D
ENCODING 7805
SWIDTH 584 0
DWIDTH 15 0
BBX 15 17 2 0
BITMAP
0710
0FE0
11C0
0000
F83E
780E
3C0E
3C0C
1C18
1E30
1E30
1E60
0EC0
0F80
0F00
0E00
0C00
ENDCHAR
STARTCHAR uni1E7E
ENCODING 7806
SWIDTH 741 0
DWIDTH 19 0
BBX 19 22 3 -4
BITMAP
FE03E0
7C0080
3C0180
3C0100
3C0200
3C0600
1E0400
1E0800
1E0800
1E1000
1E3000
0F2000
0F4000
0FC000
0F8000
070000
070000
060000
000000
038000
078000
070000
ENDCHAR
STARTCHAR uni1E7F
ENCODING 7807
SWIDTH 584 0
DWIDTH 15 0
BBX 15 17 2 -4
BITMAP
F83E
780E
3C0E
3C0C
1C18
1E30
1E30
1E60
0EC0
0F80
0F00
0E00
0C00
0000
0700
0F00
0E00
ENDCHAR
STARTCHAR Wgrave
ENCODING 7808
SWIDTH 922 0
DWIDTH 23 0
BBX 23 23 3 0
BITMAP
01C000
00E000
006000
003000
000000
FC183E
78180C
783818
783810
387830
387C20
38FC60
38BC40
399CC0
391C80
3B1D80
3A1D00
3E1F00
3C1E00
3C1E00
381C00
381C00
301800
ENDCHAR
STARTCHAR wgrave
ENCODING 7809
SWIDTH 822 0
DWIDTH 21 0
BBX 20 18 2 0
BITMAP
01C000
00E000
006000
003000
000000
F820F0
783070
387060
3C7060
3C78C0
1CB880
1CB900
1D3B00
1F3A00
1E1C00
1C1C00
181800
181000
ENDCHAR
STARTCHAR Wacute
ENCODING 7810
SWIDTH 922 0
DWIDTH 23 0
BBX 23 23 3 0
BITMAP
001E00
003800
007000
00C000
000000
FC183E
78180C
783818
783810
387830
387C20
38FC60
38BC40
399CC0
391C80
3B1D80
3A1D00
3E1F00
3C1E00
3C1E00
381C00
381C00
301800
ENDCHAR
STARTCHAR wacute
ENCODING 7811
SWIDTH 822 0
DWIDTH 21 0
BBX 20 18 2 0
BITMAP
003C00
007000
00E000
018000
000000
F820F0
783070
387060
3C7060
3C78C0
1CB880
1CB900
1D3B00
1F3A00
1E1C00
1C1C00
181800
181000
ENDCHAR
STARTCHAR Wdieresis
ENCODING 7812
SWIDTH 922 0
DWIDTH 23 0
BBX 23 22 3 0
BITMAP
039C00
039C00
039C00
000000
FC183E
78180C
783818
783810
387830
387C20
38FC60
38BC40
399CC0
391C80
3B1D80
3A1D00
3E1F00
3C1E00
3C1E00
381C00
381C00
301800
ENDCHAR
STARTCHAR wdieresis
ENCODING 7813
SWIDTH 822 0
DWIDTH 21 0
BBX 20 17 2 0
BITMAP
039C00
039C00
039C00
000000
F820F0
783070
387060
3C7060
3C78C0
1CB880
1CB900
1D3B00
1F3A00
1E1C00
1C1C00
181800
181000
ENDCHAR
STARTCHAR uni1E86
ENCODING 7814
SWIDTH 922 0
DWIDTH 23 0
BBX 23 22 3 0
BITMAP
003800
007800
007000
000000
FC183E
78180C
783818
783810
387830
387C20
38FC60
38BC40
399CC0
391C80
3B1D80
3A1D00
3E1F00
3C1E00
3C1E00
381C00
381C00
301800
ENDCHAR
STARTCHAR uni1E87
ENCODING 7815
SWIDTH 822 0
DWIDTH 21 0
BBX 20 17 2 0
BITMAP
007000
00F000
00E000
000000
F820F0
783070
387060
3C7060
3C78C0
1CB880
1CB900
1D3B00
1F3A00
1E1C00
1C1C00
181800
181000
ENDCHAR
STARTCHAR uni1E88
ENCODING 7816
SWIDTH 922 0
DWIDTH 23 0
BBX 23 22 3 -4
BITMAP
FC183E
78180C
783818
783810
387830
387C20
38FC60
38BC40
399CC0
391C80
3B1D80
3A1D00
3E1F00
3C1E00
3C1E00
381C00
381C00
301800
000000
00E000
01E000
01C000
ENDCHAR
STARTCHAR uni1E89
ENCODING 7817
SWIDTH 822 0
DWIDTH 21 0
BBX 20 17 2 -4
BITMAP
F820F0
783070
387060
3C7060
3C78C0
1CB880
1CB900
1D3B00
1F3A00
1E1C00
1C1C00
181800
181000
000000
01C000
03C000
038000
ENDCHAR
STARTCHAR uni1E8A
ENCODING 7818
SWIDTH 672 0
DWIDTH 17 0
BBX 20 22 0 0
BITMAP
003800
007800
007000
000000
0FE1F0
07C0C0
03C180
03C100
01E200
01E600
00EC00
00F800
00F000
00F800
01F800
033C00
023C00
041C00
081E00
181E00
300F00
F83F80
ENDCHAR
STARTCHAR uni1E8B
ENCODING 7819
SWIDTH 534 0
DWIDTH 13 0
BBX 13 17 1 0
BITMAP
01C0
03C0
0380
0000
3C38
1E38
1E38
0F30
0F60
0780
0780
0F80
1BC0
31C0
61E0
E1E0
E0F0
ENDCHAR
STARTCHAR uni1E8C
ENCODING 7820
SWIDTH 672 0
DWIDTH 17 0
BBX 20 22 0 0
BITMAP
039C00
039C00
039C00
000000
0FE1F0
07C0C0
03C180
03C100
01E200
01E600
00EC00
00F800
00F000
00F800
01F800
033C00
023C00
041C00
081E00
181E00
300F00
F83F80
ENDCHAR
STARTCHAR uni1E8D
ENCODING 7821
SWIDTH 534 0
DWIDTH 13 0
BBX 13 17 1 0
BITMAP
1CE0
1CE0
1CE0
0000
3C38
1E38
1E38
0F30
0F60
0780
0780
0F80
1BC0
31C0
61E0
E1E0
E0F0
ENDCHAR
STARTCHAR uni1E8E
ENCODING 7822
SWIDTH 669 0
DWIDTH 17 0
BBX 17 22 3 0
BITMAP
01C000
03C000
038000
000000
FE0F80
7C0600
3C0400
3C0C00
1C1800
1E3000
1E2000
0F6000
0FC000
078000
070000
0F0000
0F0000
0F0000
0F0000
0E0000
1E0000
7F8000
ENDCHAR
STARTCHAR uni1E8F
ENCODING 7823
SWIDTH 586 0
DWIDTH 15 0
BBX 17 22 0 -5
BITMAP
007000
00F000
00E000
000000
3F0780
0F0380
0F0380
078300
078600
078600
038C00
039800
03B000
03E000
03C000
01C000
018000
030000
060000
0C0000
180000
F80000
ENDCHAR
STARTCHAR uni1E90
ENCODING 7824
SWIDTH 684 0
DWIDTH 17 0
BBX 17 23 2 0
BITMAP
007000
00F800
01D800
030C00
000000
0FFF80
0C0F00
081F00
001E00
003C00
007800
00F800
01F000
01E000
03C000
078000
0F8000
0F0000
1E0000
3C0000
7C0C00
F80C00
FFFC00
ENDCHAR
STARTCHAR uni1E91
ENCODING 7825
SWIDTH 567 0
DWIDTH 14 0
BBX 14 18 1 0
BITMAP
01C0
03E0
0760
0C30
0000
1FFC
1878
3078
00F0
01E0
03C0
0780
0F00
1E00
3C00
7C18
7830
FFF0
ENDCHAR
STARTCHAR uni1E92
ENCODING 7826
SWIDTH 684 0
DWIDTH 17 0
BBX 17 22 2 -4
BITMAP
0FFF80
0C0F00
081F00
001E00
003C00
007800
00F800
01F000
01E000
03C000
078000
0F8000
0F0000
1E0000
3C0000
7C0C00
F80C00
FFFC00
000000
038000
078000
070000
ENDCHAR
STARTCHAR uni1E93
ENCODING 7827
SWIDTH 567 0
DWIDTH 14 0
BBX 14 17 1 -4
BITMAP
1FFC
1878
3078
00F0
01E0
03C0
0780
0F00
1E00
3C00
7C18
7830
FFF0
0000
0700
0F00
0E00
ENDCHAR
STARTCHAR uni1E94
ENCODING 7828
SWIDTH 684 0
DWIDTH 17 0
BBX 17 20 2 -2
BITMAP
0FFF80
0C0F00
081F00
001E00
003C00
007800
00F800
01F000
01E000
03C000
078000
0F8000
0F0000
1E0000
3C0000
7C0C00
F80C00
FFFC00
000000
1FE000
ENDCHAR
STARTCHAR uni1E95
ENCODING 7829
SWIDTH 567 0
DWIDTH 14 0
BBX 14 15 1 -2
BITMAP
1FFC
1878
3078
00F0
01E0
03C0
0780
0F00
1E00
3C00
7C18
7830
FFF0
0000
3FC0
ENDCHAR
STARTCHAR uni1E96
ENCODING 7830
SWIDTH 656 0
DWIDTH 16 0
BBX 14 20 2 -2
BITMAP
3E00
1E00
1E00
1E00
1C00
1C38
3CFC
3DFC
3DBC
3A3C
3E38
7C38
7878
7878
7078
7070
F070
F0FC
0000
1FE0
ENDCHAR
STARTCHAR uni1E97
ENCODING 7831
SWIDTH 375 0
DWIDTH 9 0
BBX 9 21 2 0
BITMAP
E700
E700
E700
0000
0C00
1C00
3C00
3C00
FF80
3C00
3800
3800
7800
7800
7800
7000
F000
F000
F000
7200
3C00
ENDCHAR
STARTCHAR uni1E98
ENCODING 7832
SWIDTH 822 0
DWIDTH 21 0
BBX 20 18 2 0
BITMAP
006000
009000
009000
006000
000000
F820F0
783070
387060
3C7060
3C78C0
1CB880
1CB900
1D3B00
1F3A00
1E1C00
1C1C00
181800
181000
ENDCHAR
STARTCHAR uni1E99
ENCODING 7833
SWIDTH 586 0
DWIDTH 15 0
BBX 17 23 0 -5
BITMAP
00C000
012000
012000
00C000
000000
3F0780
0F0380
0F0380
078300
078600
078600
038C00
039800
03B000
03E000
03C000
01C000
018000
030000
060000
0C0000
180000
F80000
ENDCHAR
STARTCHAR uni1EA0
ENCODING 7840
SWIDTH 765 0
DWIDTH 19 0
BBX 19 22 0 -4
BITMAP
000C00
001C00
001C00
003E00
007E00
005E00
00CE00
018E00
010F00
030F00
020F00
060700
0FFF80
080780
180780
100380
3003C0
F80FE0
000000
007000
00F000
00E000
ENDCHAR
STARTCHAR uni1EA1
ENCODING 7841
SWIDTH 634 0
DWIDTH 16 0
BBX 15 17 2 -4
BITMAP
01FE
063E
0C1C
181C
383C
703C
707C
F0B8
F1F8
F378
FE78
FC78
787C
0000
0380
0780
0700
ENDCHAR
STARTCHAR uni1EA4
ENCODING 7844
SWIDTH 765 0
DWIDTH 19 0
BBX 19 28 0 0
BITMAP
000780
000E00
001C00
003000
000000
000E00
001F00
003B00
006180
000000
000C00
001C00
001C00
003E00
007E00
005E00
00CE00
018E00
010F00
030F00
020F00
060700
0FFF80
080780
180780
100380
3003C0
F80FE0
ENDCHAR
STARTCHAR uni1EA5
ENCODING 7845
SWIDTH 634 0
DWIDTH 16 0
BBX 15 23 2 0
BITMAP
003C
0070
00E0
0180
0000
0070
00F8
01D8
030C
0000
01FE
063E
0C1C
181C
383C
703C
707C
F0B8
F1F8
F378
FE78
FC78
787C
ENDCHAR
STARTCHAR uni1EA6
ENCODING 7846
SWIDTH 765 0
DWIDTH 19 0
BBX 19 28 0 0
BITMAP
007000
003800
001800
000C00
000000
000E00
001F00
003B00
006180
000000
000C00
001C00
001C00
003E00
007E00
005E00
00CE00
018E00
010F00
030F00
020F00
060700
0FFF80
080780
180780
100380
3003C0
F80FE0
ENDCHAR
STARTCHAR uni1EA7
ENCODING 7847
SWIDTH 634 0
DWIDTH 16 0
BBX 15 23 2 0
BITMAP
0380
01C0
00C0
0060
0000
0070
00F8
01D8
030C
0000
01FE
063E
0C1C
181C
383C
703C
707C
F0B8
F1F8
F378
FE78
FC78
787C
ENDCHAR
STARTCHAR uni1EAA
ENCODING 7850
SWIDTH 765 0
DWIDTH 19 0
BBX 19 27 0 0
BITMAP
003880
007F00
008E00
000000
000E00
001F00
003B00
006180
000000
000C00
001C00
001C00
003E00
007E00
005E00
00CE00
018E00
010F00
030F00
020F00
060700
0FFF80
080780
180780
100380
3003C0
F80FE0
ENDCHAR
STARTCHAR uni1EAB
ENCODING 7851
SWIDTH 634 0
DWIDTH 16 0
BBX 15 22 2 0
BITMAP
01C4
03F8
0470
0000
0070
00F8
01D8
030C
0000
01FE
063E
0C1C
181C
383C
703C
707C
F0B8
F1F8
F378
FE78
FC78
787C
ENDCHAR
STARTCHAR uni1EAC
ENCODING 7852
SWIDTH 765 0
DWIDTH 19 0
BBX 19 27 0 -4
BITMAP
003800
007C00
00EC00
018600
000000
000C00
001C00
001C00
003E00
007E00
005E00
00CE00
018E00
010F00
030F00
020F00
060700
0FFF80
080780
180780
100380
3003C0
F80FE0
000000
007000
00F000
00E000
ENDCHAR
STARTCHAR uni1EAD
ENCODING 7853
SWIDTH 634 0
DWIDTH 16 0
BBX 15 22 2 -4
BITMAP
00E0
01F0
03B0
0618
0000
01FE
063E
0C1C
181C
383C
703C
707C
F0B8
F1F8
F378
FE78
FC78
787C
0000
0380
0780
0700
ENDCHAR
STARTCHAR uni1EAE
ENCODING 7854
SWIDTH 765 0
DWIDTH 19 0
BBX 19 28 0 0
BITMAP
001E00
003800
007000
00C000
000000
010300
01C600
00FC00
007800
000000
000C00
001C00
001C00
003E00
007E00
005E00
00CE00
018E00
010F00
030F00
020F00
060700
0FFF80
080780
180780
100380
3003C0
F80FE0
ENDCHAR
STARTCHAR uni1EAF
ENCODING 7855
SWIDTH 634 0
DWIDTH 16 0
BBX 15 23 2 0
BITMAP
0078
00E0
01C0
0300
0000
040C
0718
03F0
01E0
0000
01FE
063E
0C1C
181C
383C
703C
707C
F0B8
F1F8
F378
FE78
FC78
787C
ENDCHAR
STARTCHAR uni1EB0
ENCODING 7856
SWIDTH 765 0
DWIDTH 19 0
BBX 19 28 0 0
BITMAP
00E000
007000
003000
001800
000000
010300
01C600
00FC00
007800
000000
000C00
001C00
001C00
003E00
007E00
005E00
00CE00
018E00
010F00
030F00
020F00
060700
0FFF80
080780
180780
100380
3003C0
F80FE0
ENDCHAR
STARTCHAR uni1EB1
ENCODING 7857
SWIDTH 634 0
DWIDTH 16 0
BBX 15 23 2 0
BITMAP
0700
0380
0180
00C0
0000
040C
0718
03F0
01E0
0000
01FE
063E
0C1C
181C
383C
703C
707C
F0B8
F1F8
F378
FE78
FC78
787C
ENDCHAR
STARTCHAR uni1EB4
ENCODING 7860
SWIDTH 765 0
DWIDTH 19 0
BBX 19 27 0 0
BITMAP
00E200
01FC00
023800
000000
010300
01C600
00FC00
007800
000000
000C00
001C00
001C00
003E00
007E00
005E00
00CE00
018E00
010F00
030F00
020F00
060700
0FFF80
080780
180780
100380
3003C0
F80FE0
ENDCHAR
STARTCHAR uni1EB5
ENCODING 7861
SWIDTH 634 0
DWIDTH 16 0
BBX 15 22 2 0
BITMAP
0388
07F0
08E0
0000
040C
0718
03F0
01E0
0000
01FE
063E
0C1C
181C
383C
703C
707C
F0B8
F1F8
F378
FE78
FC78
787C
ENDCHAR
STARTCHAR uni1EB6
ENCODING 7862
SWIDTH 765 0
DWIDTH 19 0
BBX 19 27 0 -4
BITMAP
010300
01C600
00FC00
007800
000000
000C00
001C00
001C00
003E00
007E00
005E00
00CE00
018E00
010F00
030F00
020F00
060700
0FFF80
080780
180780
100380
3003C0
F80FE0
000000
007000
00F000
00E000
ENDCHAR
STARTCHAR uni1EB7
ENCODING 7863
SWIDTH 634 0
DWIDTH 16 0
BBX 15 22 2 -4
BITMAP
040C
0718
03F0
01E0
0000
01FE
063E
0C1C
181C
383C
703C
707C
F0B8
F1F8
F378
FE78
FC78
787C
0000
0380
0780
0700
ENDCHAR
STARTCHAR uni1EB8
ENCODING 7864
SWIDTH 630 0
DWIDTH 16 0
BBX 17 22 1 -4
BITMAP
1FFF80
078180
078100
078000
078000
0F0000
0F0000
0F0C00
0FF800
0E0800
1E0000
1E0000
1E0000
1E0000
1C0000
3C0600
3C0C00
FFFC00
000000
038000
078000
070000
ENDCHAR
STARTCHAR uni1EB9
ENCODING 7865
SWIDTH 548 0
DWIDTH 14 0
BBX 12 17 2 -4
BITMAP
03E0
0CF0
1870
3870
7070
70E0
F3C0
FF00
F000
F000
F010
7870
3F80
0000
0E00
1E00
1C00
ENDCHAR
STARTCHAR uni1EBC
ENCODING 7868
SWIDTH 630 0
DWIDTH 16 0
BBX 17 22 1 0
BITMAP
01C400
03F800
047000
000000
1FFF80
078180
078100
078000
078000
0F0000
0F0000
0F0C00
0FF800
0E0800
1E0000
1E0000
1E0000
1E0000
1C0000
3C0600
3C0C00
FFFC00
ENDCHAR
STARTCHAR uni1EBD
ENCODING 7869
SWIDTH 548 0
DWIDTH 14 0
BBX 12 17 2 0
BITMAP
0710
0FE0
11C0
0000
03E0
0CF0
1870
3870
7070
70E0
F3C0
FF00
F000
F000
F010
7870
3F80
ENDCHAR
STARTCHAR uni1EBE
ENCODING 7870
SWIDTH 630 0
DWIDTH 16 0
BBX 17 28 1 0
BITMAP
001E00
003800
007000
00C000
000000
003800
007C00
00EC00
018600
000000
1FFF80
078180
078100
078000
078000
0F0000
0F0000
0F0C00
0FF800
0E0800
1E0000
1E0000
1E0000
1E0000
1C0000
3C0600
3C0C00
FFFC00
ENDCHAR
STARTCHAR uni1EBF
ENCODING 7871
SWIDTH 548 0
DWIDTH 14 0
BBX 13 23 2 0
BITMAP
0078
00E0
01C0
0300
0000
00E0
01F0
03B0
0618
0000
03E0
0CF0
1870
3870
7070
70E0
F3C0
FF00
F000
F000
F010
7870
3F80
ENDCHAR
STARTCHAR uni1EC0
ENCODING 7872
SWIDTH 630 0
DWIDTH 16 0
BBX 17 28 1 0
BITMAP
01C000
00E000
006000
003000
000000
003800
007C00
00EC00
018600
000000
1FFF80
078180
078100
078000
078000
0F0000
0F0000
0F0C00
0FF800
0E0800
1E0000
1E0000
1E0000
1E0000
1C0000
3C0600
3C0C00
FFFC00
ENDCHAR
STARTCHAR uni1EC1
ENCODING 7873
SWIDTH 548 0
DWIDTH 14 0
BBX 13 23 2 0
BITMAP
0700
0380
0180
00C0
0000
00E0
01F0
03B0
0618
0000
03E0
0CF0
1870
3870
7070
70E0
F3C0
FF00
F000
F000
F010
7870
3F80
ENDCHAR
STARTCHAR uni1EC4
ENCODING 7876
SWIDTH 630 0
DWIDTH 16 0
BBX 17 27 1 0
BITMAP
00E200
01FC00
023800
000000
003800
007C00
00EC00
018600
000000
1FFF80
078180
078100
078000
078000
0F0000
0F0000
0F0C00
0FF800
0E0800
1E0000
1E0000
1E0000
1E0000
1C0000
3C0600
3C0C00
FFFC00
ENDCHAR
STARTCHAR uni1EC5
ENCODING 7877
SWIDTH 548 0
DWIDTH 14 0
BBX 13 22 2 0
BITMAP
0388
07F0
08E0
0000
00E0
01F0
03B0
0618
0000
03E0
0CF0
1870
3870
7070
70E0
F3C0
FF00
F000
F000
F010
7870
3F80
ENDCHAR
STARTCHAR uni1EC6
ENCODING 7878
SWIDTH 630 0
DWIDTH 16 0
BBX 17 27 1 -4
BITMAP
00E000
01F000
03B000
061800
000000
1FFF80
078180
078100
078000
078000
0F0000
0F0000
0F0C00
0FF800
0E0800
1E0000
1E0000
1E0000
1E0000
1C0000
3C0600
3C0C00
FFFC00
000000
038000
078000
070000
ENDCHAR
STARTCHAR uni1EC7
ENCODING 7879
SWIDTH 548 0
DWIDTH 14 0
BBX 12 22 2 -4
BITMAP
0380
07C0
0EC0
1860
0000
03E0
0CF0
1870
3870
7070
70E0
F3C0
FF00
F000
F000
F010
7870
3F80
0000
0E00
1E00
1C00
ENDCHAR
STARTCHAR uni1ECA
ENCODING 7882
SWIDTH 372 0
DWIDTH 9 0
BBX 11 22 1 -4
BITMAP
1FE0
0780
0780
0700
0F00
0F00
0F00
0F00
0E00
0E00
1E00
1E00
1E00
1C00
1C00
3C00
3C00
FF00
0000
1C00
3C00
3800
ENDCHAR
STARTCHAR uni1ECB
ENCODING 7883
SWIDTH 319 0
DWIDTH 8 0
BBX 7 22 2 -4
BITMAP
1E
1E
1C
00
00
FC
3C
3C
38
38
78
78
78
70
70
F0
F0
FC
00
70
F0
E0
ENDCHAR
STARTCHAR uni1ECC
ENCODING 7884
SWIDTH 831 0
DWIDTH 21 0
BBX 19 22 3 -4
BITMAP
00FE00
038780
0703C0
1E01C0
1C01E0
3801E0
7801E0
7801E0
F001E0
F001E0
F003C0
F003C0
F00380
F00700
700E00
781C00
3C3800
0FC000
000000
01C000
03C000
038000
ENDCHAR
STARTCHAR uni1ECD
ENCODING 7885
SWIDTH 599 0
DWIDTH 15 0
BBX 14 17 2 -4
BITMAP
03E0
0E38
1C38
383C
783C
703C
F03C
F038
F078
F070
F0E0
79C0
3F00
0000
0700
0F00
0E00
ENDCHAR
STARTCHAR uni1ED0
ENCODING 7888
SWIDTH 831 0
DWIDTH 21 0
BBX 19 28 3 0
BITMAP
001E00
003800
007000
00C000
000000
003800
007C00
00EC00
018600
000000
00FE00
038780
0703C0
1E01C0
1C01E0
3801E0
7801E0
7801E0
F001E0
F001E0
F003C0
F003C0
F00380
F00700
700E00
781C00
3C3800
0FC000
ENDCHAR
STARTCHAR uni1ED1
ENCODING 7889
SWIDTH 599 0
DWIDTH 15 0
BBX 14 23 2 0
BITMAP
0078
00E0
01C0
0300
0000
00E0
01F0
03B0
0618
0000
03E0
0E38
1C38
383C
783C
703C
F03C
F038
F078
F070
F0E0
79C0
3F00
ENDCHAR
STARTCHAR uni1ED2
ENCODING 7890
SWIDTH 831 0
DWIDTH 21 0
BBX 19 28 3 0
BITMAP
00E000
007000
003000
001800
000000
003800
007C00
00EC00
018600
000000
00FE00
038780
0703C0
1E01C0
1C01E0
3801E0
7801E0
7801E0
F001E0
F001E0
F003C0
F003C0
F00380
F00700
700E00
781C00
3C3800
0FC000
ENDCHAR
STARTCHAR uni1ED3
ENCODING 7891
SWIDTH 599 0
DWIDTH 15 0
BBX 14 23 2 0
BITMAP
0700
0380
0180
00C0
0000
00E0
01F0
03B0
0618
0000
03E0
0E38
1C38
383C
783C
703C
F03C
F038
F078
F070
F0E0
79C0
3F00
ENDCHAR
STARTCHAR uni1ED6
ENCODING 7894
SWIDTH 831 0
DWIDTH 21 0
BBX 19 27 3 0
BITMAP
00E200
01FC00
023800
000000
003800
007C00
00EC00
018600
000000
00FE00
038780
0703C0
1E01C0
1C01E0
3801E0
7801E0
7801E0
F001E0
F001E0
F003C0
F003C0
F00380
F00700
700E00
781C00
3C3800
0FC000
ENDCHAR
STARTCHAR uni1ED7
ENCODING 7895
SWIDTH 599 0
DWIDTH 15 0
BBX 14 22 2 0
BITMAP
0388
07F0
08E0
0000
00E0
01F0
03B0
0618
0000
03E0
0E38
1C38
383C
783C
703C
F03C
F038
F078
F070
F0E0
79C0
3F00
ENDCHAR
STARTCHAR uni1ED8
ENCODING 7896
SWIDTH 831 0
DWIDTH 21 0
BBX 19 27 3 -4
BITMAP
003800
007C00
00EC00
018600
000000
00FE00
038780
0703C0
1E01C0
1C01E0
3801E0
7801E0
7801E0
F001E0
F001E0
F003C0
F003C0
F00380
F00700
700E00
781C00
3C3800
0FC000
000000
01C000
03C000
038000
ENDCHAR
STARTCHAR uni1ED9
ENCODING 7897
SWIDTH 599 0
DWIDTH 15 0
BBX 14 22 2 -4
BITMAP
01C0
03E0
0760
0C30
0000
03E0
0E38
1C38
383C
783C
703C
F03C
F038
F078
F070
F0E0
79C0
3F00
0000
0700
0F00
0E00
ENDCHAR
STARTCHAR uni1EDA
ENCODING 7898
SWIDTH 831 0
DWIDTH 21 0
BBX 23 23 3 0
BITMAP
0003C0
000700
000E00
001800
000000
00FE1E
0387BE
0703FC
1E01DC
1C01FC
3801F8
7801F0
7801E0
F001E0
F001E0
F003C0
F003C0
F00380
F00700
700E00
781C00
3C3800
0FC000
ENDCHAR
STARTCHAR uni1EDB
ENCODING 7899
SWIDTH 599 0
DWIDTH 15 0
BBX 19 18 2 0
BITMAP
001E00
003800
007000
00C000
000000
03E1E0
0E3BE0
1C3BC0
383DC0
783DC0
703D80
F03F00
F03800
F07800
F07000
F0E000
79C000
3F0000
ENDCHAR
STARTCHAR uni1EDC
ENCODING 7900
SWIDTH 831 0
DWIDTH 21 0
BBX 23 23 3 0
BITMAP
003800
001C00
000C00
000600
000000
00FE1E
0387BE
0703FC
1E01DC
1C01FC
3801F8
7801F0
7801E0
F001E0
F001E0
F003C0
F003C0
F00380
F00700
700E00
781C00
3C3800
0FC000
ENDCHAR
STARTCHAR uni1EDD
ENCODING 7901
SWIDTH 599 0
DWIDTH 15 0
BBX 19 18 2 0
BITMAP
00E000
007000
003000
001800
000000
03E1E0
0E3BE0
1C3BC0
383DC0
783DC0
703D80
F03F00
F03800
F07800
F07000
F0E000
79C000
3F0000
ENDCHAR
STARTCHAR uni1EE0
ENCODING 7904
SWIDTH 831 0
DWIDTH 21 0
BBX 23 22 3 0
BITMAP
001C40
003F80
004700
000000
00FE1E
0387BE
0703FC
1E01DC
1C01FC
3801F8
7801F0
7801E0
F001E0
F001E0
F003C0
F003C0
F00380
F00700
700E00
781C00
3C3800
0FC000
ENDCHAR
STARTCHAR uni1EE1
ENCODING 7905
SWIDTH 599 0
DWIDTH 15 0
BBX 19 17 2 0
BITMAP
007100
00FE00
011C00
000000
03E1E0
0E3BE0
1C3BC0
383DC0
783DC0
703D80
F03F00
F03800
F07800
F07000
F0E000
79C000
3F0000
ENDCHAR
STARTCHAR uni1EE2
ENCODING 7906
SWIDTH 831 0
DWIDTH 21 0
BBX 23 22 3 -4
BITMAP
00FE1E
0387BE
0703FC
1E01DC
1C01FC
3801F8
7801F0
7801E0
F001E0
F001E0
F003C0
F003C0
F00380
F00700
700E00
781C00
3C3800
0FC000
000000
01C000
03C000
038000
ENDCHAR
STARTCHAR uni1EE3
ENCODING 7907
SWIDTH 599 0
DWIDTH 15 0
BBX 19 17 2 -4
BITMAP
03E1E0
0E3BE0
1C3BC0
383DC0
783DC0
703D80
F03F00
F03800
F07800
F07000
F0E000
79C000
3F0000
000000
070000
0F0000
0E0000
ENDCHAR
STARTCHAR uni1EE4
ENCODING 7908
SWIDTH 775 0
DWIDTH 19 0
BBX 19 22 4 -4
BITMAP
FF07E0
3C0380
3C0300
380300
380200
780200
780200
780200
700600
F00400
F00400
F00400
F00400
F00800
F00800
701000
382000
1FC000
000000
070000
0F0000
0E0000
ENDCHAR
STARTCHAR uni1EE5
ENCODING 7909
SWIDTH 655 0
DWIDTH 16 0
BBX 14 17 3 -4
BITMAP
FCFC
383C
3838
7838
7878
7878
70F8
70F0
F170
F370
FEF0
FCF0
70FC
0000
0700
0F00
0E00
ENDCHAR
STARTCHAR uni1EE8
ENCODING 7912
SWIDTH 775 0
DWIDTH 19 0
BBX 23 23 4 0
BITMAP
000780
000E00
001C00
003000
000000
FF07FE
3C03BE
3C033C
38031C
38021C
780218
780270
780200
700600
F00400
F00400
F00400
F00400
F00800
F00800
701000
382000
1FC000
ENDCHAR
STARTCHAR uni1EE9
ENCODING 7913
SWIDTH 655 0
DWIDTH 16 0
BBX 19 18 3 0
BITMAP
001E00
003800
007000
00C000
000000
FCFDE0
383FE0
383BC0
7839C0
7879C0
787980
70FF00
70F000
F17000
F37000
FEF000
FCF000
70FC00
ENDCHAR
STARTCHAR uni1EEA
ENCODING 7914
SWIDTH 775 0
DWIDTH 19 0
BBX 23 23 4 0
BITMAP
007000
003800
001800
000C00
000000
FF07FE
3C03BE
3C033C
38031C
38021C
780218
780270
780200
700600
F00400
F00400
F00400
F00400
F00800
F00800
701000
382000
1FC000
ENDCHAR
STARTCHAR uni1EEB
ENCODING 7915
SWIDTH 655 0
DWIDTH 16 0
BBX 19 18 3 0
BITMAP
01C000
00E000
006000
003000
000000
FCFDE0
383FE0
383BC0
7839C0
7879C0
787980
70FF00
70F000
F17000
F37000
FEF000
FCF000
70FC00
ENDCHAR
STARTCHAR uni1EEE
ENCODING 7918
SWIDTH 775 0
DWIDTH 19 0
BBX 23 22 4 0
BITMAP
003880
007F00
008E00
000000
FF07FE
3C03BE
3C033C
38031C
38021C
780218
780270
780200
700600
F00400
F00400
F00400
F00400
F00800
F00800
701000
382000
1FC000
ENDCHAR
STARTCHAR uni1EEF
ENCODING 7919
SWIDTH 655 0
DWIDTH 16 0
BBX 19 17 3 0
BITMAP
00E200
01FC00
023800
000000
FCFDE0
383FE0
383BC0
7839C0
7879C0
787980
70FF00
70F000
F17000
F37000
FEF000
FCF000
70FC00
ENDCHAR
STARTCHAR uni1EF0
ENCODING 7920
SWIDTH 775 0
DWIDTH 19 0
BBX 23 22 4 -4
BITMAP
FF07FE
3C03BE
3C033C
38031C
38021C
780218
780270
780200
700600
F00400
F00400
F00400
F00400
F00800
F00800
701000
382000
1FC000
000000
038000
078000
070000
ENDCHAR
STARTCHAR uni1EF1
ENCODING 7921
SWIDTH 655 0
DWIDTH 16 0
BBX 19 17 3 -4
BITMAP
FCFDE0
383FE0
383BC0
7839C0
7879C0
787980
70FF00
70F000
F17000
F37000
FEF000
FCF000
70FC00
000000
038000
078000
070000
ENDCHAR
STARTCHAR Ygrave
ENCODING 7922
SWIDTH 669 0
DWIDTH 17 0
BBX 17 23 3 0
BITMAP
0E0000
070000
030000
018000
000000
FE0F80
7C0600
3C0400
3C0C00
1C1800
1E3000
1E2000
0F6000
0FC000
078000
070000
0F0000
0F0000
0F0000
0F0000
0E0000
1E0000
7F8000
ENDCHAR
STARTCHAR ygrave
ENCODING 7923
SWIDTH 586 0
DWIDTH 15 0
BBX 17 23 0 -5
BITMAP
038000
01C000
00C000
006000
000000
3F0780
0F0380
0F0380
078300
078600
078600
038C00
039800
03B000
03E000
03C000
01C000
018000
030000
060000
0C0000
180000
F80000
ENDCHAR
STARTCHAR uni1EF4
ENCODING 7924
SWIDTH 669 0
DWIDTH 17 0
BBX 17 22 3 -4
BITMAP
FE0F80
7C0600
3C0400
3C0C00
1C1800
1E3000
1E2000
0F6000
0FC000
078000
070000
0F0000
0F0000
0F0000
0F0000
0E0000
1E0000
7F8000
000000
070000
0F0000
0E0000
ENDCHAR
STARTCHAR uni1EF5
ENCODING 7925
SWIDTH 586 0
DWIDTH 15 0
BBX 17 22 0 -9
BITMAP
3F0780
0F0380
0F0380
078300
078600
078600
038C00
039800
03B000
03E000
03C000
01C000
018000
030000
060000
0C0000
180000
F80000
000000
0E0000
1E0000
1C0000
ENDCHAR
STARTCHAR uni1EF8
ENCODING 7928
SWIDTH 669 0
DWIDTH 17 0
BBX 17 22 3 0
BITMAP
071000
0FE000
11C000
000000
FE0F80
7C0600
3C0400
3C0C00
1C1800
1E3000
1E2000
0F6000
0FC000
078000
070000
0F0000
0F0000
0F0000
0F0000
0E0000
1E0000
7F8000
ENDCHAR
STARTCHAR uni1EF9
ENCODING 7929
SWIDTH 586 0
DWIDTH 15 0
BBX 17 22 0 -5
BITMAP
01C400
03F800
047000
000000
3F0780
0F0380
0F0380
078300
078600
078600
038C00
039800
03B000
03E000
03C000
01C000
018000
030000
060000
0C0000
180000
F80000
ENDCHAR
STARTCHAR uni2000
ENCODING 8192
SWIDTH 500 0
DWIDTH 13 0
BBX 1 1 0 0
BITMAP
00
ENDCHAR
STARTCHAR uni2001
ENCODING 8193
SWIDTH 1000 0
DWIDTH 25 0
BBX 1 1 0 0
BITMAP
00
ENDCHAR
STARTCHAR uni2002
ENCODING 8194
SWIDTH 500 0
DWIDTH 13 0
BBX 1 1 0 0
BITMAP
00
ENDCHAR
STARTCHAR uni2003
ENCODING 8195
SWIDTH 1000 0
DWIDTH 25 0
BBX 1 1 0 0
BITMAP
00
ENDCHAR
STARTCHAR uni2004
ENCODING 8196
SWIDTH 333 0
DWIDTH 8 0
BBX 1 1 0 0
BITMAP
00
ENDCHAR
STARTCHAR uni2005
ENCODING 8197
SWIDTH 250 0
DWIDTH 6 0
BBX 1 1 0 0
BITMAP
00
ENDCHAR
STARTCHAR uni2006
ENCODING 8198
SWIDTH 167 0
DWIDTH 4 0
BBX 1 1 0 0
BITMAP
00
ENDCHAR
STARTCHAR uni2007
ENCODING 8199
SWIDTH 623 0
DWIDTH 16 0
BBX 1 1 0 0
BITMAP
00
ENDCHAR
STARTCHAR uni2008
ENCODING 8200
SWIDTH 265 0
DWIDTH 7 0
BBX 1 1 0 0
BITMAP
00
ENDCHAR
STARTCHAR uni2009
ENCODING 8201
SWIDTH 200 0
DWIDTH 5 0
BBX 1 1 0 0
BITMAP
00
ENDCHAR
STARTCHAR uni200A
ENCODING 8202
SWIDTH 100 0
DWIDTH 3 0
BBX 1 1 0 0
BITMAP
00
ENDCHAR
STARTCHAR uni200B
ENCODING 8203
SWIDTH 0 0
DWIDTH 0 0
BBX 1 1 0 0
BITMAP
00
ENDCHAR
STARTCHAR uni2010
ENCODING 8208
SWIDTH 289 0
DWIDTH 7 0
BBX 6 1 2 8
BITMAP
FC
ENDCHAR
STARTCHAR uni2011
ENCODING 8209
SWIDTH 289 0
DWIDTH 7 0
BBX 6 1 2 8
BITMAP
FC
ENDCHAR
STARTCHAR figuredash
ENCODING 8210
SWIDTH 500 0
DWIDTH 12 0
BBX 11 1 2 8
BITMAP
FFE0
ENDCHAR
STARTCHAR endash
ENCODING 8211
SWIDTH 500 0
DWIDTH 12 0
BBX 11 1 2 8
BITMAP
FFE0
ENDCHAR
STARTCHAR emdash
ENCODING 8212
SWIDTH 1000 0
DWIDTH 25 0
BBX 23 1 2 7
BITMAP
FFFFFE
ENDCHAR
STARTCHAR afii00208
ENCODING 8213
SWIDTH 1000 0
DWIDTH 25 0
BBX 23 1 2 7
BITMAP
FFFFFE
ENDCHAR
STARTCHAR quoteleft
ENCODING 8216
SWIDTH 265 0
DWIDTH 7 0
BBX 6 7 3 11
BITMAP
1C
30
70
70
78
F8
F0
ENDCHAR
STARTCHAR quoteright
ENCODING 8217
SWIDTH 265 0
DWIDTH 7 0
BBX 6 7 3 11
BITMAP
3C
7C
78
38
38
30
E0
ENDCHAR
STARTCHAR quotesinglbase
ENCODING 8218
SWIDTH 265 0
DWIDTH 7 0
BBX 6 9 0 -5
BITMAP
3C
7C
78
78
38
38
30
F0
C0
ENDCHAR
STARTCHAR quotereversed
ENCODING 8219
SWIDTH 265 0
DWIDTH 7 0
BBX 6 7 3 11
BITMAP
F0
F8
78
70
70
30
1C
ENDCHAR
STARTCHAR quotedblleft
ENCODING 8220
SWIDTH 464 0
DWIDTH 12 0
BBX 11 7 3 11
BITMAP
18E0
31C0
6180
6380
7BC0
F3C0
F3C0
ENDCHAR
STARTCHAR quotedblright
ENCODING 8221
SWIDTH 464 0
DWIDTH 12 0
BBX 11 7 3 11
BITMAP
39E0
79E0
7BC0
38C0
30C0
7180
E300
ENDCHAR
STARTCHAR quotedblbase
ENCODING 8222
SWIDTH 464 0
DWIDTH 12 0
BBX 11 9 0 -5
BITMAP
39E0
79E0
79E0
7BC0
30C0
30C0
7180
E380
8200
ENDCHAR
STARTCHAR uni201F
ENCODING 8223
SWIDTH 464 0
DWIDTH 12 0
BBX 11 7 3 11
BITMAP
F380
F3C0
7BC0
6380
6180
31C0
18E0
ENDCHAR
STARTCHAR dagger
ENCODING 8224
SWIDTH 636 0
DWIDTH 16 0
BBX 12 22 4 -4
BITMAP
0380
0380
0780
0700
0700
0700
E730
FFF0
CE70
0E00
0E00
0E00
0E00
1E00
1C00
1C00
1C00
1C00
3C00
3800
3800
3800
ENDCHAR
STARTCHAR daggerdbl
ENCODING 8225
SWIDTH 636 0
DWIDTH 16 0
BBX 14 22 2 -4
BITMAP
01E0
01E0
01E0
01C0
01C0
01C0
33CC
3FFC
739C
0380
0380
0700
0700
E738
FFF0
C730
0F00
0E00
0E00
0E00
1E00
1E00
ENDCHAR
STARTCHAR bullet
ENCODING 8226
SWIDTH 636 0
DWIDTH 16 0
BBX 9 9 5 3
BITMAP
3E00
7F00
FF80
FF80
FF80
FF80
FF80
7F00
3E00
ENDCHAR
STARTCHAR ellipsis
ENCODING 8230
SWIDTH 1000 0
DWIDTH 25 0
BBX 20 3 3 0
BITMAP
E07070
E06070
E0E070
ENDCHAR
STARTCHAR perthousand
ENCODING 8240
SWIDTH 1156 0
DWIDTH 29 0
BBX 30 18 1 0
BITMAP
0F007000
3980E000
71C1C000
71C38000
61C70000
E18E0000
639C0000
67380000
3E700000
00E3C0F8
01CE619C
038C738C
071C770C
0E1C771C
0C18771C
1818E718
301CC338
E00F81E0
ENDCHAR
STARTCHAR guilsinglleft
ENCODING 8249
SWIDTH 310 0
DWIDTH 8 0
BBX 7 11 2 1
BITMAP
04
0E
1C
38
70
E0
70
70
38
18
10
ENDCHAR
STARTCHAR guilsinglright
ENCODING 8250
SWIDTH 310 0
DWIDTH 8 0
BBX 7 11 1 1
BITMAP
10
30
38
1C
1C
0E
1C
38
70
E0
40
ENDCHAR
STARTCHAR fraction
ENCODING 8260
SWIDTH 55 0
DWIDTH 1 0
BBX 20 18 -6 0
BITMAP
000070
0000C0
000180
000300
000600
000C00
001800
003000
007000
00E000
00C000
018000
030000
060000
0C0000
180000
300000
E00000
ENDCHAR
STARTCHAR oneinferior
ENCODING 8321
SWIDTH 381 0
DWIDTH 10 0
BBX 6 11 -15 -6
BITMAP
3C
0C
1C
18
18
18
18
38
30
30
FC
ENDCHAR
STARTCHAR twoinferior
ENCODING 8322
SWIDTH 381 0
DWIDTH 10 0
BBX 9 11 -14 -6
BITMAP
1F00
3380
2180
0180
0300
0600
1800
2000
4000
FF00
FE00
ENDCHAR
STARTCHAR threeinferior
ENCODING 8323
SWIDTH 381 0
DWIDTH 10 0
BBX 8 11 -15 -6
BITMAP
3E
23
23
03
06
3C
06
07
86
8E
FC
ENDCHAR
STARTCHAR uni20A5
ENCODING 8357
SWIDTH 969 0
DWIDTH 24 0
BBX 22 22 2 -4
BITMAP
000030
000060
000040
000080
000180
FC3938
3CFEFC
3DFFFC
3B3D3C
3A3A3C
3C3E38
7C3C38
787838
707878
707078
70F070
F17070
F1F0FC
020000
040000
0C0000
180000
ENDCHAR
STARTCHAR uni20A6
ENCODING 8358
SWIDTH 797 0
DWIDTH 20 0
BBX 22 18 1 0
BITMAP
1F80FC
078030
07C030
07C060
07E060
0DE060
0FFFE0
0CF060
0C78C0
0C78C0
183CC0
1FFFC0
181E80
180F80
180F80
300780
300780
FC0300
ENDCHAR
STARTCHAR uni20A9
ENCODING 8361
SWIDTH 922 0
DWIDTH 23 0
BBX 23 18 3 0
BITMAP
FC183E
78180C
783818
783810
387830
387C20
3FFFF0
38BC40
399CC0
391C80
3B1D80
3FFFE0
3E1F00
3C1E00
3C1E00
381C00
381C00
301800
ENDCHAR
STARTCHAR Euro
ENCODING 8364
SWIDTH 740 0
DWIDTH 18 0
BBX 22 18 -2 0
BITMAP
0007F8
001C3C
00700C
00F008
00E018
01C000
7FFF00
03C000
078000
078000
078000
FFFE00
078000
078000
03C000
03C000
01F060
007F80
ENDCHAR
STARTCHAR uni20AD
ENCODING 8365
SWIDTH 746 0
DWIDTH 19 0
BBX 19 18 1 0
BITMAP
1FE3E0
078180
070300
070600
070C00
0F1000
0F6000
0EC000
FFFFE0
0FE000
1EF000
1EF800
1C7C00
1C3C00
1C3E00
3C1F00
3C0F00
FE3FC0
ENDCHAR
STARTCHAR uni2103
ENCODING 8451
SWIDTH 986 0
DWIDTH 24 0
BBX 21 18 5 0
BITMAP
600FF0
903878
90E018
61E010
01C030
038000
078000
078000
0F0000
0F0000
0F0000
0F0000
0F0000
0F0000
078000
078000
03E0C0
00FF00
ENDCHAR
STARTCHAR uni2109
ENCODING 8457
SWIDTH 848 0
DWIDTH 21 0
BBX 19 18 5 0
BITMAP
67FFE0
91E060
91E0C0
61E000
01C000
01C000
03C000
03C300
03FE00
038200
038000
078000
078000
078000
070000
0F0000
0F0000
3FC000
ENDCHAR
STARTCHAR trademark
ENCODING 8482
SWIDTH 1044 0
DWIDTH 26 0
BBX 25 10 4 8
BITMAP
FFEF8F80
CE678E00
8E479E00
0C079E00
1C07EE00
1C0DEE00
1C0DCC00
1C0DDC00
1C0C9C00
7E3C1E00
ENDCHAR
STARTCHAR uni212A
ENCODING 8490
SWIDTH 746 0
DWIDTH 19 0
BBX 19 18 1 0
BITMAP
1FE3E0
078180
070300
070600
070C00
0F1000
0F6000
0EC000
0FE000
0FE000
1EF000
1EF800
1C7C00
1C3C00
1C3E00
3C1F00
3C0F00
FE3FC0
ENDCHAR
STARTCHAR uni212B
ENCODING 8491
SWIDTH 765 0
DWIDTH 19 0
BBX 19 23 0 0
BITMAP
000600
000900
000900
000600
000000
000C00
001C00
001C00
003E00
007E00
005E00
00CE00
018E00
010F00
030F00
020F00
060700
0FFF80
080780
180780
100380
3003C0
F80FE0
ENDCHAR
STARTCHAR uni2132
ENCODING 8498
SWIDTH 602 0
DWIDTH 15 0
BBX 17 18 1 0
BITMAP
007F80
001E00
001E00
001C00
003C00
003C00
003C00
003800
083800
0FF800
187800
007800
007000
007000
00F000
60F000
C0F000
FFFC00
ENDCHAR
STARTCHAR minus
ENCODING 8722
SWIDTH 636 0
DWIDTH 16 0
BBX 15 1 2 7
BITMAP
FFFE
ENDCHAR
STARTCHAR fraction
ENCODING 8725
SWIDTH 55 0
DWIDTH 1 0
BBX 20 18 -6 0
BITMAP
000070
0000C0
000180
000300
000600
000C00
001800
003000
007000
00E000
00C000
018000
030000
060000
0C0000
180000
300000
E00000
ENDCHAR
STARTCHAR periodcentered
ENCODING 8729
SWIDTH 636 0
DWIDTH 16 0
BBX 4 3 7 6
BITMAP
70
F0
E0
ENDCHAR
STARTCHAR uni2236
ENCODING 8758
SWIDTH 265 0
DWIDTH 6 0
BBX 6 13 1 0
BITMAP
3C
3C
3C
38
00
00
00
00
00
70
F0
F0
F0
ENDCHAR
STARTCHAR uni2259
ENCODING 8793
SWIDTH 636 0
DWIDTH 16 0
BBX 16 11 1 4
BITMAP
01C0
03E0
0760
0C30
0000
7FFF
0000
0000
0000
0000
FFFE
ENDCHAR
STARTCHAR uni225A
ENCODING 8794
SWIDTH 636 0
DWIDTH 16 0
BBX 16 11 1 4
BITMAP
0C30
0660
07C0
0380
0000
7FFF
0000
0000
0000
0000
FFFE
ENDCHAR
STARTCHAR notequal
ENCODING 8800
SWIDTH 636 0
DWIDTH 16 0
BBX 17 22 1 -4
BITMAP
000180
000300
000200
000400
000C00
000800
001000
003000
7FFF00
004000
008000
008000
010000
FFFE00
020000
040000
080000
080000
100000
200000
600000
C00000
ENDCHAR
STARTCHAR equivalence
ENCODING 8801
SWIDTH 636 0
DWIDTH 16 0
BBX 16 5 0 5
BITMAP
FFFF
0000
FFFF
0000
FFFF
ENDCHAR
STARTCHAR uni2262
ENCODING 8802
SWIDTH 636 0
DWIDTH 16 0
BBX 17 22 0 -3
BITMAP
000180
000300
000200
000400
000C00
000800
001000
003000
002000
FFFF00
008000
FFFF00
010000
FFFF00
020000
040000
080000
080000
100000
200000
600000
C00000
ENDCHAR
STARTCHAR lessequal
ENCODING 8804
SWIDTH 636 0
DWIDTH 16 0
BBX 16 17 2 -2
BITMAP
0001
0007
001E
0070
01C0
0700
3C00
F000
3C00
0F00
0780
01E0
0078
001C
0008
0000
FFFF
ENDCHAR
STARTCHAR greaterequal
ENCODING 8805
SWIDTH 636 0
DWIDTH 16 0
BBX 16 17 1 -2
BITMAP
1000
1800
1E00
0780
01E0
00F0
003C
000F
003C
00E0
0380
0E00
3800
E000
8000
0000
FFFF
ENDCHAR
STARTCHAR uni226E
ENCODING 8814
SWIDTH 636 0
DWIDTH 16 0
BBX 17 22 2 -3
BITMAP
000180
000300
000200
000400
000D00
000F00
001E00
007000
01E000
074000
3C8000
F08000
3D0000
0F0000
078000
05E000
087800
081C00
100800
200000
600000
C00000
ENDCHAR
STARTCHAR uni226F
ENCODING 8815
SWIDTH 636 0
DWIDTH 16 0
BBX 17 22 1 -3
BITMAP
000180
000300
000200
000400
100C00
180800
1E1000
07B000
01E000
00F000
00BC00
008F00
013C00
02E000
038000
0E0000
380000
E80000
900000
200000
600000
C00000
ENDCHAR
STARTCHAR uni2270
ENCODING 8816
SWIDTH 636 0
DWIDTH 16 0
BBX 17 22 2 -4
BITMAP
000180
000300
000200
000500
000F00
001E00
007000
01F000
072000
3C4000
F08000
3C8000
0F0000
078000
03E000
047800
081C00
080800
100000
FFFF00
600000
C00000
ENDCHAR
STARTCHAR uni2271
ENCODING 8817
SWIDTH 636 0
DWIDTH 16 0
BBX 17 22 1 -4
BITMAP
000180
000300
000200
100400
180C00
1E0800
079000
01F000
00F000
007C00
008F00
00BC00
01E000
038000
0E0000
3C0000
E80000
880000
100000
FFFF00
600000
C00000
ENDCHAR
STARTCHAR fi
ENCODING -1
SWIDTH 662 0
DWIDTH 17 0
BBX 17 25 1 -5
BITMAP
00F000
01B800
031380
071780
073700
0F0000
0E0000
3FFF00
1E0F00
1E0E00
1E1E00
1C1E00
1C1E00
3C1E00
3C1C00
3C3C00
383C00
383C00
783C00
783E00
780000
700000
700000
F00000
F00000
ENDCHAR
STARTCHAR fl
ENCODING -1
SWIDTH 668 0
DWIDTH 17 0
BBX 17 25 1 -5
BITMAP
00FF80
018F80
030780
070700
070F00
0F0F00
0E0F00
3FCF00
1E0E00
1E0E00
1E1E00
1C1E00
3C1E00
3C1C00
3C1C00
3C3C00
383C00
783C00
783C00
787E00
780000
700000
F00000
F00000
F00000
ENDCHAR
ENDFONT
